<svg xmlns="http://www.w3.org/2000/svg" xmlns:xlink="http://www.w3.org/1999/xlink" width="364.5" height="125.865" viewBox="0 0 364.5 125.865">
  <defs>
    <clipPath id="clip-path">
      <rect id="長方形_10350" data-name="長方形 10350" width="364.5" height="125.865" fill="#00a4f2"/>
    </clipPath>
  </defs>
  <g id="title_sp" transform="translate(0 0)">
    <g id="グループ_8115" data-name="グループ 8115" transform="translate(0 0)" clip-path="url(#clip-path)">
      <path id="パス_4334" data-name="パス 4334" d="M25.5,28.174c.683-.044,1.321-.068,1.916-.068s1.186-.023,1.778-.067a1.014,1.014,0,0,1,.378.067c.112.046.215.093.308.137a.282.282,0,0,1,.308.276.466.466,0,0,1-.1.409,1.314,1.314,0,0,1-.684.618,7.472,7.472,0,0,1-1.713.683,8.2,8.2,0,0,1-1.162.205,9.012,9.012,0,0,0-1.164.205q-3.08.619-6.23,1.437a2.347,2.347,0,0,0-.888.616,2.957,2.957,0,0,0-.342.616q-1.1,1.916-2.089,3.8t-1.949,3.867a5.15,5.15,0,0,0-.479,1.3,4.8,4.8,0,0,1-.344.684,4.873,4.873,0,0,0-.34.684A16.822,16.822,0,0,0,11.641,45.9c-.3.776-.6,1.553-.924,2.327a.986.986,0,0,0-.139.892.868.868,0,0,0,.276.375.315.315,0,0,0,.411.034c.5-.228,1-.432,1.506-.616s1-.386,1.506-.616c.776-.318,1.538-.639,2.293-.958s1.517-.616,2.293-.89a.55.55,0,0,0,.411-.137,23.43,23.43,0,0,1,2.909-1.027q1.472-.411,2.975-.753a1.476,1.476,0,0,1,.447-.068.772.772,0,0,0,.445-.137,8.778,8.778,0,0,1,2.428-.479c.846-.044,1.677-.091,2.5-.137a.885.885,0,0,1,.683,0c.5.046.97.082,1.405.1a11.217,11.217,0,0,1,1.4.169,5.2,5.2,0,0,1,.958.205c.272.093.57.205.888.342a.351.351,0,0,0,.139.171.394.394,0,0,1,.137.171.682.682,0,0,1-.344,1.1A2.151,2.151,0,0,0,35.9,46a.525.525,0,0,1-.342-.034,6.664,6.664,0,0,0-1.164-.034q-.616.034-1.165.034a21.144,21.144,0,0,0-4.721.548A43.056,43.056,0,0,0,22.9,48.162a34.826,34.826,0,0,0-4.964,1.846q-2.361,1.1-4.687,2.4c-.5.276-.992.57-1.473.89s-.97.616-1.47.892a6.908,6.908,0,0,1-.686.479,5.583,5.583,0,0,0-.683.479q-.411.339-.753.683a2.424,2.424,0,0,0-.548.892q-.274.476-.479.922a6.608,6.608,0,0,1-.479.856.46.46,0,0,1-.411.207.46.46,0,0,1-.479,0,4.365,4.365,0,0,0-.548.032,2.51,2.51,0,0,0-.616.171c-.367.137-.73.276-1.1.411a11.368,11.368,0,0,0-1.093.479,1.661,1.661,0,0,1-1.3-.135,1.555,1.555,0,0,1-1.1-1.576.473.473,0,0,1,.207-.616q.548-.479,1.027-.924T2.3,55.622q.821-.687,1.538-1.405L5.31,52.746a2.912,2.912,0,0,0,.511-.65,3.091,3.091,0,0,1,.515-.65,2.153,2.153,0,0,0,.548-1.164,7.853,7.853,0,0,1,.375-1.3q.24-.613.515-1.232.342-.753.65-1.472c.205-.477.4-.947.58-1.4q.414-.958.721-1.848a9.587,9.587,0,0,1,.787-1.711c.089-.183.181-.352.274-.511a2,2,0,0,0,.205-.515c.181-.454.354-.89.513-1.3a10.121,10.121,0,0,1,.58-1.232,3.549,3.549,0,0,0,.618-1.709,5.747,5.747,0,0,1,.137-1.1.335.335,0,0,0-.171-.409.535.535,0,0,0-.445-.068,5.157,5.157,0,0,1-.618.2c-.181.046-.365.093-.548.137a2.788,2.788,0,0,1-.958.207.939.939,0,0,1-.548.1,4.679,4.679,0,0,1-.548-.1,1.437,1.437,0,0,1-1.3-.892.346.346,0,0,1-.139-.411,1.915,1.915,0,0,1,.823-1.3q.476-.271.922-.513t.926-.443q.75-.345,1.506-.686a6.339,6.339,0,0,1,1.574-.479,5.58,5.58,0,0,0,.751-.205c.276-.091.548-.181.823-.274a2.675,2.675,0,0,0,1.369-1.164c.181-.274.34-.534.479-.787s.3-.513.479-.787q.684-1.232,1.3-2.43t1.3-2.361q.137-.137.137-.205c.363-.593.705-1.184,1.027-1.78s.662-1.186,1.027-1.78c.363-.637.719-1.232,1.061-1.78s.694-1.139,1.059-1.78c.183-.318.356-.65.515-.992a3.5,3.5,0,0,0,.308-1.059c.091-.183.023-.276-.205-.276a1.568,1.568,0,0,0-.857-.032c-.251.068-.511.148-.787.24q-.958.342-1.88.717a9.811,9.811,0,0,0-1.745.924q-.89.482-1.745.924c-.572.3-1.152.627-1.745.994a26.7,26.7,0,0,0-4.072,2.8,20.675,20.675,0,0,0-3.39,3.628c0,.091-.032.15-.1.171a.307.307,0,0,0-.171.171.849.849,0,0,1-.616.276,1.522,1.522,0,0,1-1.645-.686,3.979,3.979,0,0,1-.479-.787,7.488,7.488,0,0,0-.411-.787,1.457,1.457,0,0,1,.139-1.506l.272-.411a2.035,2.035,0,0,1,.276-.34c.73-.778,1.47-1.506,2.224-2.192a15.64,15.64,0,0,1,2.5-1.846q.818-.479,1.641-.892t1.645-.89c.228-.091.445-.183.65-.272a3.186,3.186,0,0,1,.648-.207,8.421,8.421,0,0,0,1.165-.342,7.16,7.16,0,0,0,1.027-.479,13.234,13.234,0,0,1,1.335-.582c.432-.158.878-.331,1.335-.513q1.5-.548,2.943-1.059T25.912,8.6a.565.565,0,0,1,.2-.068.522.522,0,0,0,.207-.068,2.965,2.965,0,0,0,1.164-.753q.339-.479.719-.924c.251-.295.491-.582.719-.856a.918.918,0,0,1,.819-.411,4.249,4.249,0,0,1,3.082.616,1.577,1.577,0,0,0,1.164.207C34.536,6.251,35.07,6.135,35.6,6s1.061-.249,1.607-.342c.867-.228,1.724-.432,2.569-.616s1.677-.342,2.5-.479c.458-.091.9-.183,1.335-.272s.857-.183,1.268-.276q1.506-.339,2.977-.616t2.975-.614q1.78-.414,3.6-.789t3.593-.717Q59.792.933,61.6.66T65.2.044a1.775,1.775,0,0,1,1.709.548.728.728,0,0,1,.276.719.686.686,0,0,1-.411.582,2.82,2.82,0,0,0-.584.173,3.36,3.36,0,0,1-.511.169q-1.506.345-3.012.65t-3.012.65q-1.235.277-2.43.515t-2.43.58q-1.027.205-2.053.447c-.684.16-1.371.283-2.053.375-.548.093-1.1.194-1.643.308s-1.074.24-1.574.376a27.985,27.985,0,0,1-3.32.89q-1.677.345-3.39.684L37.479,8.4q-1.643.342-3.354.819a12.262,12.262,0,0,0-1.232.342c-.411.137-.821.276-1.234.411a2.1,2.1,0,0,0-.58.342,2.985,2.985,0,0,0-.445.479,6.318,6.318,0,0,0-.548.821q-.756,1.1-1.4,2.156t-1.4,2.224a2.91,2.91,0,0,0-.342.616q-.821,1.506-1.677,2.977T23.516,22.5q-.619,1.092-1.2,2.188c-.39.732-.741,1.483-1.061,2.261a1.3,1.3,0,0,0-.205.683c-.093.093-.082.217.034.376a.471.471,0,0,0,.376.24,3.732,3.732,0,0,0,.89.137,8.489,8.489,0,0,0,1.1-.068,9.179,9.179,0,0,1,1.1-.068,4.808,4.808,0,0,0,.548-.032,3.665,3.665,0,0,1,.411-.036" transform="translate(0 0)" fill="#00a4f2"/>
      <path id="パス_4335" data-name="パス 4335" d="M20.541,27.778a2.7,2.7,0,0,1,.479-1.437q.342-.548.684-1.232c.228-.456.458-.865.684-1.232a5.157,5.157,0,0,1,.274-.582q.137-.24.342-.582a2.665,2.665,0,0,1,.137-.479,6,6,0,0,1,.513-1.608,13.946,13.946,0,0,0,.65-1.608,1.432,1.432,0,0,1,.479-.684.534.534,0,0,1,.549-.342,2.378,2.378,0,0,1,.751-.137c.276-.091.454.023.548.342a1.622,1.622,0,0,1,.274,1.027v.342a.332.332,0,0,0,.24.308.442.442,0,0,0,.445-.034,1.5,1.5,0,0,1,.479-.274l.342-.342a1.878,1.878,0,0,1,.479-.344.467.467,0,0,1,.342-.135,1.283,1.283,0,0,0,.411-.068,4.077,4.077,0,0,1,.89-.068,1.812,1.812,0,0,1,1.643.89.762.762,0,0,0,.068.342.423.423,0,0,0,.548.137,1.8,1.8,0,0,0,.274-.171,1.8,1.8,0,0,1,.274-.171l1.027-1.027a6.583,6.583,0,0,0,.719-.686q.308-.339.65-.683a1.174,1.174,0,0,1,.376-.445c.158-.114.31-.217.445-.308q.548-.342,1.1-.719c.363-.251.73-.513,1.1-.787a2.284,2.284,0,0,1,1.713-.274,1.075,1.075,0,0,1,.819.616v.342a12.469,12.469,0,0,1-.308,1.23,6.341,6.341,0,0,1-.511,1.165q-.619,1.3-1.165,2.6a25.932,25.932,0,0,1-1.232,2.532q-.342.89-.719,1.778t-.787,1.781c-.228.456-.435.9-.616,1.344s-.388.918-.616,1.432a.966.966,0,0,1-.034.207,1.2,1.2,0,0,0-.034.281q0,.274.137.274.068.14.205,0a1.178,1.178,0,0,0,.479-.2c.5-.367.992-.73,1.472-1.1a13.933,13.933,0,0,0,1.4-1.234.538.538,0,0,1,.137-.1.372.372,0,0,0,.137-.171,6.364,6.364,0,0,1,1.164-.926,6.166,6.166,0,0,0,1.164-.922,12.474,12.474,0,0,1,1.164-1.027q.616-.479,1.164-.958a4.226,4.226,0,0,0,.753-.479,2.351,2.351,0,0,1,.821-.413h.137c.181.093.228.184.137.276a.461.461,0,0,1-.034.2c-.023.048-.059.116-.1.207a1.182,1.182,0,0,1-.274.753,8.8,8.8,0,0,1-1.232,1.369,16,16,0,0,0-1.232,1.23,4.949,4.949,0,0,0-.992.823,9.619,9.619,0,0,1-.856.821c-.546.548-1.086,1.074-1.608,1.582s-1.061,1.036-1.608,1.586A10.667,10.667,0,0,1,35.667,33.6a1.984,1.984,0,0,1-.719.376,7.972,7.972,0,0,1-.787.171,1.37,1.37,0,0,1-1.1-.479,2.386,2.386,0,0,1-.753-2.671,6.358,6.358,0,0,1,.616-1.466c.228-.468.456-.92.684-1.361s.454-.911.684-1.415c.226-.411.445-.833.65-1.266s.422-.856.65-1.266q.137-.342.274-.65a3.18,3.18,0,0,0,.205-.652c.228-.5.432-.991.616-1.47s.386-.97.616-1.472a1.566,1.566,0,0,0,.274-.549,1.19,1.19,0,0,0,.068-.479c0-.089-.057-.158-.171-.2a.377.377,0,0,0-.308,0,.4.4,0,0,0-.274.135c-.23.184-.422.344-.582.481s-.331.3-.513.479a28.419,28.419,0,0,0-2.224,2.19q-1.064,1.164-2.088,2.327-.342.479-.719.924t-.719.856q-.274.342-.513.65c-.162.205-.331.422-.513.648a3.042,3.042,0,0,1-.821.9,1.152,1.152,0,0,1-1.506,0,2.636,2.636,0,0,1-.548-.591,3.049,3.049,0,0,1-.342-.721q0-.274.068-.274a7.075,7.075,0,0,0,.24-.719,4.3,4.3,0,0,1,.308-.787,4.859,4.859,0,0,0,.274-1.164.233.233,0,0,0-.1-.205c-.07-.046-.127-.046-.173,0a.828.828,0,0,0-.821.411,6.043,6.043,0,0,0-.616.719,3.908,3.908,0,0,0-.479.922c-.183.276-.354.548-.513.823a7.764,7.764,0,0,0-.445.89,5.132,5.132,0,0,1-.958,1.325.535.535,0,0,1-.445.316,1,1,0,0,1-.582-.106.67.67,0,0,1-.616-.348,1.439,1.439,0,0,1-.411-1.049" transform="translate(18.512 13.197)" fill="#00a4f2"/>
      <path id="パス_4336" data-name="パス 4336" d="M54.028,21.175c-.093.183-.171.331-.24.445a1.843,1.843,0,0,0-.171.376c-.228.367-.468.719-.719,1.061s-.491.673-.717.992a5.505,5.505,0,0,0-.892,1.093,9.393,9.393,0,0,1-.821.857,9.708,9.708,0,0,1-.89.719,1.348,1.348,0,0,0-.479.342,8.16,8.16,0,0,1-1.164.854c-.411.253-.819.492-1.23.719l-1.439.618a7.854,7.854,0,0,1-2.806.548H42.05a2.309,2.309,0,0,1-1.435-.618.726.726,0,0,0-.24-.169.3.3,0,0,1-.173-.171.987.987,0,0,1-.274-.821,4.825,4.825,0,0,1,.548-1.3,1.135,1.135,0,0,1,.342-.411,30.62,30.62,0,0,1,2.808-2.464,27.3,27.3,0,0,1,3.147-1.781q.89-.408,1.711-.751c.548-.228,1.072-.454,1.574-.686l1.1-.614a2.086,2.086,0,0,0,.443-.445.865.865,0,0,0,.1-.65.887.887,0,0,0-.618-.823,2.471,2.471,0,0,0-.888-.135,6.97,6.97,0,0,0-2.74.958,24.949,24.949,0,0,0-3.491,2.5A18.583,18.583,0,0,0,41.024,24.6c-.593.869-1.141,1.745-1.643,2.637s-.958,1.789-1.369,2.7L36.78,32.606l-.683,1.78q-.208.548-.413,1.129a9.08,9.08,0,0,1-.479,1.127,15.891,15.891,0,0,0-.958,2.808q-.274.684-.479,1.369a10.421,10.421,0,0,1-.479,1.3,1.75,1.75,0,0,0-.171.513,1.713,1.713,0,0,1-.171.513q-.271.753-.513,1.437a11.533,11.533,0,0,1-.582,1.369l-.342.479a1.2,1.2,0,0,1-.342.1.571.571,0,0,1-.342-.032c-.137,0-.2-.093-.2-.276a3.772,3.772,0,0,1,.135-1.985,12.239,12.239,0,0,1,.411-1.846,3.475,3.475,0,0,1,.034-.447,3.363,3.363,0,0,0,.034-.511c.093-.456.194-.9.308-1.335s.24-.9.376-1.405q.616-1.845,1.335-3.626t1.472-3.559l2.4-5.612q.548-1.164,1.059-2.261t.994-2.257l.411-.823a8.524,8.524,0,0,1,.548-1.47c.226-.479.479-.97.751-1.473.091-.181.183-.375.276-.58a3.626,3.626,0,0,0,.2-.582,2.263,2.263,0,0,0,.137-.684,1.248,1.248,0,0,1,.034-.65q.1-.308.24-.65a1.51,1.51,0,0,1,.479-.413,3.464,3.464,0,0,1,1.918,0,1.269,1.269,0,0,1,.546.413.745.745,0,0,1,.137.614l-.411.958c-.272.458-.525.926-.751,1.405s-.458.924-.686,1.335a2.068,2.068,0,0,0-.068.616c0,.046.046.114.137.2q.068.14.205,0a3,3,0,0,0,.413-.169,1.371,1.371,0,0,0,.34-.24,14.414,14.414,0,0,1,3.082-1.916l1.027-.479a5.435,5.435,0,0,1,1.745-.376,10.2,10.2,0,0,1,1.814.1,3.343,3.343,0,0,1,1.985,1.165c.089.091.169.169.24.24a2.109,2.109,0,0,1,.24.308,2.034,2.034,0,0,1,.34,1.54,3.756,3.756,0,0,1-.479,1.4m-4.654,2.259-.2-.205a.655.655,0,0,0-.686.137L45.4,25.075a8.766,8.766,0,0,0-1.1.823,4.635,4.635,0,0,0-.89,1.027,1.348,1.348,0,0,0-.342.479v.068q.137.342.411.342a4.479,4.479,0,0,0,1.2-.274,4.786,4.786,0,0,0,.994-.548q.955-.753,1.778-1.472a20.012,20.012,0,0,0,1.574-1.54l.342-.413Z" transform="translate(27.527 12.545)" fill="#00a4f2"/>
      <path id="パス_4337" data-name="パス 4337" d="M55.689,18.76a2.037,2.037,0,0,1-.07.479c0,.365.207.548.618.548h.684a6.262,6.262,0,0,1,1.47-.139,6.222,6.222,0,0,0,1.473-.137h.958a.4.4,0,0,1,.135.276c.183.272.16.479-.067.614-.048.137-.1.217-.173.241a.691.691,0,0,0-.24.171c-.183.181-.319.272-.411.272a13.524,13.524,0,0,1-1.745.342,11.35,11.35,0,0,0-1.677.344,5.265,5.265,0,0,1-2.122.479,1.954,1.954,0,0,0-.24.137,2.244,2.244,0,0,1-.24.135.691.691,0,0,0-.171.24.435.435,0,0,1-.1.171,2.261,2.261,0,0,0-.276.445.846.846,0,0,1-.2.308,9.529,9.529,0,0,1-2.156,2.875q-1.4,1.3-2.569,2.192A2.717,2.717,0,0,1,47.2,29.3h-.479a1.07,1.07,0,0,1-.479-.139,2.305,2.305,0,0,1-1.234-.684,3.132,3.132,0,0,1-.616-1.23.544.544,0,0,1-.067-.207,1.587,1.587,0,0,1,.067-1.027,1.309,1.309,0,0,1,.173-.342.561.561,0,0,0,.1-.34,4.509,4.509,0,0,0,.34-.823c.184-.639.356-1.162.515-1.574s.375-.934.65-1.572c.137-.319.272-.639.409-.96s.3-.637.479-.958a9.33,9.33,0,0,1,.582-.89c.205-.272.422-.548.652-.819.226-.367.432-.707.614-1.027s.388-.662.616-1.027a1.042,1.042,0,0,1,.755-.479,1.011,1.011,0,0,1,.751-.276q.753-.137,1.713-.272a1.681,1.681,0,0,1,1.506.409.585.585,0,0,0,.272.171.638.638,0,0,1,.276.171c.135.23.251.435.34.616s.207.388.342.616a4.621,4.621,0,0,1,.207.65,1.976,1.976,0,0,1,0,.719Zm-3.97,2.873a.548.548,0,0,0-.068-.34,4.31,4.31,0,0,1-.549-.823c-.137-.272-.272-.548-.409-.821a.774.774,0,0,0-.342-.272.539.539,0,0,0-.344-.068.562.562,0,0,0-.34.2,11.335,11.335,0,0,0-.686,1.1,19.289,19.289,0,0,0-1.162,2.464c-.276.732-.548,1.6-.823,2.6v.207a.371.371,0,0,0-.032.272.159.159,0,0,0,.171.139c.137.089.249.089.34,0a5.686,5.686,0,0,0,2.464-1.85,22.069,22.069,0,0,0,1.713-2.464.782.782,0,0,0,.068-.342m2.188-4.723a.4.4,0,0,0-.135-.274c-.184,0-.276.025-.276.07a3.069,3.069,0,0,0-1.162,1.985.308.308,0,0,0-.036.238.774.774,0,0,1,.036.24,1.15,1.15,0,0,0,.135.342.421.421,0,0,0,.308.137.415.415,0,0,0,.308-.137,2.45,2.45,0,0,0,.342-.411,2.2,2.2,0,0,0,.344-.958c.044-.363.091-.728.135-1.1Z" transform="translate(39.899 13.181)" fill="#00a4f2"/>
      <path id="パス_4338" data-name="パス 4338" d="M63.663,20.192a10.745,10.745,0,0,0-.308,2.7,14.862,14.862,0,0,0,.171,2.019q.137.821.24,1.266c.068.3.08.445.032.445a6.164,6.164,0,0,0,1.918-.719,9.381,9.381,0,0,0,1.641-1.2c.5-.454.97-.913,1.405-1.369s.808-.867,1.127-1.232q1.509-1.914,2.945-3.662a16.7,16.7,0,0,0,2.4-3.934.165.165,0,0,0,.171-.139.626.626,0,0,1,.171-.274c.454-.365.776-.295.958.205a6.787,6.787,0,0,0,.068.926,2.882,2.882,0,0,1-.068,1.059,12.484,12.484,0,0,1-.684,1.745,10.1,10.1,0,0,1-.96,1.608,62.222,62.222,0,0,1-6.09,7.734A15.022,15.022,0,0,1,67.665,28.4a5.222,5.222,0,0,1-1.47.821q-2.875,1.3-4.861-1.848a5.508,5.508,0,0,0-.375-.856c-.162-.295-.333-.582-.513-.856L58.6,27.517a5.366,5.366,0,0,1-2.329,1.709,2.819,2.819,0,0,1-1.367.205,1.8,1.8,0,0,1-1.232-.753,2.452,2.452,0,0,1-.96-2.464q.277-1.914.721-3.9a21.675,21.675,0,0,1,1.2-3.763,2.136,2.136,0,0,1,.443-.755,1.1,1.1,0,0,1,.857-.34,5.725,5.725,0,0,0,1.506-.207c.5-.137.935.116,1.3.755a23.24,23.24,0,0,0-1.882,3.8,20.338,20.338,0,0,0-1.129,4.071c.274.183.479.219.614.1a2.1,2.1,0,0,1,.549-.308,22.049,22.049,0,0,0,1.435-1.745A12.757,12.757,0,0,1,59.9,22.176a3.532,3.532,0,0,0,.513-.683,3.653,3.653,0,0,1,.582-.755c.228-.228.411-.4.548-.511a.9.9,0,0,1,.445-.207,2.73,2.73,0,0,1,.614,0c.251.025.606.08,1.063.171" transform="translate(47.46 12.5)" fill="#00a4f2"/>
      <path id="パス_4339" data-name="パス 4339" d="M69.346,29.032a3.182,3.182,0,0,1-1.23-.2c-.093-.046-.184-.091-.276-.139a2.232,2.232,0,0,0-.409-.137.8.8,0,0,1-.205-.135.8.8,0,0,0-.205-.139c-.228-.228-.447-.432-.65-.616a2.224,2.224,0,0,1-.513-.684,1.6,1.6,0,0,1,0-1.3,10.216,10.216,0,0,1,.342-1.1c.135-.363.274-.751.411-1.164q.068-.2.171-.479a2.348,2.348,0,0,1,.24-.479,5.78,5.78,0,0,0,.548-1.506,1.771,1.771,0,0,1,.548-1.093,4.359,4.359,0,0,1,1.3-1.713q.411-.411.787-.819a7.718,7.718,0,0,1,.787-.755,5.318,5.318,0,0,0,.479-.272c.274-.091.536-.173.787-.24s.559-.148.924-.24a.655.655,0,0,1,.308-.068h.306a1.266,1.266,0,0,1,.755.34,9.686,9.686,0,0,1,.958.958,5,5,0,0,1,.479.958,1.188,1.188,0,0,1-.139,1.1,7.832,7.832,0,0,1-.958,1.061c-.365.342-.728.673-1.1.992q-.682.55-1.367,1.129T70.99,23.42a1.514,1.514,0,0,1-1.1.274.983.983,0,0,0-.411.068,1.414,1.414,0,0,0-.548.411,2.111,2.111,0,0,0-.274.821,3.012,3.012,0,0,0-.205,1.711,1.659,1.659,0,0,1,.205.24.976.976,0,0,0,.274.24,2.031,2.031,0,0,0,.888.068,6.138,6.138,0,0,0,1.645-.479,13.952,13.952,0,0,0,1.745-.753c.523-.274,1.061-.57,1.607-.89.6-.363,1.175-.719,1.745-1.059s1.154-.7,1.747-1.063a2.157,2.157,0,0,1,.614-.135.369.369,0,0,1,.447.032c.16.116.215.219.171.308a3.229,3.229,0,0,1-1.027,1.711,11.258,11.258,0,0,0-1.472.96c-.481.365-.924.728-1.335,1.093-.365.23-.743.47-1.131.719a4.828,4.828,0,0,1-1.266.582c-.319.139-.648.264-.991.378a3.387,3.387,0,0,1-1.061.171,7.264,7.264,0,0,1-.96.2,3.371,3.371,0,0,1-.958,0m4.314-10.54a.367.367,0,0,1-.137-.24c0-.068-.025-.1-.068-.1h-.411a1.481,1.481,0,0,1-.274.342q-.684.684-1.335,1.437a7.122,7.122,0,0,0-1.063,1.643c0,.184.023.276.07.276h.205c.226-.228.454-.447.683-.652s.458-.422.686-.65a3.134,3.134,0,0,0,.89-.821q.342-.479.616-.956a.4.4,0,0,0,.137-.276" transform="translate(59.229 14.2)" fill="#00a4f2"/>
      <path id="パス_4340" data-name="パス 4340" d="M73.243,26.417q.961-2.259,1.781-4.552a16.636,16.636,0,0,0,.956-4.688c.318-.181.582-.318.787-.411a.971.971,0,0,1,.618-.068,1.757,1.757,0,0,1,.683.376c.251.205.559.492.924.856a3,3,0,0,0,.753-.582,6.7,6.7,0,0,0,.548-.717q.958-.687,1.882-1.3a6.348,6.348,0,0,1,2.088-.89,10.009,10.009,0,0,1,1.814-.1,3.632,3.632,0,0,1,1.61.445.974.974,0,0,1,.683.958q-.274.684-.683.684h-.618a1.643,1.643,0,0,1-.616-.137,7.519,7.519,0,0,0-1.607.171,2.813,2.813,0,0,0-1.473.924,46.812,46.812,0,0,0-3.628,3.766,17.53,17.53,0,0,0-2.806,4.515,4.249,4.249,0,0,1-.308.719q-.171.308-.445.719-.342.821-1.093.548a5.439,5.439,0,0,1-.994-.342,2.169,2.169,0,0,1-.856-.89" transform="translate(66.009 12.914)" fill="#00a4f2"/>
      <path id="パス_4341" data-name="パス 4341" d="M93.339,49.341a10.376,10.376,0,0,0,.413,2.877,3.939,3.939,0,0,0,1.572,1.846.415.415,0,0,1,.241.07,2.2,2.2,0,0,0,.24.135,11.486,11.486,0,0,0,1.437.173,4.657,4.657,0,0,0,1.437-.173q1.161-.342,2.293-.719a12.9,12.9,0,0,0,2.224-.992q1.78-.961,3.455-1.985t3.32-2.19q.958-.682,1.918-1.4a10.3,10.3,0,0,1,2.051-1.2,2.687,2.687,0,0,0,.241-.135,1.907,1.907,0,0,1,.24-.139,10.8,10.8,0,0,1,2.017-1.607c.707-.435,1.405-.9,2.088-1.405.228-.137.445-.274.652-.409s.422-.3.65-.479a15.415,15.415,0,0,1,1.745-1.506c.616-.458,1.219-.914,1.814-1.371q1.024-.753,1.985-1.54c.639-.523,1.278-1.084,1.915-1.675q.479-.414.958-.789t.958-.717a.457.457,0,0,1,.686.068.694.694,0,0,1,.2.751.652.652,0,0,1-.2.479.419.419,0,0,1-.07.24,2.238,2.238,0,0,0-.137.24,3.49,3.49,0,0,1-.34.548,5.2,5.2,0,0,1-.479.548c-.5.6-1.006,1.175-1.506,1.745s-1.027,1.129-1.576,1.677a20.617,20.617,0,0,1-1.607,1.574c-.572.5-1.154,1-1.745,1.506q-1.166.821-2.224,1.713t-2.226,1.709a8.892,8.892,0,0,0-1.061.787,8.477,8.477,0,0,1-1.059.787q-1.714,1.372-3.458,2.532t-3.523,2.329q-.821.545-1.643.991t-1.645.926a25.631,25.631,0,0,1-3.181,1.266,14.991,14.991,0,0,1-3.39.648,6,6,0,0,1-1.437-.034c-.456-.067-.935-.148-1.435-.24a1.256,1.256,0,0,0-.342-.1,1.092,1.092,0,0,1-.413-.171,23.691,23.691,0,0,1-3.012-1.643,4.824,4.824,0,0,1-2.12-3.422,17.091,17.091,0,0,1-.207-2.669,4.407,4.407,0,0,1,.07-.787c.046-.249.089-.534.137-.854Q91.08,44,92.073,41.025a61.181,61.181,0,0,1,2.361-5.987c.319-.686.627-1.38.924-2.089s.559-1.424.789-2.156a2.592,2.592,0,0,1,.479-.684,5.006,5.006,0,0,0,.787-1.232c.2-.454.4-.911.58-1.367a18.655,18.655,0,0,1,1.234-2.432q.682-1.129,1.367-2.293,1.437-2.187,2.943-4.244t3.219-4.038q.2-.205.376-.411a4.881,4.881,0,0,0,.306-.411q.479-.682.924-1.335a12.733,12.733,0,0,1,.994-1.266,12.085,12.085,0,0,1,.991-1.129,6.143,6.143,0,0,0,.926-1.2A8.225,8.225,0,0,1,111.956,8q.619-.616,1.232-1.232a15.823,15.823,0,0,0,1.165-1.3,12.605,12.605,0,0,1,1.2-1.3,13.274,13.274,0,0,0,1.2-1.3,2.184,2.184,0,0,1,1.367-.686c.367,0,.719.011,1.063.034a5.247,5.247,0,0,0,1.059-.034,5.54,5.54,0,0,1,2.055.411,3.224,3.224,0,0,0,1.846.276h.755c.226.089.409.16.548.2a4.34,4.34,0,0,1,.479.205,1.031,1.031,0,0,1,.614.582,1.466,1.466,0,0,1,.068.994c-.135.135-.183.2-.135.2-.093.276-.184.435-.276.479a24.408,24.408,0,0,0-1.745,2.4q-.787,1.229-1.607,2.532a12.987,12.987,0,0,0-.65,1.162c-.207.411-.424.823-.652,1.234q-.616,1.369-1.23,2.7a24.4,24.4,0,0,0-1.1,2.842c-.228.637-.489,1.287-.787,1.949a19,19,0,0,0-.787,2.089c-.137.5-.3,1.027-.479,1.574a11.382,11.382,0,0,0-.409,1.572q-.208.89-.479,1.711t-.618,1.643a3.731,3.731,0,0,1-.819,1.027.394.394,0,0,1-.276.07c-.091,0-.183-.114-.272-.344a6.951,6.951,0,0,1-.139-1.916q.137-.753.24-1.608a11.221,11.221,0,0,1,.308-1.608c.139-.546.262-1.093.378-1.643s.24-1.07.375-1.574q.619-1.78,1.164-3.591a35.9,35.9,0,0,1,1.3-3.6c.044-.137.091-.272.135-.411s.091-.272.137-.411c.091-.365.194-.74.308-1.127s.217-.787.31-1.2a4.15,4.15,0,0,0,.2-.65,4.3,4.3,0,0,1,.205-.65c.23-.411.456-.81.686-1.2a5.79,5.79,0,0,0,.548-1.266c-.048,0-.068-.021-.068-.068s-.013-.068-.036-.068-.032-.023-.032-.068c-.093-.091-.162-.135-.207-.135a.591.591,0,0,0-.272.067,6.292,6.292,0,0,0-.994.616q-.445.342-.991.755-1.235.955-2.432,2.053t-2.361,2.188q-.887.961-1.709,1.916t-1.713,1.918q-1.916,2.187-3.591,4.517t-3.251,4.789c-.367.6-.719,1.175-1.063,1.745s-.7,1.129-1.059,1.677c-.367.641-.709,1.243-1.027,1.814S99,32.139,98.68,32.778q-.961,1.985-1.781,3.97t-1.574,4.038q-.548,1.506-.992,2.977t-.787,3.046a15.415,15.415,0,0,0-.205,2.532" transform="translate(81.159 1.967)" fill="#00a4f2"/>
      <path id="パス_4342" data-name="パス 4342" d="M122.431,18.76a2.037,2.037,0,0,1-.07.479c0,.365.207.548.618.548h.684a6.262,6.262,0,0,1,1.47-.139,6.222,6.222,0,0,0,1.473-.137h.958a.4.4,0,0,1,.135.276c.183.272.16.479-.067.614-.048.137-.1.217-.173.241a.691.691,0,0,0-.24.171c-.183.181-.319.272-.411.272a13.525,13.525,0,0,1-1.745.342,11.35,11.35,0,0,0-1.677.344,5.266,5.266,0,0,1-2.122.479,1.955,1.955,0,0,0-.24.137,2.243,2.243,0,0,1-.24.135.691.691,0,0,0-.171.24.435.435,0,0,1-.1.171,2.262,2.262,0,0,0-.276.445.846.846,0,0,1-.2.308,9.529,9.529,0,0,1-2.156,2.875q-1.4,1.3-2.569,2.192a2.717,2.717,0,0,1-1.367.548h-.479a1.07,1.07,0,0,1-.479-.139,2.305,2.305,0,0,1-1.234-.684,3.132,3.132,0,0,1-.616-1.23.544.544,0,0,1-.067-.207,1.587,1.587,0,0,1,.067-1.027,1.309,1.309,0,0,1,.173-.342.561.561,0,0,0,.1-.34,4.509,4.509,0,0,0,.34-.823c.184-.639.356-1.162.515-1.574s.375-.934.65-1.572c.137-.319.272-.639.409-.96s.3-.637.479-.958a9.333,9.333,0,0,1,.582-.89c.205-.272.422-.548.652-.819.226-.367.432-.707.614-1.027s.388-.662.616-1.027a1.042,1.042,0,0,1,.755-.479,1.011,1.011,0,0,1,.751-.276q.753-.137,1.713-.272a1.681,1.681,0,0,1,1.506.409.585.585,0,0,0,.272.171.638.638,0,0,1,.276.171c.135.23.251.435.34.616s.207.388.342.616a4.62,4.62,0,0,1,.207.65,1.976,1.976,0,0,1,0,.719Zm-3.97,2.873a.548.548,0,0,0-.068-.34,4.31,4.31,0,0,1-.549-.823c-.137-.272-.272-.548-.409-.821a.774.774,0,0,0-.342-.272.539.539,0,0,0-.344-.068.562.562,0,0,0-.34.2,11.341,11.341,0,0,0-.686,1.1,19.293,19.293,0,0,0-1.162,2.464c-.276.732-.548,1.6-.823,2.6v.207a.371.371,0,0,0-.032.272.159.159,0,0,0,.171.139c.137.089.249.089.34,0a5.686,5.686,0,0,0,2.464-1.85,22.068,22.068,0,0,0,1.713-2.464.782.782,0,0,0,.068-.342m2.188-4.723a.4.4,0,0,0-.135-.274c-.184,0-.276.025-.276.07a3.069,3.069,0,0,0-1.162,1.985.308.308,0,0,0-.036.238.773.773,0,0,1,.036.24,1.15,1.15,0,0,0,.135.342.421.421,0,0,0,.308.137.415.415,0,0,0,.308-.137,2.45,2.45,0,0,0,.342-.411,2.2,2.2,0,0,0,.344-.958c.044-.363.091-.728.135-1.1Z" transform="translate(100.049 13.181)" fill="#00a4f2"/>
      <path id="パス_4343" data-name="パス 4343" d="M118.746,27.778a2.7,2.7,0,0,1,.479-1.437q.342-.548.684-1.232c.228-.456.458-.865.684-1.232a5.158,5.158,0,0,1,.274-.582q.137-.24.342-.582a2.665,2.665,0,0,1,.137-.479,6,6,0,0,1,.513-1.608,13.948,13.948,0,0,0,.65-1.608,1.433,1.433,0,0,1,.479-.684.534.534,0,0,1,.549-.342,2.378,2.378,0,0,1,.751-.137c.276-.091.454.023.548.342a1.622,1.622,0,0,1,.274,1.027v.342a.332.332,0,0,0,.24.308.442.442,0,0,0,.445-.034,1.5,1.5,0,0,1,.479-.274l.342-.342a1.878,1.878,0,0,1,.479-.344.467.467,0,0,1,.342-.135,1.283,1.283,0,0,0,.411-.068,4.078,4.078,0,0,1,.89-.068,1.812,1.812,0,0,1,1.643.89.762.762,0,0,0,.068.342.423.423,0,0,0,.548.137,1.8,1.8,0,0,0,.274-.171,1.8,1.8,0,0,1,.274-.171l1.027-1.027a6.581,6.581,0,0,0,.719-.686q.308-.339.65-.683a1.175,1.175,0,0,1,.376-.445c.158-.114.31-.217.445-.308q.548-.342,1.1-.719c.363-.251.73-.513,1.1-.787a2.284,2.284,0,0,1,1.713-.274,1.075,1.075,0,0,1,.819.616v.342a12.469,12.469,0,0,1-.308,1.23,6.341,6.341,0,0,1-.511,1.165q-.619,1.3-1.165,2.6a25.941,25.941,0,0,1-1.232,2.532q-.342.89-.719,1.778t-.787,1.781c-.228.456-.435.9-.616,1.344s-.388.918-.616,1.432a.966.966,0,0,1-.034.207,1.2,1.2,0,0,0-.034.281q0,.274.137.274.068.14.205,0a1.178,1.178,0,0,0,.479-.2c.5-.367.992-.73,1.472-1.1a13.935,13.935,0,0,0,1.4-1.234.538.538,0,0,1,.137-.1.372.372,0,0,0,.137-.171,6.364,6.364,0,0,1,1.164-.926,6.167,6.167,0,0,0,1.164-.922,12.475,12.475,0,0,1,1.164-1.027q.616-.479,1.164-.958a4.227,4.227,0,0,0,.753-.479,2.351,2.351,0,0,1,.821-.413h.137c.181.093.228.184.137.276a.461.461,0,0,1-.034.2c-.023.048-.059.116-.1.207a1.182,1.182,0,0,1-.274.753,8.8,8.8,0,0,1-1.232,1.369,16,16,0,0,0-1.232,1.23,4.948,4.948,0,0,0-.992.823,9.618,9.618,0,0,1-.856.821c-.546.548-1.086,1.074-1.608,1.582s-1.061,1.036-1.608,1.586a10.668,10.668,0,0,1-2.122,1.985,1.984,1.984,0,0,1-.719.376,7.973,7.973,0,0,1-.787.171,1.37,1.37,0,0,1-1.1-.479,2.386,2.386,0,0,1-.753-2.671,6.358,6.358,0,0,1,.616-1.466c.228-.468.456-.92.684-1.361s.454-.911.684-1.415c.226-.411.445-.833.65-1.266s.422-.856.65-1.266q.137-.342.274-.65a3.18,3.18,0,0,0,.205-.652c.228-.5.432-.991.616-1.47s.386-.97.616-1.472a1.565,1.565,0,0,0,.274-.549,1.19,1.19,0,0,0,.068-.479c0-.089-.057-.158-.171-.2a.377.377,0,0,0-.308,0,.4.4,0,0,0-.274.135c-.23.184-.422.344-.582.481s-.331.3-.513.479a28.426,28.426,0,0,0-2.224,2.19q-1.064,1.164-2.088,2.327-.342.479-.719.924t-.719.856q-.274.342-.513.65c-.162.205-.331.422-.513.648a3.042,3.042,0,0,1-.821.9,1.152,1.152,0,0,1-1.506,0,2.636,2.636,0,0,1-.548-.591,3.049,3.049,0,0,1-.342-.721q0-.274.068-.274a7.076,7.076,0,0,0,.24-.719,4.3,4.3,0,0,1,.308-.787,4.86,4.86,0,0,0,.274-1.164.233.233,0,0,0-.1-.205c-.07-.046-.127-.046-.173,0a.828.828,0,0,0-.821.411,6.044,6.044,0,0,0-.616.719,3.908,3.908,0,0,0-.479.922c-.183.276-.354.548-.513.823a7.761,7.761,0,0,0-.445.89,5.132,5.132,0,0,1-.958,1.325.535.535,0,0,1-.445.316,1,1,0,0,1-.582-.106.67.67,0,0,1-.616-.348,1.439,1.439,0,0,1-.411-1.049" transform="translate(107.017 13.197)" fill="#00a4f2"/>
      <path id="パス_4344" data-name="パス 4344" d="M131.814,27.778a2.7,2.7,0,0,1,.479-1.437q.342-.548.684-1.232c.228-.456.458-.865.684-1.232a5.16,5.16,0,0,1,.274-.582q.137-.24.342-.582a2.665,2.665,0,0,1,.137-.479,6,6,0,0,1,.513-1.608,13.946,13.946,0,0,0,.65-1.608,1.432,1.432,0,0,1,.479-.684.534.534,0,0,1,.549-.342,2.378,2.378,0,0,1,.751-.137c.276-.091.454.023.548.342a1.622,1.622,0,0,1,.274,1.027v.342a.332.332,0,0,0,.24.308.442.442,0,0,0,.445-.034,1.5,1.5,0,0,1,.479-.274l.342-.342a1.878,1.878,0,0,1,.479-.344.467.467,0,0,1,.342-.135,1.283,1.283,0,0,0,.411-.068,4.077,4.077,0,0,1,.89-.068,1.812,1.812,0,0,1,1.643.89.762.762,0,0,0,.068.342.423.423,0,0,0,.548.137,1.8,1.8,0,0,0,.274-.171,1.8,1.8,0,0,1,.274-.171l1.027-1.027a6.585,6.585,0,0,0,.719-.686q.308-.339.65-.683a1.175,1.175,0,0,1,.376-.445c.158-.114.31-.217.445-.308q.547-.342,1.1-.719c.363-.251.73-.513,1.1-.787a2.284,2.284,0,0,1,1.713-.274,1.075,1.075,0,0,1,.819.616v.342a12.469,12.469,0,0,1-.308,1.23,6.341,6.341,0,0,1-.511,1.165q-.619,1.3-1.165,2.6a25.92,25.92,0,0,1-1.232,2.532q-.342.89-.719,1.778t-.787,1.781c-.228.456-.435.9-.616,1.344s-.388.918-.616,1.432a.967.967,0,0,1-.034.207,1.2,1.2,0,0,0-.034.281q0,.274.137.274.068.14.205,0a1.178,1.178,0,0,0,.479-.2c.5-.367.992-.73,1.472-1.1a13.935,13.935,0,0,0,1.4-1.234.538.538,0,0,1,.137-.1.372.372,0,0,0,.137-.171,6.363,6.363,0,0,1,1.164-.926,6.165,6.165,0,0,0,1.164-.922,12.479,12.479,0,0,1,1.164-1.027q.616-.479,1.164-.958a4.226,4.226,0,0,0,.753-.479,2.351,2.351,0,0,1,.821-.413h.137c.181.093.228.184.137.276a.462.462,0,0,1-.034.2c-.023.048-.059.116-.1.207a1.182,1.182,0,0,1-.274.753,8.8,8.8,0,0,1-1.232,1.369,16,16,0,0,0-1.232,1.23,4.949,4.949,0,0,0-.992.823,9.622,9.622,0,0,1-.856.821c-.546.548-1.086,1.074-1.608,1.582s-1.061,1.036-1.608,1.586A10.665,10.665,0,0,1,146.94,33.6a1.984,1.984,0,0,1-.719.376,7.974,7.974,0,0,1-.787.171,1.37,1.37,0,0,1-1.1-.479,2.386,2.386,0,0,1-.753-2.671,6.358,6.358,0,0,1,.616-1.466c.228-.468.456-.92.684-1.361s.454-.911.684-1.415c.226-.411.445-.833.65-1.266s.422-.856.65-1.266q.137-.342.274-.65a3.18,3.18,0,0,0,.205-.652c.228-.5.432-.991.616-1.47s.386-.97.616-1.472a1.566,1.566,0,0,0,.274-.549,1.19,1.19,0,0,0,.068-.479c0-.089-.057-.158-.171-.2a.377.377,0,0,0-.308,0,.4.4,0,0,0-.274.135c-.23.184-.422.344-.582.481s-.331.3-.513.479a28.426,28.426,0,0,0-2.224,2.19q-1.064,1.164-2.088,2.327-.342.479-.719.924t-.719.856q-.274.342-.513.65c-.162.205-.331.422-.513.648a3.042,3.042,0,0,1-.821.9,1.152,1.152,0,0,1-1.506,0,2.636,2.636,0,0,1-.548-.591,3.049,3.049,0,0,1-.342-.721q0-.274.068-.274a7.061,7.061,0,0,0,.24-.719,4.3,4.3,0,0,1,.308-.787,4.862,4.862,0,0,0,.274-1.164.233.233,0,0,0-.1-.205c-.07-.046-.127-.046-.173,0a.828.828,0,0,0-.821.411,6.044,6.044,0,0,0-.616.719,3.909,3.909,0,0,0-.479.922c-.182.276-.354.548-.513.823a7.764,7.764,0,0,0-.445.89,5.131,5.131,0,0,1-.958,1.325.535.535,0,0,1-.445.316,1,1,0,0,1-.582-.106.67.67,0,0,1-.616-.348,1.439,1.439,0,0,1-.411-1.049" transform="translate(118.795 13.197)" fill="#00a4f2"/>
      <path id="パス_4345" data-name="パス 4345" d="M150.726,14.783a4.884,4.884,0,0,0,.548.24,1.324,1.324,0,0,0,.413.1c.226.272.295.456.2.548a26,26,0,0,0-1.367,2.428q-.824,1.611-1.473,3.116a16.176,16.176,0,0,0-.89,2.5c-.16.664.011.856.515.582.272-.181.479-.331.614-.443a2.474,2.474,0,0,1,.479-.31q1.851-1.643,3.7-3.456t3.629-3.455a4.2,4.2,0,0,1,.751-.719,1.525,1.525,0,0,1,.892-.24.74.74,0,0,1,.65.032,7.816,7.816,0,0,1,1.127.719c0,.184-.009.424-.032.719a.657.657,0,0,1-.308.584,3.4,3.4,0,0,0-1.3,1.677,6.684,6.684,0,0,1-1.1,1.949,4.659,4.659,0,0,0-.719,1.814,3.881,3.881,0,0,0,.376,2.224h.65a1.453,1.453,0,0,0,.652-.135q1.5-.414,2.907-.856c.935-.3,1.859-.627,2.772-.994q.821-.339,1.677-.719a4.629,4.629,0,0,1,1.882-.376,6.062,6.062,0,0,1-.683,1.232,3.127,3.127,0,0,1-.823.958,17.853,17.853,0,0,1-2.975,1.677q-1.611.719-3.116,1.473a8.953,8.953,0,0,1-1.266.409,5.735,5.735,0,0,1-1.335.139,2.178,2.178,0,0,1-1.162-.207,3.849,3.849,0,0,1-1.1-.719,3.705,3.705,0,0,1-.789-1.059,2.031,2.031,0,0,1-.24-1.165,8.4,8.4,0,0,1,.1-1.232,10.16,10.16,0,0,0,.1-1.506c-.23.184-.424.333-.584.445a1.213,1.213,0,0,0-.376.447q-.818.958-1.78,1.949T150.181,27.1c-.276.183-.6.39-.96.618a3.829,3.829,0,0,1-1.093.479,1.26,1.26,0,0,1-1.643-.344,4.251,4.251,0,0,1-.755-.992,2.655,2.655,0,0,1-.272-1.266,6.4,6.4,0,0,1,.34-2.086q.342-.992.686-1.953.682-1.643,1.435-3.08t1.506-3.012a1.577,1.577,0,0,1,.274-.409,1.493,1.493,0,0,1,.481-.276Z" transform="translate(131.091 13.323)" fill="#00a4f2"/>
      <path id="パス_4346" data-name="パス 4346" d="M165.473,27.308c.5-.318,1.013-.637,1.54-.958a9.809,9.809,0,0,0,1.472-1.093,12.767,12.767,0,0,1,1.814-1.131A16.916,16.916,0,0,0,172.178,23c.183-.089.378-.192.584-.308a6.221,6.221,0,0,1,.65-.308c.228-.091.432-.183.616-.272a5.662,5.662,0,0,1,.683-.276c.183-.044.228.025.139.207a.454.454,0,0,1,0,.34,2.8,2.8,0,0,0-.139.344l-1.435,1.093q-.205.14-.445.308c-.162.116-.308.217-.445.308l-2.6,2.464c-.549.5-1.107,1-1.677,1.506s-1.175,1-1.814,1.506a4.334,4.334,0,0,0-.65.479c-.207.184-.424.365-.65.548-.184.137-.354.276-.513.411a2.2,2.2,0,0,1-.376.276,1.429,1.429,0,0,1-1.506-.139l-.342-.272a6.38,6.38,0,0,1-.618-.892,2.37,2.37,0,0,1,.07-1.23l.274-1.165c.226-.639.433-1.253.616-1.846a18.1,18.1,0,0,1,.684-1.848l.616-1.713.137-.684a.443.443,0,0,0-.274-.411.782.782,0,0,0-.342.068l-1.643,1.645a5.424,5.424,0,0,1-.926.856,2.977,2.977,0,0,1-1.059.511,3.653,3.653,0,0,1-.342.207.74.74,0,0,0-.276.272,1.874,1.874,0,0,1-.956.755l-.479.2q-.616.277-.89-.411a1.282,1.282,0,0,1-.137-1.027,9.177,9.177,0,0,0,.445-1.027q.171-.479.376-.958a8.994,8.994,0,0,0,.614-1.164,10.285,10.285,0,0,0,.479-1.3,3.049,3.049,0,0,1,.413-.958,12.687,12.687,0,0,1,.479-1.234,10.912,10.912,0,0,0,.479-1.3,5.778,5.778,0,0,1,.308-.755c.114-.226.217-.454.306-.683a.592.592,0,0,1,.618-.344h.684a3.151,3.151,0,0,1,.443.036.516.516,0,0,1,.378.24,1.053,1.053,0,0,1,.479,1.1,1.589,1.589,0,0,1-.137.65,1.539,1.539,0,0,0-.137.648.272.272,0,0,0,.274.139.767.767,0,0,0,.342-.068,6.813,6.813,0,0,1,1.2-.958,6.989,6.989,0,0,0,1.2-.958,2.906,2.906,0,0,1,1.709-.479,1.346,1.346,0,0,1,1.1.411,1.99,1.99,0,0,0,.137.24.437.437,0,0,1,.068.24c.137.272.182.456.137.548a7.4,7.4,0,0,1-.274.888l-2.4,5.2L165.2,25.8a2.221,2.221,0,0,0-.2,1.371.18.18,0,0,0,.2.2h.139v.068Z" transform="translate(141.192 13.323)" fill="#00a4f2"/>
      <path id="パス_4347" data-name="パス 4347" d="M166.162,27.573c.091-.274.158-.489.2-.65a.867.867,0,0,1,.2-.376,12.19,12.19,0,0,1,1.612-3.183,17.447,17.447,0,0,0,1.544-2.567,2.753,2.753,0,0,0,.207-.548,4.626,4.626,0,0,1,.2-.616c.091-.226.194-.456.308-.684a1.5,1.5,0,0,1,.447-.548.635.635,0,0,1,.34-.411,5.165,5.165,0,0,1,.548-.137h.207a1.194,1.194,0,0,1,1.23.821q.205.205.068.684a3.117,3.117,0,0,1-.411.684c-.409.639-.81,1.209-1.2,1.711a9.473,9.473,0,0,0-1.063,1.78q-.342.548-.751,1.369c-.27.548-.5,1.006-.677,1.369a1.976,1.976,0,0,0-.3.684,3.144,3.144,0,0,0-.167.753c-.044.093.023.162.2.205a1.7,1.7,0,0,0,.4.068,6.7,6.7,0,0,0,1.532-.411c.616-.228,1.278-.489,1.985-.787s1.426-.637,2.158-1.027,1.437-.787,2.12-1.2a11.5,11.5,0,0,0,1.1-.548,2.838,2.838,0,0,1,1.1-.342c.091.046.139.162.139.342v.205a1.883,1.883,0,0,1-.549.582q-.342.24-.684.513-.756.616-1.949,1.437t-2.466,1.608q-1.269.787-2.464,1.437a15.551,15.551,0,0,1-1.945.924,2.413,2.413,0,0,1-1.61.137l-.606-.205a1.85,1.85,0,0,1-1.074-1.369q-.137-.205-.068-.274t0-.274a3.765,3.765,0,0,1,.068-.821.633.633,0,0,1,.068-.274q.071-.137,0-.068m5.955-11.841a.7.7,0,0,0,.068-.308.685.685,0,0,1,.068-.308,4.8,4.8,0,0,1,.342-.958q.205-.411.413-.821a.488.488,0,0,1,.171-.205,1.766,1.766,0,0,0,.24-.205,1.8,1.8,0,0,1,1.915.411q.616.616.205,1.1a4.24,4.24,0,0,1-1.025,1.506,2.4,2.4,0,0,1-1.506.753.48.48,0,0,1-.207-.034.331.331,0,0,0-.137-.034q-.479-.137-.479-.479a1.347,1.347,0,0,0-.068-.411" transform="translate(149.606 11.553)" fill="#00a4f2"/>
      <path id="パス_4348" data-name="パス 4348" d="M184.02,21.766c-.093.276-.183.593-.274.958a3.794,3.794,0,0,1-.479,1.1c-.274.639-.557,1.255-.856,1.848s-.58,1.209-.857,1.848c-.181.5-.352.958-.51,1.369a7.3,7.3,0,0,0-.38,1.369,6.629,6.629,0,0,0-.171,1.2q-.031.65-.032,1.2a2.688,2.688,0,0,0,.717,1.848,2.661,2.661,0,0,0,1.953.342,10.937,10.937,0,0,0,3.833-1.1l1.027-.513a5.069,5.069,0,0,1,1.027-.376.881.881,0,0,1,.306.068,1.186,1.186,0,0,0,.447.068c-.5.639-.958,1.255-1.369,1.848a4.145,4.145,0,0,1-1.572,1.369,7.358,7.358,0,0,1-4.517.753,4.638,4.638,0,0,1-3.219-1.951,5.392,5.392,0,0,1-1.1-3.662,10.564,10.564,0,0,1,.479-1.951q.339-.992.616-2.088l1.5-3.285a26.317,26.317,0,0,1,1.715-3.148,4.706,4.706,0,0,0,.751-1.164c.181-.411.386-.842.616-1.3a2.224,2.224,0,0,0,0-1.711,3.866,3.866,0,0,1-.755-.068,4.216,4.216,0,0,0-.819-.068q-1.643,0-3.388.068c-1.162.046-2.34.068-3.525.068a21.029,21.029,0,0,1-2.462-.137,12.073,12.073,0,0,1-2.4-.546,2.068,2.068,0,0,1-.721-.413,6.52,6.52,0,0,0-.717-.548,3.258,3.258,0,0,1,1.335-.479,11.527,11.527,0,0,1,1.2-.067h13.9a8.8,8.8,0,0,0,1.641-2.671c.365-.591.73-1.164,1.093-1.711a15.657,15.657,0,0,0,.96-1.643.921.921,0,0,0,.205-.308.881.881,0,0,1,.207-.308,2.013,2.013,0,0,1,.958-.548,4.447,4.447,0,0,1,1.091-.137c.5,0,.823.137.962.411a6.231,6.231,0,0,0,.546.89q-1.164,1.369-2.224,2.738a24.3,24.3,0,0,0-1.951,2.943,21.492,21.492,0,0,0,4.175.137c1.323-.091,2.643-.137,3.97-.137a33.838,33.838,0,0,0,3.763.068q1.916-.066,3.7-.068c1.274.093,2.576.148,3.9.171s2.645.082,3.968.173a22.249,22.249,0,0,1-7.185,1.093q-1.916.14-3.73.274t-3.73.274q-2.053.14-4.175.205t-4.244.205h-.755a2.767,2.767,0,0,0-1.369.308A1.9,1.9,0,0,0,186.279,18a9.208,9.208,0,0,1-.823,1.435c-.317.458-.612.937-.89,1.437h-.135q-.137.274-.205.445t-.205.445" transform="translate(152.212 6.477)" fill="#00a4f2"/>
      <path id="パス_4349" data-name="パス 4349" d="M192.151,38.409a1.454,1.454,0,0,1,.068.958q-1.1,2.4-2.192,4.757t-2.259,4.757q-.818,1.3-1.745,2.532t-1.814,2.4a7.65,7.65,0,0,1-1.711,1.61,6.357,6.357,0,0,1-2.122.922,5.842,5.842,0,0,1-2.5.479,3.193,3.193,0,0,1-2.089-1.027.646.646,0,0,1-.272-.548,3.617,3.617,0,0,1-.31-2.359,19.4,19.4,0,0,1,.65-2.5q.616-1.229,1.234-2.464a6.474,6.474,0,0,1,1.574-2.053,3.511,3.511,0,0,0,.546-.684,6.5,6.5,0,0,1,.479-.684,31.262,31.262,0,0,1,3.217-4.107q1.78-1.916,3.491-3.9a16.808,16.808,0,0,1,2.156-2.055q1.2-.955,2.361-1.915a6.328,6.328,0,0,0,1.643-1.335q.684-.79,1.437-1.61.342-.616.755-1.266a2.2,2.2,0,0,0,.34-1.4,4.553,4.553,0,0,1,.582-1.576,2.1,2.1,0,0,0,.171-1.711,1.113,1.113,0,0,1-.342.171.623.623,0,0,0-.272.173q-.482.408-.96.819l-.958.821q-.684.548-1.3.958a3.6,3.6,0,0,1-1.367.548,3.689,3.689,0,0,1-2.432,0q-1.061-.411-1.335-2.188c.137-.367.276-.8.411-1.3s.251-1,.344-1.506a4.1,4.1,0,0,1,.511-1.574c.251-.411.491-.842.719-1.3a16.1,16.1,0,0,1,.89-1.437,10.255,10.255,0,0,0,.892-1.574,2.5,2.5,0,0,1,.819-1.1,3.084,3.084,0,0,1,1.165-.548,1.962,1.962,0,0,1,1.23.1q.479.242.479,1.2-1.164,1.64-2.224,3.491a26.907,26.907,0,0,0-1.814,3.831c.228.228.413.308.548.24a1.2,1.2,0,0,0,.411-.376,38.264,38.264,0,0,0,5.957-5.886c.454-.5.958-1,1.506-1.506.272.093.557.184.854.274s.652.183,1.061.274a8.7,8.7,0,0,0-.1,1.713,3,3,0,0,1-.447,1.641,16.372,16.372,0,0,0-1.367,3.73q-.413,1.817-1.027,3.8a.209.209,0,0,1,.068.137v.411a2.55,2.55,0,0,1,.683-.171c.228-.023.433-.032.616-.032a.2.2,0,0,0,.068.135.3.3,0,0,0,.034.137.32.32,0,0,1,.036.137c-.321.274-.527.458-.618.549a4.943,4.943,0,0,0-2.293,2.053,17.365,17.365,0,0,0-1.2,2.667c-.365.732-.719,1.472-1.061,2.224s-.673,1.472-.992,2.158a1.735,1.735,0,0,1-.409.511,2.4,2.4,0,0,0-.479.582,2.319,2.319,0,0,0,.24-.479,1.227,1.227,0,0,1,.1-.274,1.227,1.227,0,0,0-.1.274.522.522,0,0,1-.24.274m.2-4.723a2.114,2.114,0,0,0-1.2.344,6.411,6.411,0,0,0-.991.819,6.451,6.451,0,0,0-1.234.958c-.365.367-.751.73-1.164,1.1q-.548.55-1.232,1.129c-.456.388-.888.764-1.3,1.129-.546.548-1.082,1.139-1.608,1.78a10.1,10.1,0,0,0-1.335,2.124,21.694,21.694,0,0,1-1.437,2.667,24.576,24.576,0,0,0-1.437,2.6,8.5,8.5,0,0,0-.958,2.053c-.228.73-.432,1.415-.616,2.053a1.4,1.4,0,0,0,.376,1.405,1.235,1.235,0,0,0,1.337-.036,10.688,10.688,0,0,0,1.162-.856,6.3,6.3,0,0,0,1.027-1.061q1.166-1.3,2.19-2.5a11.306,11.306,0,0,0,1.78-2.979,1.635,1.635,0,0,1,.342-.753c.183-.228.367-.479.549-.753a12.446,12.446,0,0,1,1.162-1.607,5.789,5.789,0,0,0,.96-1.542q.616-1.369,1.333-2.669t1.335-2.6q.342-.55.684-1.234a2.949,2.949,0,0,0,.274-1.574" transform="translate(157.838 13.105)" fill="#00a4f2"/>
      <path id="パス_4350" data-name="パス 4350" d="M60.752,40.421a3.406,3.406,0,0,1-.413,1.78.194.194,0,0,1-.067.137v.068q-.482.89-.753,1.4a7.027,7.027,0,0,1-.582.926,10.488,10.488,0,0,1-.684.819c-.251.276-.606.618-1.061,1.027q-.619.619-1.2,1.266a10.492,10.492,0,0,1-1.266,1.2q-.684.616-1.369,1.2c-.458.388-.937.762-1.437,1.129a2.571,2.571,0,0,1-.274.24c-.093.068-.205.148-.344.24a9.457,9.457,0,0,0-1.093.991,6.173,6.173,0,0,1-1.1.926c-.411.274-.823.548-1.232.821a7.74,7.74,0,0,0-1.165.958,2.044,2.044,0,0,0-.479.548c-.181.183-.16.319.07.411a2.952,2.952,0,0,0,.616.342,1.072,1.072,0,0,0,.479.171,2.745,2.745,0,0,1,.479.1c.591.184,1.175.356,1.745.515s1.175.308,1.814.445a14.365,14.365,0,0,1,2.772,1.061,16.057,16.057,0,0,1,2.5,1.607,9.43,9.43,0,0,1,2.259,2.192,9.011,9.011,0,0,1,1.916,3.7,5.587,5.587,0,0,1,.068,2.875,3.645,3.645,0,0,0-.205.751,3.616,3.616,0,0,1-.205.755,14.15,14.15,0,0,1-1.027,2.257q-.756,1.1-1.506,2.124a22.954,22.954,0,0,1-1.643,1.985,3.466,3.466,0,0,1-.479.513,2.418,2.418,0,0,0-.479.582c-.139.137-.274.285-.411.445s-.274.308-.411.443q-.616.55-1.266,1.165t-1.335,1.164c-.5.5-1,.97-1.506,1.4a14.885,14.885,0,0,1-1.713,1.266c-.319.232-.614.458-.888.686s-.548.454-.821.684q-1.235.958-2.5,1.814T41.93,89.154q-1.164.753-2.43,1.4t-2.567,1.266a22.561,22.561,0,0,1-2.979,1.164q-1.54.479-3.112.821a1.411,1.411,0,0,1-.447.067,2.206,2.206,0,0,0-.511.068c-.365.048-.73.08-1.1.1s-.73.055-1.1.1a13.6,13.6,0,0,1-7.187-1.027,6.1,6.1,0,0,1-1.3-.821,5.332,5.332,0,0,0-.548-.479c-.183-.137-.39-.274-.618-.413a2.4,2.4,0,0,1-.614-.819,3.487,3.487,0,0,0-.344-.65,3.715,3.715,0,0,1-.34-.65,4.242,4.242,0,0,1-.342-1.643,4.636,4.636,0,0,1,.034-.616,2.483,2.483,0,0,1,.171-.618c.228-.456.445-.9.65-1.335s.42-.876.65-1.333a6.19,6.19,0,0,1,.548-.821q.958-1.3,1.88-2.567t1.884-2.569a.93.93,0,0,0,.171-.2.363.363,0,0,1,.169-.137q.619-.753.994-1.2t.65-.821a5.76,5.76,0,0,0,.479-.787q.205-.411.479-1.027.75-1.643,1.335-3.32t1.266-3.388c.091-.228.171-.447.24-.65a3.208,3.208,0,0,1,.308-.65,15.6,15.6,0,0,0,1.1-2.637q.408-1.332.89-2.7.411-1.3.888-2.567t.958-2.569c.091-.226.183-.454.276-.683a4.6,4.6,0,0,1,.342-.684,25.574,25.574,0,0,0,.958-2.5q.411-1.266.753-2.567a14.015,14.015,0,0,0,.443-1.437,3.376,3.376,0,0,0,.036-1.437c0-.276-.116-.365-.342-.276a.539.539,0,0,1-.24.068.55.55,0,0,0-.24.07,13.042,13.042,0,0,0-2.19,1.985q-1.027,1.1-2.053,2.154T27.9,52.057a7.7,7.7,0,0,1-.755.785q-.408.379-.751.721a1.866,1.866,0,0,1-1.129.411,1.491,1.491,0,0,1-.992-.344,1.247,1.247,0,0,1-.308-.511A.726.726,0,0,1,24,52.536c.226-.413.445-.81.65-1.2s.422-.785.65-1.2c.091-.181.192-.363.308-.548a2.813,2.813,0,0,1,.376-.479q1.1-1.366,2.259-2.633a22.665,22.665,0,0,1,2.532-2.363,3.538,3.538,0,0,1,.445-.375,1.966,1.966,0,0,0,.443-.445,26.349,26.349,0,0,1,5.82-4.312,33.383,33.383,0,0,1,6.708-2.738q.89-.274,1.711-.479a11.643,11.643,0,0,1,2.122-.411h.616a1.635,1.635,0,0,0,.614-.137,6.453,6.453,0,0,1,1.85-.139,11.991,11.991,0,0,0,1.848,0h.274a22.174,22.174,0,0,1,4.244,1.3q.271.137.513.274c.158.091.331.183.513.274a6.276,6.276,0,0,1,1.846,1.985.6.6,0,0,1,.173.308,3.048,3.048,0,0,0,.1.375,6.9,6.9,0,0,1,.137.823M25.914,92.713h.616a4.849,4.849,0,0,0,.753-.068,6.347,6.347,0,0,1,.719-.1c.249-.025.489-.034.719-.034a5.208,5.208,0,0,0,1.369-.171,9.162,9.162,0,0,0,1.232-.447c.5-.228.992-.443,1.472-.648s.97-.4,1.472-.582c.548-.184,1.061-.376,1.54-.582s.97-.422,1.472-.652a11.946,11.946,0,0,0,1.4-.751c.432-.276.878-.572,1.335-.89a.274.274,0,0,1,.2-.068c.6-.411,1.074-.732,1.439-.958s.705-.456,1.027-.684.66-.491,1.025-.787.867-.694,1.506-1.2A38.708,38.708,0,0,0,49.6,79.843c.454-.5.89-.968,1.3-1.4s.821-.9,1.232-1.4a8.178,8.178,0,0,0,1.162-1.506q.55-.89,1.131-1.781c.386-.591.787-1.184,1.2-1.778a8.791,8.791,0,0,0,.89-1.713,11.674,11.674,0,0,0,.548-1.915,3.2,3.2,0,0,1,.032-.479,2.947,2.947,0,0,0,.036-.479,1.411,1.411,0,0,0,.034-.513,3.16,3.16,0,0,1-.034-.445,4.991,4.991,0,0,0-1.1-2.74c-.184-.226-.342-.42-.479-.58s-.3-.354-.479-.582a2.516,2.516,0,0,0-.89-.753,20.681,20.681,0,0,0-2.088-1.1,12.344,12.344,0,0,0-2.224-.751q-1.437-.342-2.875-.616c-.958-.183-1.941-.342-2.943-.479a5.315,5.315,0,0,1-.584-.034,2.105,2.105,0,0,0-.648.034,3.164,3.164,0,0,0-1.645.409,2.743,2.743,0,0,0-.614.344c-.184.135-.388.274-.616.411a25.485,25.485,0,0,1-3.559,1.709,1.6,1.6,0,0,1-1.027.07.317.317,0,0,1-.207-.342.627.627,0,0,1,.139-.686,2.6,2.6,0,0,1,.548-.819,24.017,24.017,0,0,0,2.806-2.875,2.3,2.3,0,0,1,.958-.616q.616-.205,1.2-.376a6.8,6.8,0,0,0,1.129-.447,3.809,3.809,0,0,0,2.19-1.506,10.533,10.533,0,0,1,1.3-1.23,21.716,21.716,0,0,0,3.148-2.74,15.5,15.5,0,0,1,1.4-1.367,15.767,15.767,0,0,0,1.4-1.369l1.232-1.232A5.972,5.972,0,0,0,53.634,44.8a2.922,2.922,0,0,1,.443-.582l.515-.513A16.241,16.241,0,0,0,55.755,42a9,9,0,0,0,.821-1.643,1.839,1.839,0,0,0,.171-.479c.021-.137.057-.319.1-.548a1.757,1.757,0,0,0-.272-1.1c-.184-.183-.342-.342-.479-.479a1.827,1.827,0,0,0-.479-.342,1.117,1.117,0,0,0-.479-.137c-.5-.091-.992-.171-1.472-.24A6.429,6.429,0,0,0,52.2,37q-1.643.14-3.285.413a13.687,13.687,0,0,0-3.217.958,1.235,1.235,0,0,1-.342.1.607.607,0,0,0-.342.171c-.641.228-1.243.468-1.814.717s-1.154.538-1.745.857c-.137.093-.287.194-.447.308a3.152,3.152,0,0,0-.375.308,4.324,4.324,0,0,0-.308.342.52.52,0,0,0-.1.479,3.439,3.439,0,0,1-.135,1.915,33.514,33.514,0,0,1-1.232,3.766Q37.82,50,36.865,52.671t-1.916,5.272a9.663,9.663,0,0,0-.479,1.985,2.048,2.048,0,0,1-.616,1.506,8.079,8.079,0,0,0-.89,1.538q-.342.79-.684,1.542-.55,1.506-1.129,3.012t-1.2,3.012a11.5,11.5,0,0,0-.616,2.053c-.048.091-.011.217.1.376s.217.217.308.171c.639-.091,1.287-.16,1.951-.205a14.1,14.1,0,0,0,1.949-.274,11.68,11.68,0,0,1,1.234-.205,5.562,5.562,0,0,1,1.232,0,1,1,0,0,1,.376.068.991.991,0,0,0,.376.068.374.374,0,0,1,.171.308.418.418,0,0,1-.1.375,1.436,1.436,0,0,1-.342.276,4.512,4.512,0,0,1-1.1.137,9.177,9.177,0,0,0-1.1.067c-.5.048-1,.082-1.506.1a11.236,11.236,0,0,0-1.506.171,4.447,4.447,0,0,0-2.6,1.3,2.783,2.783,0,0,0-.24.276,2.572,2.572,0,0,1-.24.274,3.162,3.162,0,0,0-1.232,1.574,2.752,2.752,0,0,1-.342.616,2.609,2.609,0,0,0-.342.616,2.512,2.512,0,0,1-1.437.958,3.82,3.82,0,0,0-2.19,1.506c-.183.228-.367.443-.548.65s-.388.42-.618.65q-.75,1.027-1.367,1.985a7.445,7.445,0,0,0-.65,1.369c-.16.456-.308.934-.445,1.437v.479A4.4,4.4,0,0,0,20.3,90.863a9.453,9.453,0,0,0,1.266.96,3.975,3.975,0,0,0,1.538.546,9.686,9.686,0,0,0,1.371.173,10.913,10.913,0,0,1,1.437.171" transform="translate(14.78 31.601)" fill="#00a4f2"/>
      <path id="パス_4351" data-name="パス 4351" d="M54.064,61.393a5.375,5.375,0,0,1-1.711-.274,1.8,1.8,0,0,1-.274-.171,1.9,1.9,0,0,0-.274-.171,1.982,1.982,0,0,1-.548-1.437,3.631,3.631,0,0,1,.205-.753,1,1,0,0,0,.068-.616.244.244,0,0,0-.274-.274.2.2,0,0,1-.137.068.2.2,0,0,0-.137.068,4.22,4.22,0,0,1-.958,1.027q-.342.274-.616.479a7.213,7.213,0,0,1-.616.411,8.224,8.224,0,0,0-.65.58,2.7,2.7,0,0,1-.719.515,4.82,4.82,0,0,1-3.559.958,2.071,2.071,0,0,1-1.232-.548,4.04,4.04,0,0,0-.479-.616.877.877,0,0,1-.068-1.164q.205-.479.376-.96a3.014,3.014,0,0,0,.171-1.027,1.644,1.644,0,0,1,.411-.819,8.527,8.527,0,0,1,.684-.958,6.97,6.97,0,0,1,.821-.821q.339-.342.684-.719t.684-.721a2.541,2.541,0,0,1,.479-.479,3.019,3.019,0,0,0,.548-.546,4.406,4.406,0,0,0,.582-.548c.16-.183.329-.365.513-.548a5.558,5.558,0,0,1,2.19-1.506L52.079,49a1.109,1.109,0,0,1,.479-.169,4.618,4.618,0,0,0,.548-.1,1.014,1.014,0,0,1,.89,0h.137a2.863,2.863,0,0,0,.924.272l.992.139a1.362,1.362,0,0,1,.924.513,1.013,1.013,0,0,1,.1.854,4.279,4.279,0,0,1-.479,1.918,10.97,10.97,0,0,1-.479,1.093,5.406,5.406,0,0,0-.411,1.1c-.091.228-.183.445-.274.648s-.183.424-.274.652c-.137.367-.274.73-.411,1.093s-.251.709-.342,1.027v.479c0,.048.044.1.137.173a.467.467,0,0,0,.274.1,1.78,1.78,0,0,0,.548-.068c.365-.137.74-.3,1.129-.479s.764-.365,1.129-.548q.821-.548,1.711-1.129c.593-.388,1.164-.762,1.711-1.129a16.9,16.9,0,0,1,2.327-1.027,1.517,1.517,0,0,1,.479-.068.407.407,0,0,1,.274.135.4.4,0,0,1,.137.276l-.411.616-.821.821q-.411.411-.821.753a17.948,17.948,0,0,0-1.78,1.3q-.821.684-1.711,1.3a10.746,10.746,0,0,1-1.027.652q-.548.308-1.1.65a5.335,5.335,0,0,1-2.532.548M54,50.784c0-.276-.116-.411-.342-.411a1.1,1.1,0,0,1-.479.135.739.739,0,0,0-.411.139,3.691,3.691,0,0,0-.958.376,6.051,6.051,0,0,0-.821.582,10.281,10.281,0,0,0-1.1.958c-.367.365-.73.73-1.1,1.1q-.821.961-1.574,2.019t-1.506,2.088v.272c-.046.093-.059.15-.034.173a.143.143,0,0,1,.034.1h.479A1.609,1.609,0,0,1,46.6,58a1.609,1.609,0,0,0,.411-.308q.89-.753,1.78-1.54c.591-.525,1.164-1.038,1.711-1.54l1.472-1.337q.719-.647,1.4-1.335a4.367,4.367,0,0,0,.342-.375A2.105,2.105,0,0,0,54,51.058c.044-.091.057-.148.034-.171a.139.139,0,0,1-.034-.1" transform="translate(37.758 43.825)" fill="#00a4f2"/>
      <path id="パス_4352" data-name="パス 4352" d="M61.2,57.182a7.092,7.092,0,0,0-1.164.1,6.473,6.473,0,0,1-1.027.1,3.712,3.712,0,0,1-1.027-.137,5.948,5.948,0,0,1-1.027-.411,3.032,3.032,0,0,1-1.713-2.293,5.025,5.025,0,0,1,.616-3.046A4.374,4.374,0,0,1,57.3,50.167a14.014,14.014,0,0,1,4.622-1.848,7.483,7.483,0,0,1,2.017-.171,1.055,1.055,0,0,1,.958.616.636.636,0,0,1-.068.65.613.613,0,0,1-.479.24,7.784,7.784,0,0,0-1.538.376A13.88,13.88,0,0,0,61,50.783a13.24,13.24,0,0,0-1.677.992,5.142,5.142,0,0,0-1.2,1.1,1.522,1.522,0,0,0-.276,1.1,1.022,1.022,0,0,0,.411.821h2.4a6.344,6.344,0,0,1,2.359.548,3.428,3.428,0,0,1,1.814,1.437,2.725,2.725,0,0,1,0,2.088,10.493,10.493,0,0,1-1.333,2.532,21.991,21.991,0,0,1-2.158,2.635,19.886,19.886,0,0,1-2.565,2.293,21.4,21.4,0,0,1-2.532,1.643,4.4,4.4,0,0,1-1.953.65,2.912,2.912,0,0,1-1.1-.171c-.272-.114-.363-.262-.272-.445q1.574-1.092,2.7-1.814a17.005,17.005,0,0,0,2.5-2.019c.318-.365.81-.933,1.47-1.713A18.79,18.79,0,0,0,61.3,60.126a6.315,6.315,0,0,0,.888-2.053q.171-.89-.991-.89" transform="translate(47.662 43.379)" fill="#00a4f2"/>
      <path id="パス_4353" data-name="パス 4353" d="M64.882,62.534a3.182,3.182,0,0,1-1.23-.2c-.093-.046-.184-.091-.276-.139a2.232,2.232,0,0,0-.409-.137.8.8,0,0,1-.205-.135.8.8,0,0,0-.205-.139c-.228-.228-.447-.432-.65-.616a2.224,2.224,0,0,1-.513-.684,1.6,1.6,0,0,1,0-1.3,10.215,10.215,0,0,1,.342-1.1c.135-.363.274-.751.411-1.164q.068-.2.171-.479a2.347,2.347,0,0,1,.24-.479,5.78,5.78,0,0,0,.548-1.506,1.771,1.771,0,0,1,.548-1.093,4.359,4.359,0,0,1,1.3-1.713q.411-.411.787-.819a7.72,7.72,0,0,1,.787-.755,5.314,5.314,0,0,0,.479-.272c.274-.091.536-.173.787-.24s.559-.148.924-.24a.655.655,0,0,1,.308-.068h.306a1.266,1.266,0,0,1,.755.34,9.686,9.686,0,0,1,.958.958,5,5,0,0,1,.479.958,1.188,1.188,0,0,1-.139,1.1,7.83,7.83,0,0,1-.958,1.061c-.365.342-.728.673-1.1.992q-.682.55-1.367,1.129t-1.437,1.129a1.514,1.514,0,0,1-1.1.274.983.983,0,0,0-.411.068,1.414,1.414,0,0,0-.548.411,2.111,2.111,0,0,0-.274.821,3.012,3.012,0,0,0-.205,1.711,1.659,1.659,0,0,1,.205.24.977.977,0,0,0,.274.24,2.031,2.031,0,0,0,.888.068,6.138,6.138,0,0,0,1.645-.479,13.954,13.954,0,0,0,1.745-.753c.523-.274,1.061-.57,1.607-.89.6-.363,1.175-.719,1.745-1.059s1.154-.7,1.747-1.063a2.157,2.157,0,0,1,.614-.135.369.369,0,0,1,.447.032c.16.116.215.219.171.308a3.228,3.228,0,0,1-1.027,1.711,11.26,11.26,0,0,0-1.472.96c-.481.365-.924.728-1.335,1.093-.365.23-.743.47-1.131.719a4.829,4.829,0,0,1-1.266.582c-.319.139-.648.264-.991.378a3.387,3.387,0,0,1-1.061.171,7.264,7.264,0,0,1-.96.2,3.371,3.371,0,0,1-.958,0M69.2,51.994a.367.367,0,0,1-.137-.24c0-.068-.025-.1-.068-.1H68.58a1.481,1.481,0,0,1-.274.342q-.684.684-1.335,1.437a7.122,7.122,0,0,0-1.063,1.643c0,.184.023.276.07.276h.205c.226-.228.454-.447.683-.652s.458-.422.686-.65a3.135,3.135,0,0,0,.89-.821q.342-.479.616-.956a.4.4,0,0,0,.137-.276" transform="translate(55.206 44.393)" fill="#00a4f2"/>
      <path id="パス_4354" data-name="パス 4354" d="M68.419,71.235a1.5,1.5,0,0,0,.068-.479,14.072,14.072,0,0,1,.582-2.122,20.527,20.527,0,0,1,1.165-2.7,21.771,21.771,0,0,1,1.641-2.7A10.426,10.426,0,0,1,73.826,61.1a8.631,8.631,0,0,1,1.848-1.093c.228-.046.432-.08.616-.1a2.059,2.059,0,0,1,.616.036,5.3,5.3,0,0,1,2.124.479c.318.091.5.2.546.342a4.541,4.541,0,0,0,.821-1.232q.548-1.027,1.232-2.532t1.472-3.32q.787-1.814,1.574-3.6t1.472-3.352A26.787,26.787,0,0,1,87.378,44.2a7.961,7.961,0,0,1,.376-.821c.205-.413.411-.867.616-1.371s.388-.958.548-1.367a2.986,2.986,0,0,0,.24-.821c.091-.319.181-.616.274-.892a2.564,2.564,0,0,0,.137-.819.293.293,0,0,1,.034-.139c.023-.044.011-.112-.034-.2a.375.375,0,0,1,.24-.137c.068,0,.125-.046.171-.139a6.322,6.322,0,0,0,.992-.068,2.591,2.591,0,0,1,.992.068.6.6,0,0,1,.411.207.588.588,0,0,1,.205.411c-.091.046-.137.183-.137.409-.228.548-.433,1.063-.616,1.542a6.35,6.35,0,0,1-.821,1.47c-.093.23-.205.492-.342.787s-.251.538-.342.719a17.082,17.082,0,0,0-1.574,3.39,17.016,17.016,0,0,1-1.574,3.388q-.342.753-.719,1.538t-.719,1.542l-.821,1.641a2.64,2.64,0,0,1-.24.755,2.652,2.652,0,0,0-.24.751c-.093.137-.253.424-.479.856a6.868,6.868,0,0,0-.409.857q-.55,1.164-1.1,2.43t-1.164,2.5q-1.232,2.33-2.327,4.656a5.651,5.651,0,0,0-.548,1.127q-.205.585-.411,1.131c-.091.091-.091.274,0,.546a.182.182,0,0,0,.205.207.339.339,0,0,0,.171-.068.339.339,0,0,1,.171-.07c.089-.044.194-.1.308-.169s.217-.125.308-.171l.719-.719.719-.719c.456-.367.9-.741,1.335-1.129s.9-.787,1.4-1.2c.137-.135.274-.26.411-.375a1.192,1.192,0,0,1,.548-.24q.342-.342.548,0a.39.39,0,0,1,.068.274,1.289,1.289,0,0,0-.068.409.792.792,0,0,1-.068.344,3.693,3.693,0,0,0-.582.753,6.224,6.224,0,0,1-.582.821.592.592,0,0,1-.274.479c-.272.319-.525.639-.753.958s-.479.639-.753.958a6.662,6.662,0,0,1-1.369,1.709,9.661,9.661,0,0,1-2.327,1.234,1.706,1.706,0,0,1-1.232-.139,2.138,2.138,0,0,1-.958-.548c-.183-.135-.365-.272-.548-.409s-.342-.251-.479-.342a.684.684,0,0,0-.821,0q-.411.2-.787.411c-.251.137-.513.272-.787.411a2.285,2.285,0,0,1-1.025.477,1.969,1.969,0,0,1-1.987-.272,1.061,1.061,0,0,1-.274-.205l-.272-.274a1.048,1.048,0,0,1-.481-.753,2.277,2.277,0,0,0-.068-.549m8.829-8.759a1.359,1.359,0,0,0-.068-.413c0-.181-.16-.272-.479-.272a.845.845,0,0,0-.479.205A9.757,9.757,0,0,0,74.955,63.5q-.856,1.164-1.677,2.532a27.073,27.073,0,0,0-1.4,2.635,3.9,3.9,0,0,0-.513,1.745c-.046,0-.068.011-.068.032s.023.036.068.036v.2a.39.39,0,0,0,.274.068,1.716,1.716,0,0,0,.958-.548,7.134,7.134,0,0,0,1.882-1.538q.719-.856,1.677-1.814a3.093,3.093,0,0,0,.479-.755,7.027,7.027,0,0,1,.171-.683c.068-.228.125-.456.171-.686a1.618,1.618,0,0,0,.274-1.027v-1.23Z" transform="translate(61.661 33.707)" fill="#00a4f2"/>
      <path id="パス_4355" data-name="パス 4355" d="M111.611,61.676c.683-.044,1.321-.068,1.916-.068s1.186-.023,1.778-.067a1.015,1.015,0,0,1,.378.067c.112.046.215.093.308.137a.282.282,0,0,1,.308.276.466.466,0,0,1-.1.409,1.314,1.314,0,0,1-.684.618,7.472,7.472,0,0,1-1.713.683,8.2,8.2,0,0,1-1.162.205,9.013,9.013,0,0,0-1.164.205q-3.08.619-6.23,1.437a2.347,2.347,0,0,0-.888.616,2.957,2.957,0,0,0-.342.616q-1.1,1.916-2.089,3.8t-1.949,3.867a5.15,5.15,0,0,0-.479,1.3,4.805,4.805,0,0,1-.344.684,4.873,4.873,0,0,0-.34.684A16.818,16.818,0,0,0,97.751,79.4c-.3.776-.6,1.553-.924,2.327a.986.986,0,0,0-.139.892.867.867,0,0,0,.276.375.315.315,0,0,0,.411.034c.5-.228,1-.432,1.506-.616s1-.386,1.506-.616c.776-.318,1.538-.639,2.293-.958s1.517-.616,2.293-.89a.55.55,0,0,0,.411-.137,23.432,23.432,0,0,1,2.909-1.027q1.472-.411,2.975-.753a1.476,1.476,0,0,1,.447-.068.772.772,0,0,0,.445-.137,8.778,8.778,0,0,1,2.428-.479c.846-.044,1.677-.091,2.5-.137a.885.885,0,0,1,.683,0c.5.046.97.082,1.4.1a11.217,11.217,0,0,1,1.4.169,5.2,5.2,0,0,1,.958.205c.272.093.57.205.888.342a.351.351,0,0,0,.139.171.394.394,0,0,1,.137.171.682.682,0,0,1-.344,1.1,2.15,2.15,0,0,0-.34.034.525.525,0,0,1-.342-.034,6.664,6.664,0,0,0-1.164-.034q-.616.034-1.165.034a21.143,21.143,0,0,0-4.721.548,43.056,43.056,0,0,0-5.612,1.645,34.827,34.827,0,0,0-4.964,1.846q-2.361,1.1-4.687,2.4c-.5.276-.992.57-1.473.89s-.97.616-1.47.892a6.907,6.907,0,0,1-.686.479,5.584,5.584,0,0,0-.683.479q-.411.339-.753.683a2.423,2.423,0,0,0-.548.892q-.274.476-.479.922a6.606,6.606,0,0,1-.479.856.46.46,0,0,1-.411.207.451.451,0,0,1-.479,0,4.368,4.368,0,0,0-.548.032,2.509,2.509,0,0,0-.616.171c-.367.137-.73.276-1.1.411a11.373,11.373,0,0,0-1.093.479,1.661,1.661,0,0,1-1.3-.135,1.555,1.555,0,0,1-1.1-1.576.473.473,0,0,1,.207-.616q.548-.479,1.027-.924t1.027-.922q.821-.687,1.538-1.405l1.473-1.472a2.912,2.912,0,0,0,.511-.65,3.091,3.091,0,0,1,.515-.65,2.153,2.153,0,0,0,.548-1.164,7.853,7.853,0,0,1,.375-1.3q.24-.613.515-1.232.342-.753.65-1.472c.205-.477.4-.947.58-1.4q.413-.958.721-1.848a9.586,9.586,0,0,1,.787-1.711c.089-.183.181-.352.274-.511a2,2,0,0,0,.205-.515c.181-.454.354-.89.513-1.3a10.117,10.117,0,0,1,.58-1.232,3.549,3.549,0,0,0,.618-1.709,5.747,5.747,0,0,1,.137-1.1.335.335,0,0,0-.171-.409.536.536,0,0,0-.445-.068,5.156,5.156,0,0,1-.618.2c-.181.046-.365.093-.548.137a2.788,2.788,0,0,1-.958.207.939.939,0,0,1-.548.1,4.681,4.681,0,0,1-.548-.1,1.437,1.437,0,0,1-1.3-.892.346.346,0,0,1-.139-.411,1.915,1.915,0,0,1,.823-1.3q.476-.271.922-.513t.926-.443q.75-.345,1.506-.686a6.34,6.34,0,0,1,1.574-.479,5.582,5.582,0,0,0,.751-.205c.276-.091.548-.181.823-.274a2.675,2.675,0,0,0,1.369-1.164c.181-.274.34-.534.479-.787s.3-.513.479-.787q.684-1.232,1.3-2.43t1.3-2.361q.137-.137.137-.205c.363-.593.705-1.184,1.027-1.78s.662-1.186,1.027-1.78c.363-.637.719-1.232,1.061-1.78s.694-1.139,1.059-1.78c.183-.318.356-.65.515-.992a3.5,3.5,0,0,0,.308-1.059c.091-.183.023-.276-.205-.276a1.568,1.568,0,0,0-.857-.032c-.251.068-.511.148-.787.24q-.958.342-1.88.717a9.81,9.81,0,0,0-1.745.924q-.89.482-1.745.924c-.572.3-1.152.627-1.745.994a26.7,26.7,0,0,0-4.072,2.8,20.675,20.675,0,0,0-3.39,3.628c0,.091-.032.15-.1.171a.307.307,0,0,0-.171.171.849.849,0,0,1-.616.276,1.522,1.522,0,0,1-1.645-.686,3.979,3.979,0,0,1-.479-.787,7.487,7.487,0,0,0-.411-.787,1.457,1.457,0,0,1,.139-1.506l.272-.411a2.035,2.035,0,0,1,.276-.34c.73-.778,1.47-1.506,2.224-2.192a15.64,15.64,0,0,1,2.5-1.846q.818-.479,1.641-.892t1.645-.89c.228-.091.445-.183.65-.272a3.186,3.186,0,0,1,.648-.207,8.42,8.42,0,0,0,1.165-.342,7.161,7.161,0,0,0,1.027-.479,13.235,13.235,0,0,1,1.335-.582c.432-.158.878-.331,1.335-.513q1.5-.548,2.943-1.059t3.012-1.063a.565.565,0,0,1,.2-.068.522.522,0,0,0,.207-.068,2.964,2.964,0,0,0,1.164-.753q.339-.479.719-.924c.251-.295.491-.582.719-.856a.918.918,0,0,1,.819-.411,4.249,4.249,0,0,1,3.082.616,1.577,1.577,0,0,0,1.164.207c.548-.091,1.082-.207,1.608-.344s1.061-.249,1.607-.342c.867-.228,1.724-.432,2.569-.616s1.677-.342,2.5-.479c.458-.091.9-.183,1.335-.272s.857-.183,1.268-.276q1.506-.339,2.977-.616t2.975-.614q1.78-.414,3.6-.789t3.593-.717q1.78-.345,3.591-.618t3.6-.616a1.775,1.775,0,0,1,1.709.548.728.728,0,0,1,.276.719.686.686,0,0,1-.411.582,2.819,2.819,0,0,0-.584.173,3.36,3.36,0,0,1-.511.169q-1.506.345-3.012.65t-3.012.65q-1.235.277-2.43.515t-2.43.58q-1.027.205-2.053.447c-.684.16-1.371.283-2.053.375-.548.093-1.1.194-1.643.308s-1.074.24-1.574.376a27.984,27.984,0,0,1-3.32.89q-1.677.345-3.39.684l-3.283.686q-1.643.342-3.354.819A12.261,12.261,0,0,0,119,43.06c-.411.137-.821.276-1.234.411a2.1,2.1,0,0,0-.58.342,2.985,2.985,0,0,0-.445.479,6.318,6.318,0,0,0-.548.821q-.756,1.1-1.4,2.156t-1.4,2.224a2.91,2.91,0,0,0-.342.616q-.821,1.506-1.677,2.977T109.626,56q-.619,1.092-1.2,2.188c-.39.732-.741,1.483-1.061,2.261a1.3,1.3,0,0,0-.205.683c-.093.093-.082.217.034.376a.471.471,0,0,0,.376.24,3.732,3.732,0,0,0,.89.137,8.49,8.49,0,0,0,1.1-.068,9.178,9.178,0,0,1,1.1-.068,4.806,4.806,0,0,0,.548-.032,3.666,3.666,0,0,1,.411-.036" transform="translate(77.605 30.193)" fill="#00a4f2"/>
      <path id="パス_4356" data-name="パス 4356" d="M116.3,56.317a31.685,31.685,0,0,1,3.148-1.916,3.264,3.264,0,0,1,.65-.308c.205-.068.422-.146.65-.24q.274-.274.274,0c.137.137.137.253,0,.342a.525.525,0,0,1-.068.205,4.919,4.919,0,0,1-.308.411c-.114.137-.24.276-.376.411-.137.093-.274.194-.411.308s-.272.24-.411.376q-.205.342-.513.755a3.058,3.058,0,0,1-.582.614,4.3,4.3,0,0,0-1.061.823,5.037,5.037,0,0,1-.992.819l-.821.686-2.19,1.435a6.662,6.662,0,0,1-3.491.821h-.958a2.212,2.212,0,0,1-1.232-.548,3.732,3.732,0,0,1-.513-.614c-.112-.183-.24-.388-.376-.618a.2.2,0,0,1-.068-.137.194.194,0,0,1-.068-.137,3.519,3.519,0,0,0,.173-.821,6.826,6.826,0,0,1,.1-.753,6.526,6.526,0,0,0,.137-1.78.959.959,0,0,1,.068-.411,6.364,6.364,0,0,0,.958-1.232,13.865,13.865,0,0,0,.753-1.437,1.844,1.844,0,0,1,.342-.787,5.648,5.648,0,0,0,.479-.787,2.471,2.471,0,0,1,.308-.479,4.916,4.916,0,0,0,.308-.411,1.633,1.633,0,0,0,.548-.34,4.075,4.075,0,0,1,.479-.411,5.334,5.334,0,0,1,1.164-.548,1.439,1.439,0,0,1,1.232,0,.8.8,0,0,1,.376.34,3.652,3.652,0,0,0,.24.411l1.027,1.713c-.091.044-.3.148-.616.308a3.069,3.069,0,0,1-1.78-.036l-.137.137a13.564,13.564,0,0,0-1.437,1.848q-.616.961-1.164,1.985c-.183.456-.342.892-.479,1.3a6.056,6.056,0,0,0-.274,1.23c-.093.23-.068.388.068.479a.747.747,0,0,0,.479.276,2.206,2.206,0,0,0,.684-.139c.413-.181.821-.363,1.232-.548s.844-.386,1.3-.616c.319-.226.652-.443.992-.65s.694-.422,1.061-.65l.958-.684v.068Z" transform="translate(96.052 44.587)" fill="#00a4f2"/>
      <path id="パス_4357" data-name="パス 4357" d="M125.167,52.262a2.037,2.037,0,0,1-.07.479c0,.365.207.548.618.548h.684a6.263,6.263,0,0,1,1.47-.139,6.222,6.222,0,0,0,1.473-.137h.958a.4.4,0,0,1,.135.276c.183.272.16.479-.067.614-.048.137-.1.217-.173.241a.691.691,0,0,0-.24.171c-.183.181-.319.272-.411.272a13.527,13.527,0,0,1-1.745.342,11.348,11.348,0,0,0-1.677.344,5.266,5.266,0,0,1-2.122.479,1.956,1.956,0,0,0-.24.137,2.242,2.242,0,0,1-.24.135.691.691,0,0,0-.171.24.435.435,0,0,1-.1.171,2.262,2.262,0,0,0-.276.445.846.846,0,0,1-.2.308,9.529,9.529,0,0,1-2.156,2.875q-1.4,1.3-2.569,2.192a2.717,2.717,0,0,1-1.367.548H116.2a1.07,1.07,0,0,1-.479-.139,2.305,2.305,0,0,1-1.234-.684,3.132,3.132,0,0,1-.616-1.23.544.544,0,0,1-.067-.207,1.586,1.586,0,0,1,.067-1.027,1.309,1.309,0,0,1,.173-.342.561.561,0,0,0,.1-.34,4.509,4.509,0,0,0,.34-.823c.184-.639.356-1.162.515-1.574s.375-.934.65-1.572c.137-.319.272-.639.409-.96s.3-.637.479-.958a9.33,9.33,0,0,1,.582-.89c.205-.272.422-.548.652-.819.226-.367.432-.707.614-1.027s.388-.662.616-1.027a1.042,1.042,0,0,1,.755-.479,1.011,1.011,0,0,1,.751-.276q.753-.137,1.713-.272a1.681,1.681,0,0,1,1.506.409.585.585,0,0,0,.272.171.638.638,0,0,1,.276.171c.135.23.251.435.34.616s.207.388.342.616a4.619,4.619,0,0,1,.207.65,1.976,1.976,0,0,1,0,.719Zm-3.97,2.873a.548.548,0,0,0-.068-.34,4.31,4.31,0,0,1-.549-.823c-.137-.272-.272-.548-.409-.821a.774.774,0,0,0-.342-.272.539.539,0,0,0-.344-.068.562.562,0,0,0-.34.2,11.341,11.341,0,0,0-.686,1.1,19.291,19.291,0,0,0-1.162,2.464c-.276.732-.548,1.6-.823,2.6v.207a.371.371,0,0,0-.032.272.159.159,0,0,0,.171.139c.137.089.249.089.34,0a5.686,5.686,0,0,0,2.464-1.85,22.071,22.071,0,0,0,1.713-2.464.782.782,0,0,0,.068-.342m2.188-4.723a.4.4,0,0,0-.135-.274c-.184,0-.276.025-.276.07a3.069,3.069,0,0,0-1.162,1.985.308.308,0,0,0-.036.238.773.773,0,0,1,.036.24,1.15,1.15,0,0,0,.135.342.421.421,0,0,0,.308.137.415.415,0,0,0,.308-.137,2.449,2.449,0,0,0,.342-.411,2.2,2.2,0,0,0,.344-.958c.044-.363.091-.728.135-1.1Z" transform="translate(102.515 43.374)" fill="#00a4f2"/>
      <path id="パス_4358" data-name="パス 4358" d="M130.229,60.81c.5-.318,1.013-.637,1.54-.958a9.808,9.808,0,0,0,1.472-1.093,12.769,12.769,0,0,1,1.814-1.131,16.919,16.919,0,0,0,1.88-1.129c.182-.089.378-.192.584-.308a6.219,6.219,0,0,1,.65-.308c.228-.091.432-.183.616-.272a5.661,5.661,0,0,1,.683-.276c.182-.044.228.025.139.207a.454.454,0,0,1,0,.34,2.791,2.791,0,0,0-.139.344l-1.435,1.093q-.205.14-.445.308c-.162.116-.308.217-.445.308l-2.6,2.464c-.549.5-1.107,1-1.677,1.506s-1.175,1-1.814,1.506a4.334,4.334,0,0,0-.65.479c-.207.184-.424.365-.65.548-.184.137-.354.276-.513.411a2.2,2.2,0,0,1-.376.276,1.429,1.429,0,0,1-1.506-.139l-.342-.272a6.381,6.381,0,0,1-.618-.892,2.37,2.37,0,0,1,.07-1.23l.274-1.165c.226-.639.433-1.253.616-1.846a18.1,18.1,0,0,1,.684-1.848l.616-1.713.137-.684a.443.443,0,0,0-.274-.411.783.783,0,0,0-.342.068l-1.643,1.645a5.423,5.423,0,0,1-.926.856,2.977,2.977,0,0,1-1.059.511,3.649,3.649,0,0,1-.342.207.74.74,0,0,0-.276.272,1.874,1.874,0,0,1-.956.755l-.479.2q-.616.277-.89-.411A1.282,1.282,0,0,1,121.469,58a9.18,9.18,0,0,0,.445-1.027q.171-.479.376-.958a9,9,0,0,0,.614-1.164,10.278,10.278,0,0,0,.479-1.3,3.05,3.05,0,0,1,.413-.958,12.68,12.68,0,0,1,.479-1.234,10.906,10.906,0,0,0,.479-1.3,5.776,5.776,0,0,1,.308-.755c.114-.226.217-.454.306-.683a.592.592,0,0,1,.618-.344h.684a3.152,3.152,0,0,1,.443.036.516.516,0,0,1,.378.24,1.053,1.053,0,0,1,.479,1.1,1.59,1.59,0,0,1-.137.65,1.539,1.539,0,0,0-.137.648.272.272,0,0,0,.274.139.768.768,0,0,0,.342-.068,6.812,6.812,0,0,1,1.2-.958,6.991,6.991,0,0,0,1.2-.958,2.906,2.906,0,0,1,1.709-.479,1.346,1.346,0,0,1,1.1.411,1.99,1.99,0,0,0,.137.24.437.437,0,0,1,.068.24c.137.272.183.456.137.548a7.4,7.4,0,0,1-.274.888l-2.4,5.2L129.954,59.3a2.221,2.221,0,0,0-.2,1.371.18.18,0,0,0,.2.2h.139v.068Z" transform="translate(109.43 43.516)" fill="#00a4f2"/>
      <path id="パス_4359" data-name="パス 4359" d="M142.123,52.262a2.037,2.037,0,0,1-.07.479c0,.365.207.548.618.548h.684a6.262,6.262,0,0,1,1.47-.139,6.222,6.222,0,0,0,1.473-.137h.958a.4.4,0,0,1,.135.276c.183.272.16.479-.067.614-.048.137-.1.217-.173.241a.691.691,0,0,0-.24.171c-.182.181-.319.272-.411.272a13.526,13.526,0,0,1-1.745.342,11.347,11.347,0,0,0-1.677.344,5.266,5.266,0,0,1-2.122.479,1.952,1.952,0,0,0-.24.137,2.243,2.243,0,0,1-.24.135.691.691,0,0,0-.171.24.435.435,0,0,1-.1.171,2.26,2.26,0,0,0-.276.445.846.846,0,0,1-.2.308,9.529,9.529,0,0,1-2.156,2.875q-1.4,1.3-2.569,2.192a2.717,2.717,0,0,1-1.367.548h-.479a1.07,1.07,0,0,1-.479-.139,2.306,2.306,0,0,1-1.234-.684,3.132,3.132,0,0,1-.616-1.23.544.544,0,0,1-.067-.207,1.586,1.586,0,0,1,.067-1.027,1.309,1.309,0,0,1,.173-.342.561.561,0,0,0,.1-.34,4.508,4.508,0,0,0,.34-.823c.184-.639.356-1.162.515-1.574s.375-.934.65-1.572c.137-.319.272-.639.409-.96s.3-.637.479-.958a9.339,9.339,0,0,1,.582-.89c.205-.272.422-.548.652-.819.226-.367.432-.707.614-1.027s.388-.662.616-1.027a1.042,1.042,0,0,1,.755-.479,1.011,1.011,0,0,1,.751-.276q.753-.137,1.713-.272a1.681,1.681,0,0,1,1.506.409.585.585,0,0,0,.272.171.638.638,0,0,1,.276.171c.135.23.251.435.34.616s.207.388.342.616a4.624,4.624,0,0,1,.207.65,1.977,1.977,0,0,1,0,.719Zm-3.97,2.873a.548.548,0,0,0-.068-.34,4.31,4.31,0,0,1-.549-.823c-.137-.272-.272-.548-.409-.821a.774.774,0,0,0-.342-.272.539.539,0,0,0-.344-.068.562.562,0,0,0-.34.2,11.332,11.332,0,0,0-.686,1.1,19.289,19.289,0,0,0-1.162,2.464c-.276.732-.548,1.6-.823,2.6v.207a.371.371,0,0,0-.032.272.159.159,0,0,0,.171.139c.137.089.249.089.34,0a5.686,5.686,0,0,0,2.464-1.85,22.071,22.071,0,0,0,1.713-2.464.783.783,0,0,0,.068-.342m2.188-4.723a.4.4,0,0,0-.135-.274c-.184,0-.276.025-.276.07a3.069,3.069,0,0,0-1.162,1.985.308.308,0,0,0-.036.238.773.773,0,0,1,.036.24,1.15,1.15,0,0,0,.135.342.421.421,0,0,0,.308.137.415.415,0,0,0,.308-.137,2.451,2.451,0,0,0,.342-.411,2.2,2.2,0,0,0,.344-.958c.044-.363.091-.728.135-1.1Z" transform="translate(117.796 43.374)" fill="#00a4f2"/>
      <path id="パス_4360" data-name="パス 4360" d="M138.438,61.28a2.7,2.7,0,0,1,.479-1.437q.342-.548.684-1.232c.228-.456.458-.865.684-1.232a5.155,5.155,0,0,1,.274-.582q.137-.24.342-.582a2.665,2.665,0,0,1,.137-.479,6,6,0,0,1,.513-1.608,13.945,13.945,0,0,0,.65-1.608,1.432,1.432,0,0,1,.479-.684.534.534,0,0,1,.549-.342,2.378,2.378,0,0,1,.751-.137c.276-.091.454.023.548.342a1.622,1.622,0,0,1,.274,1.027v.342a.332.332,0,0,0,.24.308.442.442,0,0,0,.445-.034,1.5,1.5,0,0,1,.479-.274l.342-.342a1.877,1.877,0,0,1,.479-.344.467.467,0,0,1,.342-.135,1.283,1.283,0,0,0,.411-.068,4.078,4.078,0,0,1,.89-.068,1.812,1.812,0,0,1,1.643.89.762.762,0,0,0,.068.342.423.423,0,0,0,.548.137,1.8,1.8,0,0,0,.274-.171,1.8,1.8,0,0,1,.274-.171l1.027-1.027a6.58,6.58,0,0,0,.719-.686q.308-.339.65-.683a1.175,1.175,0,0,1,.376-.445c.158-.114.31-.217.445-.308q.548-.342,1.1-.719c.363-.251.73-.513,1.1-.787a2.284,2.284,0,0,1,1.713-.274,1.075,1.075,0,0,1,.819.616v.342a12.469,12.469,0,0,1-.308,1.23,6.345,6.345,0,0,1-.511,1.165q-.619,1.3-1.165,2.6a25.942,25.942,0,0,1-1.232,2.532q-.342.89-.719,1.778t-.787,1.781c-.228.456-.435.9-.616,1.344s-.388.918-.616,1.432a.967.967,0,0,1-.034.207,1.2,1.2,0,0,0-.034.281q0,.274.137.274.068.14.205,0a1.178,1.178,0,0,0,.479-.2c.5-.367.992-.73,1.472-1.1a13.93,13.93,0,0,0,1.4-1.234.538.538,0,0,1,.137-.1.372.372,0,0,0,.137-.171,6.363,6.363,0,0,1,1.164-.926,6.168,6.168,0,0,0,1.164-.922,12.471,12.471,0,0,1,1.164-1.027q.616-.479,1.164-.958a4.224,4.224,0,0,0,.753-.479,2.351,2.351,0,0,1,.821-.413h.137c.181.093.228.184.137.276a.462.462,0,0,1-.034.2c-.023.048-.059.116-.1.207a1.182,1.182,0,0,1-.274.753,8.8,8.8,0,0,1-1.232,1.369,15.994,15.994,0,0,0-1.232,1.23,4.949,4.949,0,0,0-.992.823,9.617,9.617,0,0,1-.856.821c-.546.548-1.086,1.074-1.608,1.582s-1.061,1.036-1.608,1.586a10.667,10.667,0,0,1-2.122,1.985,1.984,1.984,0,0,1-.719.376,7.974,7.974,0,0,1-.787.171,1.37,1.37,0,0,1-1.1-.479,2.386,2.386,0,0,1-.753-2.671,6.358,6.358,0,0,1,.616-1.466c.228-.468.456-.92.684-1.361s.454-.911.684-1.415c.226-.411.445-.833.65-1.266s.422-.856.65-1.266q.137-.342.274-.65a3.178,3.178,0,0,0,.205-.652c.228-.5.432-.991.616-1.47s.386-.97.616-1.472a1.566,1.566,0,0,0,.274-.549,1.189,1.189,0,0,0,.068-.479c0-.089-.057-.158-.171-.2a.377.377,0,0,0-.308,0,.4.4,0,0,0-.274.135c-.23.184-.422.344-.582.481s-.331.3-.513.479a28.423,28.423,0,0,0-2.224,2.19q-1.064,1.164-2.088,2.327-.342.479-.719.924t-.719.856q-.274.342-.513.65c-.162.205-.331.422-.513.648a3.043,3.043,0,0,1-.821.9,1.152,1.152,0,0,1-1.506,0,2.637,2.637,0,0,1-.548-.591,3.047,3.047,0,0,1-.342-.721q0-.274.068-.274a7.076,7.076,0,0,0,.24-.719,4.3,4.3,0,0,1,.308-.787,4.857,4.857,0,0,0,.274-1.164.233.233,0,0,0-.1-.205c-.07-.046-.127-.046-.173,0a.828.828,0,0,0-.821.411,6.041,6.041,0,0,0-.616.719,3.91,3.91,0,0,0-.479.922c-.183.276-.354.548-.513.823a7.768,7.768,0,0,0-.445.89,5.133,5.133,0,0,1-.958,1.325.535.535,0,0,1-.445.316,1,1,0,0,1-.582-.106.67.67,0,0,1-.616-.348,1.439,1.439,0,0,1-.411-1.049" transform="translate(124.764 43.39)" fill="#00a4f2"/>
      <path id="パス_4361" data-name="パス 4361" d="M151.834,61.075c.091-.274.158-.489.2-.65a.867.867,0,0,1,.2-.376,12.19,12.19,0,0,1,1.612-3.183,17.447,17.447,0,0,0,1.544-2.567,2.755,2.755,0,0,0,.207-.548,4.626,4.626,0,0,1,.2-.616c.091-.226.194-.456.308-.684a1.5,1.5,0,0,1,.447-.548.635.635,0,0,1,.34-.411,5.163,5.163,0,0,1,.548-.137h.207a1.194,1.194,0,0,1,1.23.821q.205.205.068.684a3.116,3.116,0,0,1-.411.684c-.409.639-.81,1.209-1.2,1.711a9.471,9.471,0,0,0-1.063,1.78q-.342.548-.751,1.369c-.27.548-.5,1.006-.677,1.369a1.977,1.977,0,0,0-.3.684,3.144,3.144,0,0,0-.167.753c-.044.093.023.162.2.205a1.7,1.7,0,0,0,.4.068,6.7,6.7,0,0,0,1.532-.411c.616-.228,1.278-.489,1.985-.787s1.426-.637,2.158-1.027,1.437-.787,2.12-1.2a11.5,11.5,0,0,0,1.1-.548,2.838,2.838,0,0,1,1.1-.342c.091.046.139.162.139.342v.205a1.883,1.883,0,0,1-.549.582q-.342.24-.684.513-.756.616-1.949,1.437t-2.466,1.608Q158.2,62.649,157,63.3a15.549,15.549,0,0,1-1.945.924,2.413,2.413,0,0,1-1.61.137l-.607-.205a1.85,1.85,0,0,1-1.074-1.369q-.137-.205-.068-.274t0-.274a3.765,3.765,0,0,1,.068-.821.634.634,0,0,1,.068-.274q.071-.137,0-.068m5.955-11.841a.705.705,0,0,0,.068-.308.685.685,0,0,1,.068-.308,4.8,4.8,0,0,1,.342-.958q.205-.411.413-.821a.488.488,0,0,1,.171-.205,1.768,1.768,0,0,0,.24-.205,1.8,1.8,0,0,1,1.915.411q.616.616.205,1.1a4.24,4.24,0,0,1-1.025,1.506,2.4,2.4,0,0,1-1.506.753.481.481,0,0,1-.207-.034.331.331,0,0,0-.137-.034q-.479-.137-.479-.479a1.348,1.348,0,0,0-.068-.411" transform="translate(136.693 41.746)" fill="#00a4f2"/>
      <path id="パス_4362" data-name="パス 4362" d="M162.368,62.534a3.182,3.182,0,0,1-1.23-.2c-.093-.046-.184-.091-.276-.139a2.233,2.233,0,0,0-.409-.137.8.8,0,0,1-.205-.135.8.8,0,0,0-.205-.139c-.228-.228-.447-.432-.65-.616a2.223,2.223,0,0,1-.513-.684,1.6,1.6,0,0,1,0-1.3,10.208,10.208,0,0,1,.342-1.1c.135-.363.274-.751.411-1.164q.068-.2.171-.479a2.346,2.346,0,0,1,.24-.479,5.78,5.78,0,0,0,.548-1.506,1.771,1.771,0,0,1,.548-1.093,4.359,4.359,0,0,1,1.3-1.713q.411-.411.787-.819a7.717,7.717,0,0,1,.787-.755,5.323,5.323,0,0,0,.479-.272c.274-.091.536-.173.787-.24s.559-.148.924-.24a.656.656,0,0,1,.308-.068h.306a1.266,1.266,0,0,1,.755.34,9.687,9.687,0,0,1,.958.958,5,5,0,0,1,.479.958,1.188,1.188,0,0,1-.139,1.1,7.833,7.833,0,0,1-.958,1.061c-.365.342-.728.673-1.1.992q-.682.55-1.367,1.129t-1.437,1.129a1.514,1.514,0,0,1-1.1.274.983.983,0,0,0-.411.068,1.414,1.414,0,0,0-.548.411,2.111,2.111,0,0,0-.274.821,3.012,3.012,0,0,0-.205,1.711,1.657,1.657,0,0,1,.205.24.977.977,0,0,0,.274.24,2.031,2.031,0,0,0,.888.068,6.138,6.138,0,0,0,1.645-.479,13.953,13.953,0,0,0,1.745-.753c.523-.274,1.061-.57,1.607-.89.6-.363,1.175-.719,1.745-1.059s1.154-.7,1.747-1.063a2.157,2.157,0,0,1,.614-.135.369.369,0,0,1,.447.032c.16.116.215.219.171.308a3.229,3.229,0,0,1-1.027,1.711,11.261,11.261,0,0,0-1.472.96c-.481.365-.924.728-1.335,1.093-.365.23-.743.47-1.131.719a4.828,4.828,0,0,1-1.266.582c-.319.139-.648.264-.991.378a3.387,3.387,0,0,1-1.061.171,7.264,7.264,0,0,1-.96.2,3.371,3.371,0,0,1-.958,0m4.314-10.54a.367.367,0,0,1-.137-.24c0-.068-.025-.1-.068-.1h-.411a1.48,1.48,0,0,1-.274.342q-.684.684-1.335,1.437a7.123,7.123,0,0,0-1.063,1.643c0,.184.023.276.07.276h.205c.226-.228.454-.447.683-.652s.458-.422.686-.65a3.135,3.135,0,0,0,.89-.821q.342-.479.616-.956a.4.4,0,0,0,.137-.276" transform="translate(143.063 44.393)" fill="#00a4f2"/>
      <path id="パス_4363" data-name="パス 4363" d="M174.1,57.182a7.092,7.092,0,0,0-1.164.1,6.473,6.473,0,0,1-1.027.1,3.712,3.712,0,0,1-1.027-.137,5.948,5.948,0,0,1-1.027-.411,3.032,3.032,0,0,1-1.713-2.293,5.025,5.025,0,0,1,.616-3.046,4.374,4.374,0,0,1,1.437-1.335,14.014,14.014,0,0,1,4.622-1.848,7.483,7.483,0,0,1,2.017-.171,1.055,1.055,0,0,1,.958.616.636.636,0,0,1-.068.65.613.613,0,0,1-.479.24,7.784,7.784,0,0,0-1.538.376,13.88,13.88,0,0,0-1.814.753,13.24,13.24,0,0,0-1.677.992,5.142,5.142,0,0,0-1.2,1.1,1.522,1.522,0,0,0-.276,1.1,1.022,1.022,0,0,0,.411.821h2.4a6.343,6.343,0,0,1,2.359.548,3.428,3.428,0,0,1,1.814,1.437,2.725,2.725,0,0,1,0,2.088,10.494,10.494,0,0,1-1.333,2.532,21.992,21.992,0,0,1-2.158,2.635,19.888,19.888,0,0,1-2.565,2.293,21.406,21.406,0,0,1-2.532,1.643,4.4,4.4,0,0,1-1.953.65,2.912,2.912,0,0,1-1.1-.171c-.272-.114-.363-.262-.272-.445q1.574-1.092,2.7-1.814a17.007,17.007,0,0,0,2.5-2.019c.318-.365.81-.933,1.47-1.713a18.793,18.793,0,0,0,1.713-2.325,6.315,6.315,0,0,0,.888-2.053q.171-.89-.991-.89" transform="translate(149.406 43.379)" fill="#00a4f2"/>
    </g>
  </g>
</svg>
