<svg xmlns="http://www.w3.org/2000/svg" xmlns:xlink="http://www.w3.org/1999/xlink" width="881.431" height="104.765" viewBox="0 0 881.431 104.765">
  <defs>
    <clipPath id="clip-path">
      <rect id="長方形_10331" data-name="長方形 10331" width="881.431" height="104.765" fill="#00a4f2"/>
    </clipPath>
  </defs>
  <g id="title_pc" transform="translate(0 0)">
    <g id="グループ_8088" data-name="グループ 8088" transform="translate(0 0)" clip-path="url(#clip-path)">
      <path id="パス_4274" data-name="パス 4274" d="M38.2,42.206c1.025-.065,1.982-.1,2.872-.1s1.777-.032,2.666-.1a1.587,1.587,0,0,1,.562.1c.17.068.324.138.462.206a.423.423,0,0,1,.462.408.713.713,0,0,1-.154.617,1.96,1.96,0,0,1-1.028.925,11.122,11.122,0,0,1-2.561,1.025,12.966,12.966,0,0,1-1.747.306A13.4,13.4,0,0,0,38,45.9q-4.612.925-9.329,2.152a3.539,3.539,0,0,0-1.336.925,4.594,4.594,0,0,0-.511.922q-1.639,2.872-3.126,5.689T20.77,61.381a7.84,7.84,0,0,0-.719,1.95,7.208,7.208,0,0,1-.511,1.022,7.405,7.405,0,0,0-.514,1.025,25.85,25.85,0,0,0-1.59,3.386q-.665,1.744-1.382,3.486a1.466,1.466,0,0,0-.208,1.336,1.288,1.288,0,0,0,.414.562.469.469,0,0,0,.614.051c.752-.343,1.5-.649,2.255-.925s1.5-.579,2.255-.922c1.163-.476,2.309-.957,3.437-1.436s2.271-.922,3.434-1.333a.836.836,0,0,0,.617-.2,34.959,34.959,0,0,1,4.356-1.541q2.2-.612,4.462-1.125a2.1,2.1,0,0,1,.665-.105,1.169,1.169,0,0,0,.668-.2,12.9,12.9,0,0,1,3.637-.717q1.9-.105,3.742-.208a1.378,1.378,0,0,1,1.028,0q1.124.105,2.1.154a17.911,17.911,0,0,1,2.1.257,7.569,7.569,0,0,1,1.433.308c.408.138.854.306,1.333.514a.546.546,0,0,0,.206.254.607.607,0,0,1,.206.257,1.018,1.018,0,0,1-.514,1.641,3.089,3.089,0,0,0-.511.051.807.807,0,0,1-.514-.051,9.683,9.683,0,0,0-1.741-.051q-.925.053-1.744.051a31.683,31.683,0,0,0-7.074.819,65.212,65.212,0,0,0-8.407,2.461,52.407,52.407,0,0,0-7.434,2.769q-3.541,1.643-7.025,3.588-1.128.617-2.207,1.333t-2.2,1.333a9.721,9.721,0,0,1-1.025.719,8.817,8.817,0,0,0-1.025.717q-.617.511-1.13,1.025a3.658,3.658,0,0,0-.817,1.336c-.276.473-.514.936-.719,1.382A9.635,9.635,0,0,1,10,87.63a.692.692,0,0,1-.614.308.686.686,0,0,1-.719,0,6.44,6.44,0,0,0-.819.051,3.788,3.788,0,0,0-.922.254c-.549.208-1.1.411-1.641.617a16.6,16.6,0,0,0-1.639.719,2.5,2.5,0,0,1-1.95-.208A2.319,2.319,0,0,1,.059,87.013a.7.7,0,0,1,.306-.922c.549-.479,1.06-.938,1.539-1.384s.99-.906,1.539-1.384q1.229-1.026,2.307-2.1t2.2-2.2a4.75,4.75,0,0,0,.771-.973,4.4,4.4,0,0,1,.768-.973,3.244,3.244,0,0,0,.822-1.744,11.211,11.211,0,0,1,.562-1.95c.238-.614.495-1.23.771-1.844q.511-1.128.971-2.207c.308-.717.6-1.417.871-2.1.414-.957.771-1.877,1.079-2.766a14.559,14.559,0,0,1,1.179-2.566c.135-.27.273-.527.411-.768a3.058,3.058,0,0,0,.306-.768c.276-.684.53-1.333.771-1.95a14.552,14.552,0,0,1,.871-1.844A5.294,5.294,0,0,0,19.026,54a8.968,8.968,0,0,1,.206-1.639.506.506,0,0,0-.254-.617.834.834,0,0,0-.668-.1,7.124,7.124,0,0,1-.922.311l-.822.2a4.165,4.165,0,0,1-1.433.308,1.405,1.405,0,0,1-.822.154,7.318,7.318,0,0,1-.822-.154,2.148,2.148,0,0,1-1.944-1.333.517.517,0,0,1-.208-.617,2.877,2.877,0,0,1,1.233-1.947q.714-.41,1.382-.771c.443-.235.906-.46,1.384-.665q1.128-.511,2.258-1.025a9.333,9.333,0,0,1,2.358-.717,9.739,9.739,0,0,0,1.128-.308q.612-.2,1.23-.411a4.023,4.023,0,0,0,2.05-1.741c.27-.411.511-.8.717-1.182s.446-.768.719-1.176q1.022-1.85,1.95-3.642t1.947-3.537c.135-.138.206-.238.206-.308q.819-1.33,1.536-2.664c.479-.887.99-1.779,1.539-2.669q.823-1.432,1.59-2.664t1.587-2.666c.276-.479.533-.976.771-1.487a5.3,5.3,0,0,0,.46-1.59c.138-.273.035-.408-.306-.408a2.382,2.382,0,0,0-1.282-.051c-.376.1-.771.222-1.179.36-.96.341-1.9.7-2.82,1.074A15.187,15.187,0,0,0,29.177,21.7q-1.334.722-2.615,1.387t-2.615,1.487a39.891,39.891,0,0,0-6.1,4.2,30.374,30.374,0,0,0-5.076,5.435.239.239,0,0,1-.157.257.476.476,0,0,0-.257.254,1.271,1.271,0,0,1-.919.411,2.273,2.273,0,0,1-2.463-1.025,5.747,5.747,0,0,1-.717-1.182,11.714,11.714,0,0,0-.617-1.176,2.182,2.182,0,0,1,.206-2.258c.135-.2.273-.411.411-.617a3.517,3.517,0,0,1,.408-.511Q10.308,26.62,12,25.084a23.484,23.484,0,0,1,3.742-2.769q1.229-.714,2.461-1.333t2.461-1.333c.343-.138.668-.27.973-.408a4.491,4.491,0,0,1,.973-.308,12.633,12.633,0,0,0,1.744-.514A10.562,10.562,0,0,0,25.9,17.7a20.477,20.477,0,0,1,2-.871c.652-.238,1.317-.492,2-.768q2.251-.819,4.41-1.59t4.51-1.59a.82.82,0,0,1,.308-.1.8.8,0,0,0,.306-.1,4.482,4.482,0,0,0,1.744-1.13c.341-.476.7-.938,1.076-1.384s.736-.871,1.076-1.279a1.376,1.376,0,0,1,1.23-.617,6.372,6.372,0,0,1,4.616.922,2.332,2.332,0,0,0,1.741.308c.819-.135,1.622-.308,2.409-.511s1.59-.376,2.409-.514c1.3-.343,2.577-.649,3.845-.922s2.512-.514,3.742-.719c.681-.135,1.349-.273,2-.408s1.284-.273,1.9-.411q2.259-.511,4.464-.925t4.459-.919q2.665-.617,5.384-1.182t5.384-1.074Q89.568,1.4,92.288.988T97.672.066a2.654,2.654,0,0,1,2.561.819,1.09,1.09,0,0,1,.414,1.076,1.024,1.024,0,0,1-.617.871,4.492,4.492,0,0,0-.871.257,5.151,5.151,0,0,1-.771.257q-2.255.515-4.51.973T89.365,5.3q-1.846.41-3.64.768t-3.64.871q-1.537.308-3.075.668t-3.077.562c-.822.138-1.639.295-2.461.462s-1.606.36-2.358.562a42.209,42.209,0,0,1-4.973,1.333q-2.515.515-5.076,1.025c-1.639.343-3.283.687-4.921,1.028s-3.318.752-5.027,1.23a17.812,17.812,0,0,0-1.841.514c-.617.2-1.23.408-1.847.614a3,3,0,0,0-.871.514,4.583,4.583,0,0,0-.668.717,9.155,9.155,0,0,0-.819,1.23q-1.132,1.643-2.1,3.231c-.654,1.057-1.352,2.169-2.1,3.331a4.434,4.434,0,0,0-.514.922q-1.229,2.255-2.512,4.459T35.226,33.7q-.921,1.643-1.793,3.28t-1.59,3.383a1.983,1.983,0,0,0-.308,1.028c-.138.138-.119.324.054.562a.7.7,0,0,0,.562.36,5.687,5.687,0,0,0,1.333.206,12.819,12.819,0,0,0,1.639-.1,13.376,13.376,0,0,1,1.641-.1,6.939,6.939,0,0,0,.819-.049,5.354,5.354,0,0,1,.617-.054" transform="translate(0 0)" fill="#00a4f2"/>
      <path id="パス_4275" data-name="パス 4275" d="M20.118,35.1a4.022,4.022,0,0,1,.722-2.152q.511-.819,1.025-1.847a21.065,21.065,0,0,1,1.022-1.844,7,7,0,0,1,.414-.871c.132-.241.3-.53.508-.873a4.156,4.156,0,0,1,.206-.717,8.951,8.951,0,0,1,.771-2.412,21.589,21.589,0,0,0,.976-2.409,2.127,2.127,0,0,1,.717-1.022.8.8,0,0,1,.817-.514,3.568,3.568,0,0,1,1.128-.206c.414-.138.684.035.822.511a2.441,2.441,0,0,1,.411,1.539v.514a.49.49,0,0,0,.36.46.664.664,0,0,0,.665-.049,2.187,2.187,0,0,1,.717-.411l.514-.514a2.9,2.9,0,0,1,.717-.514.714.714,0,0,1,.514-.2,1.924,1.924,0,0,0,.614-.1,6.179,6.179,0,0,1,1.333-.1,2.724,2.724,0,0,1,2.461,1.333,1.129,1.129,0,0,0,.105.514.63.63,0,0,0,.819.206,3.084,3.084,0,0,0,.408-.257,3.325,3.325,0,0,1,.411-.26l1.539-1.536a9.618,9.618,0,0,0,1.076-1.025c.311-.341.633-.684.973-1.028a1.823,1.823,0,0,1,.565-.665c.238-.168.462-.322.668-.462.546-.341,1.092-.7,1.636-1.074s1.1-.771,1.644-1.182a3.4,3.4,0,0,1,2.563-.408,1.615,1.615,0,0,1,1.23.922v.511c-.141.684-.292,1.3-.462,1.847a9.492,9.492,0,0,1-.768,1.741q-.925,1.951-1.744,3.9a39.27,39.27,0,0,1-1.844,3.794q-.519,1.33-1.074,2.664c-.381.89-.776,1.782-1.182,2.669q-.515,1.026-.925,2.015c-.273.66-.584,1.374-.925,2.142a1.692,1.692,0,0,1-.046.314,1.593,1.593,0,0,0-.054.419c0,.276.07.414.206.414.068.135.17.135.306,0a1.822,1.822,0,0,0,.719-.311c.752-.546,1.485-1.09,2.207-1.639a21.5,21.5,0,0,0,2.1-1.847.787.787,0,0,1,.206-.151.612.612,0,0,0,.206-.257,9.435,9.435,0,0,1,1.741-1.384A9.208,9.208,0,0,0,51.6,31.889a19.674,19.674,0,0,1,1.744-1.536c.617-.479,1.2-.955,1.744-1.436a6.149,6.149,0,0,0,1.128-.717,3.407,3.407,0,0,1,1.233-.614h.2c.273.135.346.27.208.408a.821.821,0,0,1-.049.306c-.038.073-.092.173-.16.311a1.793,1.793,0,0,1-.406,1.128,13.081,13.081,0,0,1-1.85,2.05,23.786,23.786,0,0,0-1.847,1.847,7.307,7.307,0,0,0-1.482,1.228,14.318,14.318,0,0,1-1.282,1.23q-1.233,1.233-2.415,2.371c-.787.757-1.585,1.552-2.407,2.374a16,16,0,0,1-3.177,2.975,3.042,3.042,0,0,1-1.076.565,10.973,10.973,0,0,1-1.182.254,2.053,2.053,0,0,1-1.641-.717,3.579,3.579,0,0,1-1.128-4,9.61,9.61,0,0,1,.922-2.2q.515-1.051,1.028-2.039t1.025-2.117c.343-.617.665-1.247.976-1.9s.63-1.279.971-1.9c.138-.341.276-.665.411-.973a4.594,4.594,0,0,0,.308-.973c.338-.752.649-1.487.925-2.207s.576-1.449.922-2.2a2.239,2.239,0,0,0,.406-.822,1.733,1.733,0,0,0,.1-.719c0-.132-.087-.235-.254-.306a.545.545,0,0,0-.46,0,.6.6,0,0,0-.411.2c-.341.276-.635.514-.873.719s-.495.446-.765.719a41.87,41.87,0,0,0-3.334,3.277q-1.594,1.748-3.129,3.488-.511.718-1.074,1.384c-.381.443-.738.871-1.079,1.282-.273.343-.533.668-.771.973s-.495.635-.768.976a4.592,4.592,0,0,1-1.23,1.349,1.722,1.722,0,0,1-2.255,0,4.043,4.043,0,0,1-.822-.887,4.808,4.808,0,0,1-.511-1.079c0-.273.038-.408.1-.408a10.509,10.509,0,0,0,.36-1.079,6.94,6.94,0,0,1,.46-1.179,6.993,6.993,0,0,0,.411-1.744.333.333,0,0,0-.157-.306.179.179,0,0,0-.254,0,1.239,1.239,0,0,0-1.23.614,9.766,9.766,0,0,0-.922,1.076,5.787,5.787,0,0,0-.719,1.387c-.273.408-.527.817-.765,1.23a10.707,10.707,0,0,0-.665,1.33A7.87,7.87,0,0,1,23.2,36.881a.812.812,0,0,1-.668.471,1.486,1.486,0,0,1-.871-.157,1,1,0,0,1-.922-.525,2.142,2.142,0,0,1-.619-1.571" transform="translate(34.283 26.283)" fill="#00a4f2"/>
      <path id="パス_4276" data-name="パス 4276" d="M64.32,25.528c-.138.276-.257.5-.36.668a2.725,2.725,0,0,0-.254.562q-.515.823-1.079,1.59c-.376.511-.733,1.009-1.076,1.487a8.19,8.19,0,0,0-1.33,1.639,14.863,14.863,0,0,1-1.233,1.284,14,14,0,0,1-1.333,1.074,2.022,2.022,0,0,0-.717.514,12.15,12.15,0,0,1-1.744,1.282c-.614.376-1.23.736-1.844,1.079l-2.152.922a11.8,11.8,0,0,1-4.2.819h-.617a3.47,3.47,0,0,1-2.152-.922,1.077,1.077,0,0,0-.357-.257.457.457,0,0,1-.257-.257,1.466,1.466,0,0,1-.411-1.23,7.307,7.307,0,0,1,.819-1.95,1.659,1.659,0,0,1,.514-.614,45.58,45.58,0,0,1,4.2-3.688,41.239,41.239,0,0,1,4.719-2.669q1.33-.612,2.563-1.128t2.358-1.025l1.639-.922a3.047,3.047,0,0,0,.665-.668,1.275,1.275,0,0,0,.157-.973,1.322,1.322,0,0,0-.925-1.23,3.623,3.623,0,0,0-1.333-.206,10.493,10.493,0,0,0-4.1,1.436,37.141,37.141,0,0,0-5.23,3.742,27.832,27.832,0,0,0-4.41,4.77Q43.507,32.6,42.379,34.6t-2.052,4.051l-1.847,4-1.022,2.664c-.208.552-.411,1.114-.617,1.693a14.158,14.158,0,0,1-.719,1.69,23.894,23.894,0,0,0-1.436,4.2c-.27.684-.511,1.371-.717,2.052a16.767,16.767,0,0,1-.717,1.95,2.492,2.492,0,0,0-.257.768,2.564,2.564,0,0,1-.257.768c-.27.752-.527,1.468-.768,2.155a17.718,17.718,0,0,1-.873,2.05l-.511.717a1.868,1.868,0,0,1-.514.154.822.822,0,0,1-.511-.051c-.208,0-.308-.135-.308-.411a5.664,5.664,0,0,1,.206-2.975,17.954,17.954,0,0,1,.614-2.766,4.58,4.58,0,0,1,.054-.665,5.775,5.775,0,0,0,.049-.771c.138-.684.292-1.349.462-2s.36-1.349.562-2.1c.617-1.847,1.284-3.653,2-5.435s1.455-3.55,2.207-5.33l3.588-8.41q.823-1.736,1.59-3.383t1.487-3.383l.614-1.23a13.06,13.06,0,0,1,.822-2.2c.341-.719.717-1.452,1.128-2.207.135-.27.27-.562.408-.871a5.13,5.13,0,0,0,.308-.871,3.427,3.427,0,0,0,.206-1.025,1.846,1.846,0,0,1,.051-.973c.1-.311.219-.633.36-.976a2.211,2.211,0,0,1,.717-.614,5.135,5.135,0,0,1,2.872,0,1.865,1.865,0,0,1,.819.614,1.126,1.126,0,0,1,.206.925l-.614,1.433q-.617,1.026-1.128,2.1c-.343.717-.684,1.382-1.028,2a3.063,3.063,0,0,0-.1.925c0,.068.065.17.2.306q.1.207.308,0a4.529,4.529,0,0,0,.617-.257,1.979,1.979,0,0,0,.511-.36,21.761,21.761,0,0,1,4.613-2.869l1.539-.719a8.233,8.233,0,0,1,2.615-.562,15.052,15.052,0,0,1,2.718.154A4.99,4.99,0,0,1,63.809,20.3c.132.138.254.257.357.36a3.188,3.188,0,0,1,.36.462,3.057,3.057,0,0,1,.514,2.307,5.707,5.707,0,0,1-.719,2.1m-6.971,3.386-.308-.308a.981.981,0,0,0-1.025.206L51.4,31.372a13.443,13.443,0,0,0-1.641,1.23,7.036,7.036,0,0,0-1.333,1.541,2.032,2.032,0,0,0-.511.717v.1c.138.343.343.516.614.516a6.544,6.544,0,0,0,1.8-.414,7.053,7.053,0,0,0,1.487-.817c.957-.754,1.847-1.487,2.666-2.207a30.539,30.539,0,0,0,2.358-2.307l.514-.617Z" transform="translate(49.655 24.985)" fill="#00a4f2"/>
      <path id="パス_4277" data-name="パス 4277" d="M59.181,21.6a2.9,2.9,0,0,1-.1.717q0,.823.925.822h1.025a9.521,9.521,0,0,1,2.2-.206,9.373,9.373,0,0,0,2.2-.206h1.436a.593.593,0,0,1,.206.411q.41.612-.1.925c-.068.2-.151.324-.257.354a1.04,1.04,0,0,0-.357.26c-.276.273-.479.408-.617.408a20.456,20.456,0,0,1-2.615.514,16.94,16.94,0,0,0-2.509.511,7.888,7.888,0,0,1-3.18.719,3.271,3.271,0,0,0-.36.206,2.584,2.584,0,0,1-.36.2,1.02,1.02,0,0,0-.257.36.636.636,0,0,1-.151.257,3.318,3.318,0,0,0-.414.668,1.316,1.316,0,0,1-.306.46,14.273,14.273,0,0,1-3.229,4.308q-2.105,1.947-3.845,3.283a4.07,4.07,0,0,1-2.052.817H45.75a1.613,1.613,0,0,1-.717-.2,3.44,3.44,0,0,1-1.847-1.028,4.677,4.677,0,0,1-.925-1.844.835.835,0,0,1-.1-.308,2.392,2.392,0,0,1,.1-1.536,1.939,1.939,0,0,1,.257-.514.83.83,0,0,0,.157-.514,6.856,6.856,0,0,0,.511-1.23c.273-.957.533-1.744.768-2.358s.565-1.4.976-2.358q.3-.718.614-1.433a13.723,13.723,0,0,1,.719-1.439,13.026,13.026,0,0,1,.871-1.333q.462-.612.976-1.23c.341-.546.646-1.06.919-1.536s.581-.99.922-1.541a1.572,1.572,0,0,1,1.13-.714,1.511,1.511,0,0,1,1.128-.414c.752-.133,1.606-.27,2.561-.408a2.5,2.5,0,0,1,2.258.617.888.888,0,0,0,.411.254.941.941,0,0,1,.408.257c.206.343.376.649.514.925s.308.581.511.922a6.161,6.161,0,0,1,.308.973,2.865,2.865,0,0,1,0,1.076Zm-5.946,4.3a.815.815,0,0,0-.1-.511,6.377,6.377,0,0,1-.822-1.23c-.2-.411-.408-.819-.614-1.23a1.145,1.145,0,0,0-.514-.411.834.834,0,0,0-.511-.1.846.846,0,0,0-.514.308,16.065,16.065,0,0,0-1.022,1.641,28.359,28.359,0,0,0-1.744,3.691q-.617,1.639-1.23,3.9v.308a.59.59,0,0,0-.054.408.242.242,0,0,0,.257.206.372.372,0,0,0,.516,0,8.533,8.533,0,0,0,3.688-2.769,33.031,33.031,0,0,0,2.563-3.688,1.171,1.171,0,0,0,.1-.516m3.28-7.074a.59.59,0,0,0-.2-.408c-.276,0-.414.032-.414.1a4.619,4.619,0,0,0-1.741,2.972.481.481,0,0,0-.051.36,1.109,1.109,0,0,1,.051.36,1.74,1.74,0,0,0,.206.511.62.62,0,0,0,.922,0,4.265,4.265,0,0,0,.514-.614,3.307,3.307,0,0,0,.514-1.436c.065-.549.135-1.1.2-1.641Z" transform="translate(71.708 26.25)" fill="#00a4f2"/>
      <path id="パス_4278" data-name="パス 4278" d="M65.879,24.08a16.225,16.225,0,0,0-.46,4.051,22.258,22.258,0,0,0,.257,3.023c.135.822.257,1.452.36,1.9s.119.668.049.668a9.434,9.434,0,0,0,2.872-1.076,13.994,13.994,0,0,0,2.461-1.8q1.128-1.022,2.1-2.05t1.693-1.844q2.255-2.872,4.408-5.487a24.8,24.8,0,0,0,3.588-5.895.242.242,0,0,0,.257-.208.915.915,0,0,1,.26-.408q1.022-.819,1.433.308a10.684,10.684,0,0,0,.1,1.384,4.264,4.264,0,0,1-.1,1.59,19.613,19.613,0,0,1-1.025,2.615A15.211,15.211,0,0,1,82.7,23.258a93.091,93.091,0,0,1-9.124,11.587c-.549.549-1.111,1.06-1.693,1.539a7.857,7.857,0,0,1-2.207,1.23q-4.3,1.947-7.279-2.769a8.433,8.433,0,0,0-.562-1.282q-.361-.665-.771-1.282L58.291,35.05a8.022,8.022,0,0,1-3.486,2.563,4.29,4.29,0,0,1-2.052.308,2.711,2.711,0,0,1-1.844-1.128A3.668,3.668,0,0,1,49.476,33.1q.41-2.872,1.076-5.846a32.831,32.831,0,0,1,1.793-5.638,3.229,3.229,0,0,1,.665-1.128,1.644,1.644,0,0,1,1.284-.514,8.549,8.549,0,0,0,2.255-.308c.752-.2,1.4.173,1.95,1.128a34.961,34.961,0,0,0-2.82,5.692,30.721,30.721,0,0,0-1.693,6.1c.411.273.717.327.922.154a3.113,3.113,0,0,1,.819-.462,33.069,33.069,0,0,0,2.155-2.615,18.368,18.368,0,0,1,2.358-2.612,5.113,5.113,0,0,0,.768-1.025,5.482,5.482,0,0,1,.871-1.13c.341-.341.617-.6.822-.768a1.318,1.318,0,0,1,.665-.308,4.35,4.35,0,0,1,.925,0c.376.035.9.119,1.587.257" transform="translate(84.185 24.895)" fill="#00a4f2"/>
      <path id="パス_4279" data-name="パス 4279" d="M67.069,36.485a4.7,4.7,0,0,1-1.844-.306l-.411-.208a3.659,3.659,0,0,0-.614-.2,1.19,1.19,0,0,1-.306-.206,1.233,1.233,0,0,0-.311-.206c-.341-.341-.665-.646-.973-.922a3.386,3.386,0,0,1-.768-1.025,2.408,2.408,0,0,1,0-1.95,15.86,15.86,0,0,1,.511-1.639c.206-.546.414-1.13.617-1.747.068-.2.151-.443.254-.714a3.8,3.8,0,0,1,.36-.719,8.614,8.614,0,0,0,.822-2.255,2.67,2.67,0,0,1,.819-1.641,6.559,6.559,0,0,1,1.947-2.561c.414-.414.8-.822,1.182-1.233a11.823,11.823,0,0,1,1.179-1.128,6.557,6.557,0,0,0,.717-.411c.411-.135.8-.257,1.182-.36s.833-.219,1.382-.357a1.025,1.025,0,0,1,.46-.1h.462a1.9,1.9,0,0,1,1.128.514A14.363,14.363,0,0,1,76.3,18.541a7.114,7.114,0,0,1,.719,1.436,1.79,1.79,0,0,1-.206,1.641,12.169,12.169,0,0,1-1.436,1.59c-.549.511-1.1,1.009-1.641,1.487q-1.026.823-2.05,1.69t-2.152,1.69a2.29,2.29,0,0,1-1.641.414,1.42,1.42,0,0,0-.614.1,2.1,2.1,0,0,0-.822.614,3.166,3.166,0,0,0-.411,1.233A4.477,4.477,0,0,0,65.739,33a2.555,2.555,0,0,1,.306.36,1.552,1.552,0,0,0,.411.357,3.145,3.145,0,0,0,1.333.105,9.355,9.355,0,0,0,2.461-.719,20.866,20.866,0,0,0,2.615-1.128q1.176-.612,2.412-1.333c.887-.546,1.758-1.079,2.612-1.59s1.725-1.041,2.615-1.59a3.285,3.285,0,0,1,.922-.2.55.55,0,0,1,.668.049c.238.173.322.324.257.462a4.805,4.805,0,0,1-1.541,2.563,17.4,17.4,0,0,0-2.2,1.436q-1.079.823-2,1.641c-.546.341-1.111.7-1.69,1.076a7.342,7.342,0,0,1-1.9.871q-.718.308-1.487.565a5.016,5.016,0,0,1-1.587.257,11.065,11.065,0,0,1-1.436.306,5.127,5.127,0,0,1-1.439,0M73.532,20.7a.549.549,0,0,1-.206-.36c0-.1-.035-.151-.1-.151h-.617a2.264,2.264,0,0,1-.408.511q-1.026,1.026-2,2.152a10.268,10.268,0,0,0-1.59,2.461c0,.276.032.408.1.408h.306c.341-.341.684-.665,1.025-.971s.684-.633,1.028-.973a4.664,4.664,0,0,0,1.33-1.23,16.715,16.715,0,0,0,.925-1.439.584.584,0,0,0,.206-.408" transform="translate(105.036 28.279)" fill="#00a4f2"/>
      <path id="パス_4280" data-name="パス 4280" d="M68.045,33.2q1.436-3.383,2.666-6.817a25.012,25.012,0,0,0,1.436-7.025c.476-.273.871-.476,1.179-.617a1.478,1.478,0,0,1,.922-.1,2.65,2.65,0,0,1,1.028.562c.373.308.833.738,1.385,1.282a4.562,4.562,0,0,0,1.128-.871,10.052,10.052,0,0,0,.817-1.076q1.44-1.026,2.82-1.95a9.62,9.62,0,0,1,3.126-1.333,15.052,15.052,0,0,1,2.718-.151,5.384,5.384,0,0,1,2.412.665A1.456,1.456,0,0,1,90.705,17.2q-.414,1.026-1.025,1.025h-.925a2.548,2.548,0,0,1-.922-.2,11.309,11.309,0,0,0-2.407.254,4.228,4.228,0,0,0-2.207,1.385A70.351,70.351,0,0,0,77.788,25.3a26.14,26.14,0,0,0-4.2,6.768,6.836,6.836,0,0,1-.462,1.076q-.26.462-.665,1.076-.515,1.233-1.644.822a8.6,8.6,0,0,1-1.485-.514A3.208,3.208,0,0,1,68.045,33.2" transform="translate(115.955 25.721)" fill="#00a4f2"/>
      <path id="パス_4281" data-name="パス 4281" d="M87.64,72.946a15.588,15.588,0,0,0,.617,4.308,5.9,5.9,0,0,0,2.358,2.766.635.635,0,0,1,.357.1,3.1,3.1,0,0,0,.36.206,17.154,17.154,0,0,0,2.152.257,6.843,6.843,0,0,0,2.155-.257q1.74-.511,3.434-1.076a19.2,19.2,0,0,0,3.331-1.487q2.665-1.436,5.178-2.972t4.973-3.28c.955-.684,1.915-1.387,2.869-2.1a15.588,15.588,0,0,1,3.077-1.8,2.581,2.581,0,0,0,.36-.206,3.8,3.8,0,0,1,.36-.2,16.455,16.455,0,0,1,3.026-2.412q1.586-.969,3.126-2.1.511-.3.973-.617c.308-.2.633-.443.976-.714a22.989,22.989,0,0,1,2.615-2.258q1.379-1.022,2.715-2.05,1.537-1.128,2.975-2.307t2.872-2.512c.476-.414.955-.8,1.433-1.182s.957-.733,1.436-1.074a.68.68,0,0,1,1.025.1,1.043,1.043,0,0,1,.308,1.13.981.981,0,0,1-.308.717.636.636,0,0,1-.1.357,3.1,3.1,0,0,0-.2.36,5.339,5.339,0,0,1-.514.822,8.4,8.4,0,0,1-.717.819Q139.725,55.62,138.6,56.9t-2.358,2.515a32.612,32.612,0,0,1-2.412,2.358q-1.282,1.132-2.615,2.255c-1.16.822-2.274,1.677-3.331,2.563s-2.171,1.744-3.334,2.563a12.884,12.884,0,0,0-1.587,1.179,12.862,12.862,0,0,1-1.59,1.182q-2.563,2.052-5.176,3.791t-5.284,3.486q-1.229.819-2.461,1.487t-2.461,1.387a38.087,38.087,0,0,1-4.767,1.9,22.378,22.378,0,0,1-5.076.973A9.016,9.016,0,0,1,94,84.482c-.684-.1-1.4-.222-2.152-.36a1.834,1.834,0,0,0-.514-.154,1.555,1.555,0,0,1-.614-.257A35.334,35.334,0,0,1,86.2,81.251a7.226,7.226,0,0,1-3.177-5.124,25.575,25.575,0,0,1-.308-4,6.635,6.635,0,0,1,.1-1.176c.068-.376.138-.8.206-1.282q1.229-4.717,2.718-9.178a92.077,92.077,0,0,1,3.534-8.972Q90,49.979,90.664,48.39t1.182-3.229a3.867,3.867,0,0,1,.717-1.028,7.264,7.264,0,0,0,1.179-1.847c.308-.681.6-1.366.871-2.05a27.954,27.954,0,0,1,1.847-3.64q1.026-1.691,2.052-3.434,2.15-3.281,4.4-6.357t4.821-6.052c.206-.2.392-.408.565-.611s.322-.414.462-.617q.71-1.026,1.382-2a18.8,18.8,0,0,1,1.487-1.9,17.975,17.975,0,0,1,1.487-1.693,9.359,9.359,0,0,0,1.385-1.793,11.734,11.734,0,0,1,1.022-1.128l1.847-1.847a23.478,23.478,0,0,0,1.744-1.95,18.678,18.678,0,0,1,1.8-1.947,19.577,19.577,0,0,0,1.793-1.947A3.3,3.3,0,0,1,124.76,2.3q.819,0,1.587.054a8.555,8.555,0,0,0,1.59-.054,8.206,8.206,0,0,1,3.075.617,4.825,4.825,0,0,0,2.769.411h1.128c.341.138.617.241.819.306a6.142,6.142,0,0,1,.719.308,1.558,1.558,0,0,1,.925.873,2.212,2.212,0,0,1,.1,1.487c-.206.2-.276.306-.206.306-.138.408-.276.649-.411.717a36.79,36.79,0,0,0-2.618,3.591q-1.176,1.846-2.407,3.794c-.343.546-.665,1.128-.976,1.741s-.633,1.233-.973,1.847q-.921,2.052-1.847,4.048A37.221,37.221,0,0,0,126.4,26.6c-.343.96-.733,1.931-1.179,2.92a27.884,27.884,0,0,0-1.179,3.131c-.206.752-.446,1.536-.719,2.358a17.186,17.186,0,0,0-.614,2.358q-.3,1.33-.719,2.561c-.27.822-.581,1.641-.922,2.461a5.623,5.623,0,0,1-1.23,1.541.6.6,0,0,1-.408.1c-.138,0-.276-.173-.411-.516a10.529,10.529,0,0,1-.205-2.869c.135-.752.257-1.555.36-2.409a17.185,17.185,0,0,1,.46-2.412c.206-.817.395-1.639.565-2.461s.36-1.6.565-2.358q.921-2.661,1.744-5.381a52.835,52.835,0,0,1,1.944-5.384c.07-.2.138-.411.206-.617s.138-.408.208-.614c.132-.544.287-1.109.46-1.69s.324-1.182.46-1.8a6.317,6.317,0,0,0,.311-.976,5.843,5.843,0,0,1,.306-.971c.341-.617.684-1.214,1.025-1.8a8.656,8.656,0,0,0,.822-1.9.09.09,0,0,1-.1-.1c0-.07-.019-.105-.051-.105s-.054-.032-.054-.1c-.135-.133-.238-.2-.306-.2a.937.937,0,0,0-.408.1,9.244,9.244,0,0,0-1.487.925c-.446.343-.944.719-1.487,1.128q-1.846,1.44-3.64,3.077t-3.537,3.28q-1.334,1.436-2.563,2.869c-.822.96-1.677,1.915-2.566,2.874q-2.872,3.277-5.381,6.766t-4.873,7.177q-.819,1.334-1.587,2.615T98.614,42.7c-.552.96-1.063,1.863-1.541,2.718s-.957,1.76-1.433,2.718Q94.2,51.111,92.973,54.08t-2.358,6.052c-.552,1.5-1.044,2.988-1.487,4.459s-.838,2.991-1.182,4.562a23.324,23.324,0,0,0-.306,3.794" transform="translate(140.961 3.919)" fill="#00a4f2"/>
      <path id="パス_4282" data-name="パス 4282" d="M120.383,21.6a2.921,2.921,0,0,1-.105.717q0,.823.927.822h1.022a9.547,9.547,0,0,1,2.207-.206,9.389,9.389,0,0,0,2.2-.206h1.436a.6.6,0,0,1,.2.411q.41.612-.1.925c-.068.2-.154.324-.257.354a1.071,1.071,0,0,0-.36.26c-.273.273-.479.408-.614.408a20.411,20.411,0,0,1-2.618.514,17.012,17.012,0,0,0-2.509.511,7.876,7.876,0,0,1-3.177.719,3.6,3.6,0,0,0-.362.206,2.582,2.582,0,0,1-.36.2,1.042,1.042,0,0,0-.254.36.668.668,0,0,1-.151.257,3.084,3.084,0,0,0-.414.668,1.324,1.324,0,0,1-.308.46,14.229,14.229,0,0,1-3.229,4.308q-2.105,1.947-3.845,3.283a4.07,4.07,0,0,1-2.052.817h-.717a1.622,1.622,0,0,1-.717-.2,3.439,3.439,0,0,1-1.847-1.028,4.713,4.713,0,0,1-.925-1.844.872.872,0,0,1-.1-.308,2.374,2.374,0,0,1,.1-1.536,2.023,2.023,0,0,1,.257-.514.83.83,0,0,0,.157-.514,6.658,6.658,0,0,0,.511-1.23c.273-.957.533-1.744.771-2.358s.565-1.4.976-2.358c.2-.479.406-.957.614-1.433a13.7,13.7,0,0,1,.717-1.439,13.5,13.5,0,0,1,.871-1.333q.462-.612.976-1.23c.341-.546.646-1.06.922-1.536s.579-.99.919-1.541a1.582,1.582,0,0,1,1.13-.714,1.519,1.519,0,0,1,1.128-.414c.752-.133,1.606-.27,2.564-.408a2.508,2.508,0,0,1,2.258.617.875.875,0,0,0,.411.254.934.934,0,0,1,.406.257c.208.343.379.649.514.925s.308.581.514.922a6.778,6.778,0,0,1,.308.973,2.866,2.866,0,0,1,0,1.076Zm-5.946,4.3a.815.815,0,0,0-.1-.511,6.377,6.377,0,0,1-.822-1.23c-.2-.411-.411-.819-.614-1.23a1.161,1.161,0,0,0-.514-.411.775.775,0,0,0-1.025.206,16.067,16.067,0,0,0-1.022,1.641,28.409,28.409,0,0,0-1.747,3.691q-.617,1.639-1.23,3.9v.308a.6.6,0,0,0-.051.408.242.242,0,0,0,.257.206.369.369,0,0,0,.514,0,8.541,8.541,0,0,0,3.691-2.769,33.032,33.032,0,0,0,2.563-3.688,1.171,1.171,0,0,0,.1-.516m3.28-7.074a.6.6,0,0,0-.2-.408c-.279,0-.414.032-.414.1a4.622,4.622,0,0,0-1.744,2.972.478.478,0,0,0-.049.36,1.113,1.113,0,0,1,.049.36,1.784,1.784,0,0,0,.208.511.63.63,0,0,0,.462.206.623.623,0,0,0,.457-.206,4.293,4.293,0,0,0,.516-.614,3.341,3.341,0,0,0,.514-1.436c.062-.549.133-1.1.2-1.641Z" transform="translate(175.997 26.25)" fill="#00a4f2"/>
      <path id="パス_4283" data-name="パス 4283" d="M109.907,35.1a4.021,4.021,0,0,1,.719-2.152q.515-.819,1.025-1.847c.341-.681.681-1.3,1.025-1.844a7.017,7.017,0,0,1,.411-.871c.135-.241.306-.53.511-.873a4.155,4.155,0,0,1,.206-.717,8.857,8.857,0,0,1,.771-2.412,21.571,21.571,0,0,0,.973-2.409,2.133,2.133,0,0,1,.719-1.022.794.794,0,0,1,.817-.514,3.555,3.555,0,0,1,1.128-.206c.414-.138.684.035.822.511a2.441,2.441,0,0,1,.408,1.539v.514a.494.494,0,0,0,.36.46.663.663,0,0,0,.665-.049,2.205,2.205,0,0,1,.719-.411c.138-.138.308-.308.511-.514a2.913,2.913,0,0,1,.719-.514.713.713,0,0,1,.511-.2,1.94,1.94,0,0,0,.617-.1,6.162,6.162,0,0,1,1.333-.1,2.727,2.727,0,0,1,2.461,1.333,1.167,1.167,0,0,0,.1.514.632.632,0,0,0,.819.206,2.943,2.943,0,0,0,.411-.257,2.965,2.965,0,0,1,.411-.26l1.536-1.536a9.9,9.9,0,0,0,1.079-1.025c.308-.341.63-.684.973-1.028a1.824,1.824,0,0,1,.565-.665q.357-.251.665-.462c.546-.341,1.092-.7,1.639-1.074s1.1-.771,1.641-1.182a3.4,3.4,0,0,1,2.564-.408,1.61,1.61,0,0,1,1.23.922v.511a17.836,17.836,0,0,1-.462,1.847,9.31,9.31,0,0,1-.768,1.741q-.921,1.951-1.741,3.9a38.663,38.663,0,0,1-1.847,3.794q-.515,1.33-1.074,2.664c-.379.89-.773,1.782-1.182,2.669-.343.684-.649,1.355-.922,2.015s-.584,1.374-.925,2.142a1.532,1.532,0,0,1-.049.314,1.593,1.593,0,0,0-.054.419c0,.276.07.414.208.414.065.135.168.135.306,0a1.8,1.8,0,0,0,.717-.311c.754-.546,1.487-1.09,2.207-1.639a20.885,20.885,0,0,0,2.1-1.847.834.834,0,0,1,.206-.151.573.573,0,0,0,.206-.257,9.435,9.435,0,0,1,1.741-1.384,9.139,9.139,0,0,0,1.744-1.387,19.3,19.3,0,0,1,1.744-1.536c.617-.479,1.2-.955,1.744-1.436A6.336,6.336,0,0,0,146,28.2a3.416,3.416,0,0,1,1.23-.614h.2c.273.135.343.27.206.408a.769.769,0,0,1-.049.306c-.038.073-.089.173-.157.311a1.78,1.78,0,0,1-.408,1.128,13.2,13.2,0,0,1-1.847,2.05,23.324,23.324,0,0,0-1.847,1.847,7.323,7.323,0,0,0-1.485,1.228,13.961,13.961,0,0,1-1.282,1.23q-1.233,1.233-2.412,2.371c-.787.757-1.587,1.552-2.407,2.374a16.009,16.009,0,0,1-3.18,2.975,3.019,3.019,0,0,1-1.076.565,11.067,11.067,0,0,1-1.179.254,2.053,2.053,0,0,1-1.641-.717,3.575,3.575,0,0,1-1.128-4,9.491,9.491,0,0,1,.922-2.2c.341-.7.684-1.379,1.025-2.039s.684-1.366,1.028-2.117c.341-.617.665-1.247.973-1.9s.633-1.279.973-1.9c.138-.341.273-.665.411-.973a4.59,4.59,0,0,0,.306-.973c.341-.752.652-1.487.925-2.207s.579-1.449.922-2.2a2.291,2.291,0,0,0,.408-.822,1.732,1.732,0,0,0,.1-.719c0-.132-.087-.235-.254-.306a.551.551,0,0,0-.462,0,.6.6,0,0,0-.408.2c-.343.276-.635.514-.873.719s-.495.446-.768.719a42.3,42.3,0,0,0-3.331,3.277q-1.594,1.748-3.129,3.488c-.343.479-.7.941-1.076,1.384s-.736.871-1.076,1.282c-.273.343-.533.668-.771.973s-.495.635-.768.976a4.592,4.592,0,0,1-1.23,1.349,1.722,1.722,0,0,1-2.255,0,3.978,3.978,0,0,1-.822-.887,4.583,4.583,0,0,1-.511-1.079c0-.273.035-.408.1-.408a10.5,10.5,0,0,0,.36-1.079,6.515,6.515,0,0,1,.46-1.179,7.121,7.121,0,0,0,.411-1.744.339.339,0,0,0-.157-.306c-.1-.07-.187-.07-.254,0a1.237,1.237,0,0,0-1.23.614,9.215,9.215,0,0,0-.922,1.076,5.786,5.786,0,0,0-.719,1.387c-.273.408-.53.817-.768,1.23a11.515,11.515,0,0,0-.665,1.33,7.739,7.739,0,0,1-1.436,1.988.8.8,0,0,1-.665.471,1.494,1.494,0,0,1-.873-.157,1,1,0,0,1-.922-.525,2.151,2.151,0,0,1-.617-1.571" transform="translate(187.292 26.283)" fill="#00a4f2"/>
      <path id="パス_4284" data-name="パス 4284" d="M122.154,35.1a4.021,4.021,0,0,1,.719-2.152q.515-.819,1.025-1.847c.341-.681.681-1.3,1.025-1.844a7.013,7.013,0,0,1,.411-.871c.135-.241.306-.53.511-.873a4.155,4.155,0,0,1,.206-.717,8.857,8.857,0,0,1,.771-2.412,21.571,21.571,0,0,0,.973-2.409,2.133,2.133,0,0,1,.719-1.022.794.794,0,0,1,.817-.514,3.555,3.555,0,0,1,1.128-.206c.414-.138.684.035.822.511a2.441,2.441,0,0,1,.408,1.539v.514a.494.494,0,0,0,.36.46.663.663,0,0,0,.665-.049,2.205,2.205,0,0,1,.719-.411c.138-.138.308-.308.511-.514a2.913,2.913,0,0,1,.719-.514.713.713,0,0,1,.511-.2,1.94,1.94,0,0,0,.617-.1,6.162,6.162,0,0,1,1.333-.1,2.727,2.727,0,0,1,2.461,1.333,1.167,1.167,0,0,0,.1.514.632.632,0,0,0,.819.206,2.943,2.943,0,0,0,.411-.257,2.966,2.966,0,0,1,.411-.26l1.536-1.536a9.9,9.9,0,0,0,1.079-1.025c.308-.341.63-.684.973-1.028a1.823,1.823,0,0,1,.565-.665q.357-.251.665-.462c.546-.341,1.092-.7,1.639-1.074s1.1-.771,1.641-1.182a3.4,3.4,0,0,1,2.563-.408,1.61,1.61,0,0,1,1.23.922v.511a17.851,17.851,0,0,1-.462,1.847,9.312,9.312,0,0,1-.768,1.741q-.921,1.951-1.741,3.9A38.67,38.67,0,0,1,148.4,28.23q-.515,1.33-1.073,2.664c-.379.89-.773,1.782-1.182,2.669-.343.684-.649,1.355-.922,2.015s-.584,1.374-.925,2.142a1.534,1.534,0,0,1-.049.314,1.592,1.592,0,0,0-.054.419c0,.276.07.414.208.414.065.135.168.135.306,0a1.8,1.8,0,0,0,.717-.311c.754-.546,1.487-1.09,2.207-1.639a20.886,20.886,0,0,0,2.1-1.847.834.834,0,0,1,.205-.151.573.573,0,0,0,.206-.257,9.435,9.435,0,0,1,1.741-1.384,9.138,9.138,0,0,0,1.744-1.387,19.294,19.294,0,0,1,1.744-1.536c.617-.479,1.2-.955,1.744-1.436a6.338,6.338,0,0,0,1.128-.717,3.416,3.416,0,0,1,1.23-.614h.2c.273.135.343.27.206.408a.769.769,0,0,1-.049.306c-.038.073-.089.173-.157.311a1.78,1.78,0,0,1-.408,1.128,13.2,13.2,0,0,1-1.847,2.05,23.329,23.329,0,0,0-1.847,1.847,7.323,7.323,0,0,0-1.485,1.228,13.965,13.965,0,0,1-1.282,1.23q-1.233,1.233-2.412,2.371c-.787.757-1.587,1.552-2.407,2.374a16.01,16.01,0,0,1-3.18,2.975,3.019,3.019,0,0,1-1.076.565,11.067,11.067,0,0,1-1.179.254,2.053,2.053,0,0,1-1.641-.717,3.575,3.575,0,0,1-1.128-4,9.492,9.492,0,0,1,.922-2.2c.341-.7.684-1.379,1.025-2.039s.684-1.366,1.028-2.117c.341-.617.665-1.247.973-1.9s.633-1.279.973-1.9c.138-.341.273-.665.411-.973a4.59,4.59,0,0,0,.306-.973c.341-.752.652-1.487.925-2.207s.579-1.449.922-2.2a2.291,2.291,0,0,0,.408-.822,1.733,1.733,0,0,0,.1-.719c0-.132-.087-.235-.254-.306a.551.551,0,0,0-.462,0,.6.6,0,0,0-.408.2c-.343.276-.635.514-.873.719s-.495.446-.768.719a42.294,42.294,0,0,0-3.331,3.277q-1.594,1.748-3.129,3.488c-.343.479-.7.941-1.076,1.384s-.736.871-1.076,1.282c-.273.343-.533.668-.771.973s-.495.635-.768.976a4.593,4.593,0,0,1-1.23,1.349,1.722,1.722,0,0,1-2.255,0,3.978,3.978,0,0,1-.822-.887,4.584,4.584,0,0,1-.511-1.079c0-.273.035-.408.1-.408a10.5,10.5,0,0,0,.36-1.079,6.515,6.515,0,0,1,.46-1.179,7.121,7.121,0,0,0,.411-1.744.339.339,0,0,0-.157-.306c-.1-.07-.187-.07-.254,0a1.237,1.237,0,0,0-1.23.614,9.215,9.215,0,0,0-.922,1.076,5.787,5.787,0,0,0-.719,1.387c-.273.408-.53.817-.768,1.23a11.52,11.52,0,0,0-.665,1.33,7.738,7.738,0,0,1-1.436,1.988.8.8,0,0,1-.665.471,1.494,1.494,0,0,1-.873-.157,1,1,0,0,1-.922-.525,2.151,2.151,0,0,1-.617-1.571" transform="translate(208.162 26.283)" fill="#00a4f2"/>
      <path id="パス_4285" data-name="パス 4285" d="M142.9,15.57a8.069,8.069,0,0,0,.822.36,1.907,1.907,0,0,0,.614.151c.341.414.443.687.308.822a37.92,37.92,0,0,0-2.05,3.64q-1.233,2.413-2.207,4.665a24.6,24.6,0,0,0-1.333,3.742q-.361,1.489.768.873a10.407,10.407,0,0,0,.925-.668,3.778,3.778,0,0,1,.719-.46q2.762-2.462,5.535-5.178t5.432-5.178a6.712,6.712,0,0,1,1.128-1.076,2.294,2.294,0,0,1,1.336-.36,1.105,1.105,0,0,1,.973.051,11.334,11.334,0,0,1,1.693,1.076c0,.276-.019.635-.054,1.079a.957.957,0,0,1-.462.871,5.112,5.112,0,0,0-1.944,2.512,10.093,10.093,0,0,1-1.641,2.923,6.872,6.872,0,0,0-1.076,2.718,5.777,5.777,0,0,0,.562,3.331h.973a2.156,2.156,0,0,0,.976-.206q2.251-.617,4.356-1.282t4.153-1.487c.819-.343,1.655-.7,2.512-1.076a6.932,6.932,0,0,1,2.82-.565,9.026,9.026,0,0,1-1.025,1.847,4.8,4.8,0,0,1-1.23,1.436,26.817,26.817,0,0,1-4.462,2.509q-2.409,1.079-4.665,2.207a13.5,13.5,0,0,1-1.9.614,8.733,8.733,0,0,1-2,.208,3.255,3.255,0,0,1-1.744-.311,5.81,5.81,0,0,1-1.641-1.076A5.467,5.467,0,0,1,148.9,32.7a3.017,3.017,0,0,1-.36-1.744,12.169,12.169,0,0,1,.154-1.844,15.272,15.272,0,0,0,.151-2.258c-.343.273-.63.5-.871.668a1.749,1.749,0,0,0-.562.665q-1.233,1.44-2.666,2.923t-2.666,2.92q-.617.414-1.436.925a5.734,5.734,0,0,1-1.639.719,1.894,1.894,0,0,1-2.463-.514,6.375,6.375,0,0,1-1.128-1.487,4.03,4.03,0,0,1-.411-1.9,9.476,9.476,0,0,1,.517-3.126c.338-.99.681-1.966,1.022-2.923q1.022-2.462,2.152-4.613t2.255-4.51a2.374,2.374,0,0,1,.414-.617,2.175,2.175,0,0,1,.717-.411Z" transform="translate(230.067 26.534)" fill="#00a4f2"/>
      <path id="パス_4286" data-name="パス 4286" d="M158.488,34.335q1.128-.718,2.309-1.436a14.62,14.62,0,0,0,2.2-1.641,19.646,19.646,0,0,1,2.718-1.693,25.424,25.424,0,0,0,2.82-1.69c.27-.135.562-.289.871-.462a8.673,8.673,0,0,1,.971-.46c.343-.135.652-.273.925-.411a8.06,8.06,0,0,1,1.025-.408c.273-.07.341.032.205.306a.67.67,0,0,1,0,.514,4.421,4.421,0,0,0-.205.511l-2.152,1.641c-.206.138-.427.292-.668.46s-.46.327-.665.462l-3.894,3.691q-1.233,1.132-2.515,2.255t-2.718,2.255a6.7,6.7,0,0,0-.973.719q-.462.414-.973.822c-.273.2-.53.408-.771.614a3.2,3.2,0,0,1-.562.411,2.136,2.136,0,0,1-2.255-.206l-.514-.411a9.5,9.5,0,0,1-.922-1.333,3.5,3.5,0,0,1,.1-1.847l.408-1.741c.341-.957.652-1.879.925-2.769a28.083,28.083,0,0,1,1.025-2.766l.922-2.563.206-1.025a.66.66,0,0,0-.408-.617,1.212,1.212,0,0,0-.516.1l-2.458,2.463a8.115,8.115,0,0,1-1.387,1.282,4.518,4.518,0,0,1-1.585.768,4.886,4.886,0,0,1-.517.308,1.153,1.153,0,0,0-.408.411,2.838,2.838,0,0,1-1.436,1.128l-.717.306q-.925.414-1.333-.614a1.943,1.943,0,0,1-.208-1.539,13.921,13.921,0,0,0,.671-1.536c.17-.479.357-.96.562-1.436a13.331,13.331,0,0,0,.922-1.744,16.422,16.422,0,0,0,.719-1.95,4.635,4.635,0,0,1,.614-1.436c.206-.611.446-1.228.717-1.841a16.588,16.588,0,0,0,.719-1.95,8.663,8.663,0,0,1,.462-1.128c.168-.341.322-.684.462-1.028a.875.875,0,0,1,.919-.511h1.025a4.593,4.593,0,0,1,.668.051.784.784,0,0,1,.562.36,1.566,1.566,0,0,1,.719,1.639,2.369,2.369,0,0,1-.205.976,2.335,2.335,0,0,0-.2.973.4.4,0,0,0,.408.2,1.07,1.07,0,0,0,.511-.1,10.309,10.309,0,0,1,1.8-1.433,10.338,10.338,0,0,0,1.793-1.436,4.365,4.365,0,0,1,2.564-.719,2.018,2.018,0,0,1,1.639.617,3.714,3.714,0,0,0,.206.357.647.647,0,0,1,.105.36c.2.414.27.684.2.822a10.75,10.75,0,0,1-.411,1.333l-3.588,7.793L158.08,32.08a3.323,3.323,0,0,0-.308,2.05.271.271,0,0,0,.308.308h.206v.1Z" transform="translate(247.6 26.536)" fill="#00a4f2"/>
      <path id="パス_4287" data-name="パス 4287" d="M153.851,35.607c.135-.414.235-.736.3-.976a1.312,1.312,0,0,1,.306-.565,18.219,18.219,0,0,1,2.409-4.765,26.268,26.268,0,0,0,2.317-3.845,4.072,4.072,0,0,0,.308-.822,7.313,7.313,0,0,1,.306-.922c.138-.343.292-.684.462-1.028a2.28,2.28,0,0,1,.665-.819.97.97,0,0,1,.514-.614,7.058,7.058,0,0,1,.822-.206h.306a1.787,1.787,0,0,1,1.844,1.23c.208.206.241.546.105,1.025a4.8,4.8,0,0,1-.617,1.028c-.617.955-1.214,1.812-1.793,2.561a13.957,13.957,0,0,0-1.59,2.666q-.515.819-1.125,2.05t-1.014,2.052a2.96,2.96,0,0,0-.454,1.025,4.762,4.762,0,0,0-.251,1.128c-.068.138.035.241.306.308a2.691,2.691,0,0,0,.6.1,10.242,10.242,0,0,0,2.3-.614q1.383-.515,2.972-1.182c1.06-.443,2.134-.955,3.231-1.536s2.152-1.182,3.177-1.8c.614-.273,1.16-.549,1.641-.819a4.244,4.244,0,0,1,1.639-.516c.138.073.208.241.208.516v.306a2.833,2.833,0,0,1-.822.871q-.515.361-1.025.771-1.128.921-2.923,2.152t-3.691,2.409q-1.9,1.18-3.694,2.155a23.236,23.236,0,0,1-2.91,1.384,3.61,3.61,0,0,1-2.415.2l-.909-.306a2.784,2.784,0,0,1-1.609-2.052c-.135-.2-.168-.341-.1-.411s.068-.206,0-.408a5.7,5.7,0,0,1,.1-1.23.9.9,0,0,1,.1-.408c.07-.138.07-.173,0-.1m8.921-17.742a1.045,1.045,0,0,0,.1-.46,1.037,1.037,0,0,1,.1-.462,6.786,6.786,0,0,1,.514-1.436q.3-.612.614-1.23a.766.766,0,0,1,.257-.306,2.467,2.467,0,0,0,.36-.311,2.705,2.705,0,0,1,2.869.617c.617.614.719,1.165.308,1.641a6.3,6.3,0,0,1-1.539,2.255A3.571,3.571,0,0,1,164.1,19.3a.745.745,0,0,1-.308-.049.447.447,0,0,0-.2-.054c-.481-.135-.719-.376-.719-.717a2.046,2.046,0,0,0-.1-.617" transform="translate(261.772 23.009)" fill="#00a4f2"/>
      <path id="パス_4288" data-name="パス 4288" d="M177.8,29.408c-.138.408-.273.892-.408,1.436a5.729,5.729,0,0,1-.719,1.644c-.408.957-.838,1.877-1.282,2.764s-.871,1.812-1.279,2.774c-.276.752-.533,1.43-.771,2.047a10.71,10.71,0,0,0-.562,2.05,9.41,9.41,0,0,0-.257,1.793c-.038.649-.054,1.249-.054,1.8a4.031,4.031,0,0,0,1.079,2.769,4.01,4.01,0,0,0,2.923.514,16.351,16.351,0,0,0,5.741-1.641l1.536-.765a7.415,7.415,0,0,1,1.541-.568,1.284,1.284,0,0,1,.46.1,1.833,1.833,0,0,0,.668.1q-1.132,1.436-2.052,2.769a6.25,6.25,0,0,1-2.358,2.052,11.024,11.024,0,0,1-6.766,1.125,6.943,6.943,0,0,1-4.819-2.923,8.049,8.049,0,0,1-1.641-5.484,15.956,15.956,0,0,1,.717-2.92c.343-1,.649-2.036.925-3.131q1.124-2.458,2.253-4.921a39.446,39.446,0,0,1,2.566-4.716,7.008,7.008,0,0,0,1.128-1.744c.27-.614.579-1.26.922-1.947a3.316,3.316,0,0,0,0-2.563,5.6,5.6,0,0,1-1.128-.1,6.7,6.7,0,0,0-1.233-.1c-1.639,0-3.331.038-5.073.1s-3.5.1-5.281.1a30.805,30.805,0,0,1-3.691-.206,17.837,17.837,0,0,1-3.588-.822,2.989,2.989,0,0,1-1.076-.614,9.828,9.828,0,0,0-1.079-.817,4.842,4.842,0,0,1,2-.717,16.823,16.823,0,0,1,1.793-.108h20.816a12.951,12.951,0,0,0,2.461-4c.546-.887,1.092-1.744,1.639-2.561A23.493,23.493,0,0,0,185.29,9.52a1.512,1.512,0,0,0,.306-.462,1.334,1.334,0,0,1,.308-.462,2.986,2.986,0,0,1,1.433-.819,6.845,6.845,0,0,1,1.644-.206c.749,0,1.23.206,1.433.611a9.991,9.991,0,0,0,.822,1.339c-1.165,1.363-2.274,2.734-3.334,4.1a36.813,36.813,0,0,0-2.923,4.413,32.606,32.606,0,0,0,6.257.206c1.979-.141,3.964-.206,5.946-.206a52.74,52.74,0,0,0,5.641.1q2.868-.1,5.535-.1,2.872.2,5.846.254c1.979.032,3.962.122,5.946.254a33.15,33.15,0,0,1-10.765,1.641c-1.914.141-3.78.273-5.592.411s-3.672.273-5.587.414q-3.075.2-6.255.308t-6.357.3h-1.128a4.127,4.127,0,0,0-2.05.462,2.858,2.858,0,0,0-1.23,1.69,13.534,13.534,0,0,1-1.23,2.158,21.862,21.862,0,0,0-1.333,2.15h-.206c-.138.273-.241.5-.308.668s-.17.392-.308.665" transform="translate(264.377 12.901)" fill="#00a4f2"/>
      <path id="パス_4289" data-name="パス 4289" d="M185.689,51.073a2.177,2.177,0,0,1,.1,1.433q-1.643,3.59-3.283,7.128t-3.38,7.125q-1.237,1.947-2.618,3.794T173.8,74.141a11.313,11.313,0,0,1-2.566,2.409,9.489,9.489,0,0,1-3.18,1.387,8.69,8.69,0,0,1-3.742.714,4.787,4.787,0,0,1-3.126-1.536.985.985,0,0,1-.411-.822,5.444,5.444,0,0,1-.46-3.534,29.158,29.158,0,0,1,.973-3.742q.925-1.846,1.847-3.691a9.639,9.639,0,0,1,2.361-3.077,5.509,5.509,0,0,0,.817-1.025,9.823,9.823,0,0,1,.717-1.028,46.7,46.7,0,0,1,4.821-6.149q2.665-2.872,5.227-5.846a24.994,24.994,0,0,1,3.231-3.075c1.2-.96,2.371-1.914,3.537-2.874a9.4,9.4,0,0,0,2.461-2c.681-.784,1.4-1.59,2.152-2.407.341-.617.719-1.247,1.128-1.9a3.254,3.254,0,0,0,.514-2.1,6.815,6.815,0,0,1,.871-2.358,3.143,3.143,0,0,0,.257-2.561,1.675,1.675,0,0,1-.514.254.9.9,0,0,0-.408.257l-1.436,1.23L187.43,31.9c-.684.549-1.333,1.025-1.947,1.436a5.377,5.377,0,0,1-2.05.819,5.513,5.513,0,0,1-3.642,0q-1.594-.612-2-3.283c.206-.544.408-1.193.614-1.944s.376-1.5.514-2.258a6.238,6.238,0,0,1,.768-2.358c.379-.617.733-1.263,1.076-1.947a22.479,22.479,0,0,1,1.336-2.155,15.621,15.621,0,0,0,1.333-2.358,3.705,3.705,0,0,1,1.228-1.639,4.582,4.582,0,0,1,1.744-.822,2.92,2.92,0,0,1,1.844.157q.718.357.719,1.793-1.744,2.458-3.334,5.227a40.951,40.951,0,0,0-2.718,5.744c.343.343.617.46.822.36a1.858,1.858,0,0,0,.617-.565,57.2,57.2,0,0,0,8.918-8.818c.687-.752,1.439-1.5,2.255-2.255.414.138.838.273,1.287.411s.968.273,1.585.408a13.279,13.279,0,0,0-.154,2.563,4.425,4.425,0,0,1-.665,2.461,24.949,24.949,0,0,0-2.052,5.589q-.612,2.718-1.536,5.689a.317.317,0,0,1,.1.208v.614a3.833,3.833,0,0,1,1.025-.26c.343-.03.649-.049.922-.049a.3.3,0,0,0,.1.206.426.426,0,0,0,.051.2.506.506,0,0,1,.054.206c-.481.411-.787.684-.925.822a7.4,7.4,0,0,0-3.434,3.077,25.559,25.559,0,0,0-1.8,4q-.823,1.643-1.587,3.334t-1.487,3.229a2.565,2.565,0,0,1-.617.768,3.617,3.617,0,0,0-.717.871,3.589,3.589,0,0,0,.36-.717,1.857,1.857,0,0,1,.151-.411,1.857,1.857,0,0,0-.151.411.807.807,0,0,1-.36.411M185.995,44a3.137,3.137,0,0,0-1.793.514,9.692,9.692,0,0,0-1.487,1.233,9.614,9.614,0,0,0-1.847,1.433c-.549.549-1.128,1.092-1.739,1.639-.552.549-1.165,1.111-1.85,1.693s-1.333,1.147-1.944,1.693a35.213,35.213,0,0,0-2.412,2.666,15.106,15.106,0,0,0-2,3.177,32.153,32.153,0,0,1-2.152,4,36.739,36.739,0,0,0-2.152,3.9,12.625,12.625,0,0,0-1.436,3.077c-.341,1.09-.649,2.117-.922,3.075a2.083,2.083,0,0,0,.562,2.1,1.835,1.835,0,0,0,2-.051,16.35,16.35,0,0,0,1.744-1.279,9.709,9.709,0,0,0,1.539-1.59q1.744-1.951,3.28-3.742a16.964,16.964,0,0,0,2.669-4.459,2.44,2.44,0,0,1,.511-1.13q.414-.511.819-1.128a19.024,19.024,0,0,1,1.747-2.409,8.741,8.741,0,0,0,1.43-2.307q.925-2.052,2-4t2-3.9c.341-.544.681-1.16,1.025-1.844A4.449,4.449,0,0,0,185.995,44" transform="translate(272.999 26.101)" fill="#00a4f2"/>
      <path id="パス_4290" data-name="パス 4290" d="M249.567,9.668a5.088,5.088,0,0,1-.617,2.666.291.291,0,0,1-.1.206v.1c-.481.89-.854,1.59-1.128,2.1a10.391,10.391,0,0,1-.873,1.384,15.81,15.81,0,0,1-1.025,1.23c-.376.408-.906.922-1.59,1.536-.614.617-1.214,1.249-1.793,1.9a16.071,16.071,0,0,1-1.9,1.793q-1.03.921-2.052,1.8t-2.152,1.69a3.683,3.683,0,0,1-.411.357c-.138.105-.306.227-.514.36a14.471,14.471,0,0,0-1.639,1.487,9.3,9.3,0,0,1-1.641,1.384c-.614.411-1.23.822-1.844,1.23a11.439,11.439,0,0,0-1.744,1.436,2.973,2.973,0,0,0-.717.822c-.276.27-.241.479.1.614a4.5,4.5,0,0,0,.922.514,1.637,1.637,0,0,0,.717.257,3.936,3.936,0,0,1,.719.151q1.33.414,2.615.768t2.718.668a21.715,21.715,0,0,1,4.151,1.587,24.315,24.315,0,0,1,3.742,2.412A14.055,14.055,0,0,1,246.9,43.4a13.451,13.451,0,0,1,2.872,5.538,8.4,8.4,0,0,1,.1,4.308,5.3,5.3,0,0,0-.308,1.125,5.572,5.572,0,0,1-.306,1.128,21.5,21.5,0,0,1-1.539,3.386c-.754,1.1-1.5,2.152-2.258,3.177A33.283,33.283,0,0,1,243,65.037a4.89,4.89,0,0,1-.717.768,3.617,3.617,0,0,0-.717.871c-.206.206-.411.43-.617.668s-.408.462-.614.665c-.617.552-1.249,1.128-1.9,1.744s-1.32,1.2-2,1.744c-.752.754-1.5,1.455-2.255,2.1a22.293,22.293,0,0,1-2.563,1.9q-.718.515-1.33,1.025t-1.23,1.025q-1.846,1.432-3.742,2.718t-3.948,2.409c-1.165.752-2.377,1.449-3.642,2.1s-2.545,1.279-3.845,1.9a33.284,33.284,0,0,1-4.459,1.741q-2.3.718-4.667,1.23a2.03,2.03,0,0,1-.665.105,3.084,3.084,0,0,0-.768.1c-.549.065-1.1.119-1.639.151s-1.1.087-1.644.154a20.382,20.382,0,0,1-10.765-1.536,9.032,9.032,0,0,1-1.947-1.233,7.781,7.781,0,0,0-.822-.717,10.847,10.847,0,0,0-.919-.617,3.567,3.567,0,0,1-.925-1.23,5.153,5.153,0,0,0-.514-.973,5.142,5.142,0,0,1-.511-.973,6.329,6.329,0,0,1-.514-2.463,7.228,7.228,0,0,1,.051-.919,3.741,3.741,0,0,1,.257-.922c.341-.684.668-1.352.973-2s.633-1.314.973-2a9.425,9.425,0,0,1,.822-1.23q1.436-1.943,2.818-3.845t2.82-3.845a1.32,1.32,0,0,0,.257-.306.556.556,0,0,1,.257-.206c.614-.749,1.111-1.349,1.485-1.793s.7-.857.976-1.23a8.645,8.645,0,0,0,.717-1.182c.208-.408.443-.922.719-1.536q1.124-2.466,2-4.976t1.9-5.076c.138-.341.257-.665.36-.971a4.929,4.929,0,0,1,.462-.976,23.111,23.111,0,0,0,1.641-3.948q.612-2,1.333-4.051.612-1.943,1.333-3.845t1.433-3.843c.138-.341.273-.681.411-1.025a7.135,7.135,0,0,1,.514-1.028,37.647,37.647,0,0,0,1.433-3.742q.621-1.894,1.128-3.845a21.444,21.444,0,0,0,.668-2.152,5.054,5.054,0,0,0,.051-2.155c0-.408-.173-.546-.514-.408a.824.824,0,0,1-.357.1.844.844,0,0,0-.36.1,19.422,19.422,0,0,0-3.28,2.975q-1.541,1.639-3.077,3.229T200.353,27.1a12.777,12.777,0,0,1-1.128,1.176c-.414.379-.787.738-1.128,1.079a2.817,2.817,0,0,1-1.693.614,2.234,2.234,0,0,1-1.487-.511,1.954,1.954,0,0,1-.462-.771,1.092,1.092,0,0,1,.051-.871c.341-.614.668-1.214.973-1.8s.633-1.176.973-1.793c.138-.276.292-.546.462-.822a4.1,4.1,0,0,1,.565-.717q1.635-2.048,3.383-3.948a33.928,33.928,0,0,1,3.794-3.537,5.56,5.56,0,0,1,.665-.565,3.048,3.048,0,0,0,.668-.665,39.424,39.424,0,0,1,8.715-6.46,50.243,50.243,0,0,1,10.048-4.1c.887-.273,1.744-.514,2.563-.717a17.354,17.354,0,0,1,3.177-.614h.925a2.521,2.521,0,0,0,.922-.208,9.747,9.747,0,0,1,2.769-.206,18.2,18.2,0,0,0,2.769,0h.408a33.135,33.135,0,0,1,6.357,1.95c.273.138.53.276.771.408s.492.276.768.414a9.381,9.381,0,0,1,2.766,2.972.931.931,0,0,1,.26.46,4.083,4.083,0,0,0,.154.565,10.974,10.974,0,0,1,.2,1.23M197.378,88.006h.922a7.329,7.329,0,0,0,1.128-.1,10.005,10.005,0,0,1,1.076-.154c.376-.035.736-.051,1.079-.051a7.69,7.69,0,0,0,2.05-.257,13.27,13.27,0,0,0,1.844-.665q1.128-.515,2.207-.973c.717-.311,1.452-.6,2.2-.873.819-.273,1.59-.565,2.307-.871s1.452-.633,2.2-.973a17.933,17.933,0,0,0,2.1-1.128q.978-.617,2-1.333a.409.409,0,0,1,.308-.105q1.33-.921,2.152-1.433c.546-.343,1.057-.684,1.539-1.028s.99-.733,1.536-1.176,1.3-1.041,2.255-1.8a57.685,57.685,0,0,0,6.563-6.357c.684-.749,1.333-1.452,1.95-2.1s1.23-1.349,1.844-2.1a12.007,12.007,0,0,0,1.744-2.255q.819-1.33,1.693-2.666c.579-.887,1.179-1.777,1.793-2.664a13.167,13.167,0,0,0,1.333-2.566,17.706,17.706,0,0,0,.822-2.869,4.7,4.7,0,0,1,.049-.719,4.283,4.283,0,0,0,.054-.717,2.1,2.1,0,0,0,.051-.768,4.593,4.593,0,0,1-.051-.668,7.483,7.483,0,0,0-1.641-4.1c-.273-.343-.514-.633-.719-.871s-.443-.533-.717-.876a3.763,3.763,0,0,0-1.333-1.128,31.08,31.08,0,0,0-3.126-1.639,18.254,18.254,0,0,0-3.334-1.128q-2.154-.511-4.3-.922t-4.41-.719a7.1,7.1,0,0,1-.871-.051,3.263,3.263,0,0,0-.976.051,4.679,4.679,0,0,0-2.458.617,4.01,4.01,0,0,0-.925.511,10.3,10.3,0,0,1-.922.617,38.6,38.6,0,0,1-5.33,2.563,2.411,2.411,0,0,1-1.541.1.468.468,0,0,1-.306-.511.928.928,0,0,1,.2-1.025,3.926,3.926,0,0,1,.822-1.23,35.566,35.566,0,0,0,4.2-4.308,3.438,3.438,0,0,1,1.433-.922c.617-.206,1.214-.392,1.8-.565a9.82,9.82,0,0,0,1.693-.665,5.733,5.733,0,0,0,3.28-2.255,15.559,15.559,0,0,1,1.95-1.844,33.029,33.029,0,0,0,4.716-4.1,23.725,23.725,0,0,1,2.1-2.052,22.315,22.315,0,0,0,2.1-2.052l1.847-1.844a8.818,8.818,0,0,0,1.536-2.05,4.646,4.646,0,0,1,.671-.871c.235-.241.492-.5.768-.768a23.56,23.56,0,0,0,1.741-2.566,13.364,13.364,0,0,0,1.23-2.461,2.663,2.663,0,0,0,.257-.717c.035-.206.084-.479.154-.819a2.681,2.681,0,0,0-.411-1.644c-.273-.27-.511-.511-.717-.714a2.853,2.853,0,0,0-.719-.516,1.7,1.7,0,0,0-.717-.2c-.754-.138-1.487-.257-2.2-.36a9.5,9.5,0,0,0-2.2-.051q-2.462.211-4.924.614a20.736,20.736,0,0,0-4.819,1.439,1.708,1.708,0,0,1-.511.151.94.94,0,0,0-.514.257q-1.436.515-2.718,1.076T220.652,9.36c-.206.141-.427.292-.668.462a4.178,4.178,0,0,0-.562.462c-.135.138-.292.306-.462.511a.768.768,0,0,0-.151.719,5.162,5.162,0,0,1-.206,2.869,49.268,49.268,0,0,1-1.847,5.641q-1.537,4-2.974,8t-2.869,7.9a14.563,14.563,0,0,0-.719,2.975,3.062,3.062,0,0,1-.922,2.255,12.069,12.069,0,0,0-1.333,2.307q-.515,1.18-1.025,2.307-.823,2.259-1.693,4.513t-1.793,4.51a17.577,17.577,0,0,0-.922,3.077c-.07.135-.016.324.151.565s.325.324.462.254q1.436-.207,2.923-.308a20.138,20.138,0,0,0,2.92-.408,17.536,17.536,0,0,1,1.847-.308,8.41,8.41,0,0,1,1.844,0,1.569,1.569,0,0,1,.565.1,1.467,1.467,0,0,0,.563.105.562.562,0,0,1,.257.46.621.621,0,0,1-.154.565,2.177,2.177,0,0,1-.511.411,6.666,6.666,0,0,1-1.639.2,13.825,13.825,0,0,0-1.641.1c-.754.068-1.5.122-2.258.157a16.883,16.883,0,0,0-2.255.254,6.656,6.656,0,0,0-3.894,1.947,3.733,3.733,0,0,0-.36.414,4.38,4.38,0,0,1-.36.408,4.758,4.758,0,0,0-1.844,2.358,4.182,4.182,0,0,1-.514.925,3.8,3.8,0,0,0-.511.922,3.781,3.781,0,0,1-2.155,1.436,5.716,5.716,0,0,0-3.28,2.255c-.276.343-.549.665-.822.973s-.581.633-.922.976q-1.132,1.533-2.05,2.972a11.2,11.2,0,0,0-.976,2.05c-.241.684-.462,1.4-.665,2.155v.714a6.583,6.583,0,0,0,1.744,4.719,14.632,14.632,0,0,0,1.9,1.436,6.055,6.055,0,0,0,2.307.822,14.687,14.687,0,0,0,2.05.254,16.239,16.239,0,0,1,2.155.257" transform="translate(312.063 2.804)" fill="#00a4f2"/>
      <path id="パス_4291" data-name="パス 4291" d="M226.691,35.055a8.066,8.066,0,0,1-2.563-.411,2.512,2.512,0,0,1-.411-.257,2.85,2.85,0,0,0-.411-.257,2.97,2.97,0,0,1-.819-2.152,5.375,5.375,0,0,1,.308-1.128,1.536,1.536,0,0,0,.1-.925.363.363,0,0,0-.411-.408.3.3,0,0,1-.206.1.3.3,0,0,0-.206.1,6.289,6.289,0,0,1-1.433,1.539q-.515.41-.925.717c-.273.2-.581.411-.922.617a11.073,11.073,0,0,0-.973.871,4.124,4.124,0,0,1-1.079.768,7.208,7.208,0,0,1-5.33,1.436,3.1,3.1,0,0,1-1.847-.819,5.837,5.837,0,0,0-.719-.922,1.324,1.324,0,0,1-.1-1.747c.206-.473.395-.955.562-1.433a4.482,4.482,0,0,0,.257-1.539,2.451,2.451,0,0,1,.617-1.228,13.251,13.251,0,0,1,1.028-1.439,10.313,10.313,0,0,1,1.228-1.23c.343-.341.684-.7,1.025-1.076s.681-.736,1.025-1.076a3.543,3.543,0,0,1,.719-.717,4.612,4.612,0,0,0,.819-.822,6.581,6.581,0,0,0,.871-.819q.361-.41.771-.819a8.3,8.3,0,0,1,3.28-2.255l2.769-1.23a1.649,1.649,0,0,1,.717-.257,6.286,6.286,0,0,0,.822-.157,1.534,1.534,0,0,1,1.333,0h.2a4.421,4.421,0,0,0,1.387.414q.767.1,1.487.2a2.028,2.028,0,0,1,1.382.771,1.512,1.512,0,0,1,.154,1.282,6.355,6.355,0,0,1-.719,2.869,16.328,16.328,0,0,1-.717,1.641,8.174,8.174,0,0,0-.617,1.641c-.138.341-.27.665-.408.973s-.276.633-.408.973c-.208.549-.411,1.1-.617,1.641s-.379,1.06-.511,1.539v.717c0,.07.065.154.2.257a.684.684,0,0,0,.411.154,2.587,2.587,0,0,0,.819-.105c.546-.2,1.111-.443,1.693-.714s1.144-.546,1.693-.822q1.229-.819,2.561-1.693c.887-.579,1.744-1.144,2.563-1.69a25.918,25.918,0,0,1,3.486-1.539,2.307,2.307,0,0,1,.719-.1.578.578,0,0,1,.408.206.588.588,0,0,1,.206.408l-.614.925c-.408.408-.822.819-1.23,1.23s-.822.787-1.23,1.128a26.446,26.446,0,0,0-2.666,1.95c-.819.684-1.677,1.33-2.563,1.947a16.8,16.8,0,0,1-1.539.973q-.819.462-1.641.973a7.941,7.941,0,0,1-3.791.822m-.1-15.895c0-.408-.17-.617-.511-.617a1.668,1.668,0,0,1-.719.208,1.1,1.1,0,0,0-.617.206,5.542,5.542,0,0,0-1.436.562,9.464,9.464,0,0,0-1.23.871,15.571,15.571,0,0,0-1.639,1.436L218.8,23.468q-1.233,1.436-2.358,3.023c-.752,1.063-1.506,2.1-2.255,3.129v.411c-.07.135-.086.222-.051.254a.22.22,0,0,1,.051.154h.717a2.437,2.437,0,0,1,.614-.46,2.371,2.371,0,0,0,.617-.462q1.33-1.128,2.666-2.307c.887-.784,1.744-1.555,2.563-2.307q1.128-1.026,2.2-2c.717-.649,1.417-1.32,2.1-2a7.371,7.371,0,0,0,.514-.562,3.288,3.288,0,0,0,.411-.771c.065-.135.084-.222.051-.254a.215.215,0,0,1-.051-.157" transform="translate(355.242 27.149)" fill="#00a4f2"/>
      <path id="パス_4292" data-name="パス 4292" d="M230.981,28.966a10.654,10.654,0,0,0-1.747.157,9.847,9.847,0,0,1-1.536.151,5.506,5.506,0,0,1-1.536-.206,8.894,8.894,0,0,1-1.541-.614,4.542,4.542,0,0,1-2.561-3.437,7.477,7.477,0,0,1,.922-4.559,6.5,6.5,0,0,1,2.152-2,21.033,21.033,0,0,1,6.92-2.766,11.345,11.345,0,0,1,3.029-.257,1.578,1.578,0,0,1,1.433.922.947.947,0,0,1-.1.973.914.914,0,0,1-.717.36,11.6,11.6,0,0,0-2.307.565,20.767,20.767,0,0,0-5.23,2.615,7.764,7.764,0,0,0-1.8,1.639,2.278,2.278,0,0,0-.408,1.641,1.515,1.515,0,0,0,.614,1.23h3.588a9.482,9.482,0,0,1,3.54.822,5.126,5.126,0,0,1,2.715,2.15,4.111,4.111,0,0,1,0,3.131,15.748,15.748,0,0,1-2,3.791,33.076,33.076,0,0,1-3.231,3.948,29.738,29.738,0,0,1-3.845,3.434,32.546,32.546,0,0,1-3.791,2.463,6.592,6.592,0,0,1-2.923.973,4.3,4.3,0,0,1-1.641-.257c-.411-.17-.546-.392-.411-.668q2.361-1.639,4.051-2.718a25.319,25.319,0,0,0,3.742-3.023c.479-.546,1.214-1.4,2.2-2.563a28.417,28.417,0,0,0,2.566-3.486,9.577,9.577,0,0,0,1.333-3.077q.251-1.33-1.487-1.333" transform="translate(372.382 26.263)" fill="#00a4f2"/>
      <path id="パス_4293" data-name="パス 4293" d="M231.253,36.485a4.7,4.7,0,0,1-1.844-.306L229,35.972a3.657,3.657,0,0,0-.614-.2,1.19,1.19,0,0,1-.306-.206,1.235,1.235,0,0,0-.311-.206c-.341-.341-.665-.646-.973-.922a3.387,3.387,0,0,1-.768-1.025,2.409,2.409,0,0,1,0-1.95,15.868,15.868,0,0,1,.511-1.639c.206-.546.414-1.13.617-1.747.068-.2.151-.443.254-.714a3.8,3.8,0,0,1,.36-.719,8.613,8.613,0,0,0,.822-2.255,2.671,2.671,0,0,1,.819-1.641,6.56,6.56,0,0,1,1.947-2.561c.414-.414.8-.822,1.182-1.233a11.825,11.825,0,0,1,1.179-1.128,6.558,6.558,0,0,0,.717-.411c.411-.135.8-.257,1.182-.36s.833-.219,1.382-.357a1.025,1.025,0,0,1,.46-.1h.462a1.9,1.9,0,0,1,1.128.514,14.366,14.366,0,0,1,1.436,1.433,7.114,7.114,0,0,1,.719,1.436A1.79,1.79,0,0,1,241,21.618a12.166,12.166,0,0,1-1.436,1.59c-.549.511-1.1,1.009-1.641,1.487q-1.026.823-2.05,1.69t-2.152,1.69a2.29,2.29,0,0,1-1.641.414,1.42,1.42,0,0,0-.614.1,2.1,2.1,0,0,0-.822.614,3.165,3.165,0,0,0-.411,1.233A4.477,4.477,0,0,0,229.923,33a2.558,2.558,0,0,1,.306.36,1.551,1.551,0,0,0,.411.357,3.145,3.145,0,0,0,1.333.105,9.355,9.355,0,0,0,2.461-.719,20.863,20.863,0,0,0,2.615-1.128q1.176-.612,2.412-1.333c.887-.546,1.758-1.079,2.612-1.59s1.725-1.041,2.615-1.59a3.285,3.285,0,0,1,.922-.2.55.55,0,0,1,.668.049c.238.173.322.324.257.462a4.806,4.806,0,0,1-1.541,2.563,17.4,17.4,0,0,0-2.2,1.436q-1.079.823-2,1.641c-.546.341-1.111.7-1.69,1.076a7.343,7.343,0,0,1-1.9.871q-.718.308-1.487.565a5.016,5.016,0,0,1-1.587.257,11.064,11.064,0,0,1-1.436.306,5.127,5.127,0,0,1-1.439,0M237.716,20.7a.549.549,0,0,1-.206-.36c0-.1-.035-.151-.1-.151h-.617a2.267,2.267,0,0,1-.408.511q-1.026,1.026-2,2.152a10.268,10.268,0,0,0-1.59,2.461c0,.276.032.408.1.408h.306c.341-.341.684-.665,1.025-.971s.684-.633,1.028-.973a4.663,4.663,0,0,0,1.33-1.23,16.715,16.715,0,0,0,.925-1.439,1.054,1.054,0,0,0,.206-.408" transform="translate(384.822 28.279)" fill="#00a4f2"/>
      <path id="パス_4294" data-name="パス 4294" d="M231.85,54.793a2.228,2.228,0,0,0,.1-.717,21.625,21.625,0,0,1,.873-3.18,31,31,0,0,1,1.744-4.051,33.045,33.045,0,0,1,2.458-4.051,15.663,15.663,0,0,1,2.926-3.177,12.556,12.556,0,0,1,2.769-1.639c.338-.07.646-.119.919-.157a2.929,2.929,0,0,1,.927.054,8,8,0,0,1,3.175.714c.479.141.754.311.822.516a6.774,6.774,0,0,0,1.23-1.847q.819-1.541,1.847-3.794t2.2-4.973q1.172-2.718,2.355-5.384t2.207-5.024a39.95,39.95,0,0,1,1.844-3.794,11.248,11.248,0,0,1,.565-1.23c.308-.617.617-1.3.919-2.05s.584-1.436.822-2.052a4.531,4.531,0,0,0,.362-1.23q.2-.718.406-1.333a3.753,3.753,0,0,0,.205-1.23.442.442,0,0,1,.051-.2.354.354,0,0,0-.051-.308.574.574,0,0,1,.36-.206c.105,0,.187-.068.257-.206a9.957,9.957,0,0,0,1.487-.1,3.8,3.8,0,0,1,1.485.1.9.9,0,0,1,.619.306.9.9,0,0,1,.3.617c-.135.07-.2.276-.2.617q-.515,1.229-.925,2.307a9.66,9.66,0,0,1-1.23,2.2q-.207.515-.511,1.179c-.211.446-.379.806-.514,1.076a25.823,25.823,0,0,0-2.361,5.076,25.21,25.21,0,0,1-2.355,5.076q-.515,1.132-1.076,2.309c-.379.787-.735,1.555-1.079,2.3l-1.23,2.463a3.935,3.935,0,0,1-.36,1.128,3.878,3.878,0,0,0-.357,1.128q-.211.308-.717,1.282a11.313,11.313,0,0,0-.617,1.282q-.823,1.744-1.639,3.64t-1.744,3.742q-1.85,3.488-3.488,6.971a8.689,8.689,0,0,0-.817,1.693c-.211.581-.414,1.147-.617,1.69-.141.141-.141.414,0,.822a.271.271,0,0,0,.3.308.478.478,0,0,0,.26-.1.493.493,0,0,1,.257-.1c.135-.068.287-.151.462-.257s.325-.187.46-.254l1.079-1.079c.373-.373.727-.733,1.071-1.076.687-.544,1.352-1.109,2-1.69s1.347-1.182,2.1-1.8c.206-.2.414-.392.619-.562a1.765,1.765,0,0,1,.817-.36c.343-.341.617-.341.825,0a.607.607,0,0,1,.1.408,1.886,1.886,0,0,0-.1.617,1.168,1.168,0,0,1-.1.511,5.533,5.533,0,0,0-.873,1.128,9.179,9.179,0,0,1-.871,1.23.885.885,0,0,1-.414.719q-.608.718-1.125,1.436c-.343.479-.717.957-1.13,1.436a9.877,9.877,0,0,1-2.05,2.563,14.318,14.318,0,0,1-3.486,1.844,2.539,2.539,0,0,1-1.841-.206,3.2,3.2,0,0,1-1.439-.819c-.276-.206-.549-.411-.822-.614s-.514-.376-.717-.514a1.026,1.026,0,0,0-1.23,0c-.408.206-.806.411-1.179.614s-.768.411-1.176.617a3.422,3.422,0,0,1-1.544.717,2.942,2.942,0,0,1-2.972-.408,1.622,1.622,0,0,1-.408-.308c-.135-.135-.273-.273-.414-.411a1.573,1.573,0,0,1-.717-1.128,3.282,3.282,0,0,0-.1-.819m13.228-13.126a2.165,2.165,0,0,0-.1-.617c0-.27-.241-.408-.719-.408a1.245,1.245,0,0,0-.717.308,14.432,14.432,0,0,0-1.9,2.255c-.857,1.163-1.69,2.428-2.512,3.794a41.279,41.279,0,0,0-2.1,3.948,5.821,5.821,0,0,0-.768,2.612c-.07,0-.1.019-.1.054s.03.051.1.051v.308a.6.6,0,0,0,.414.1,2.623,2.623,0,0,0,1.433-.822,10.865,10.865,0,0,0,2.82-2.307q1.075-1.282,2.512-2.718a4.573,4.573,0,0,0,.717-1.128c.07-.341.151-.681.257-1.025s.187-.684.257-1.025a2.435,2.435,0,0,0,.411-1.539V41.667Z" transform="translate(395.095 7)" fill="#00a4f2"/>
      <path id="パス_4295" data-name="パス 4295" d="M285.651,42.206c1.025-.065,1.982-.1,2.872-.1s1.777-.032,2.666-.1a1.61,1.61,0,0,1,.562.1c.17.068.324.138.462.206a.419.419,0,0,1,.46.408.705.705,0,0,1-.154.617,1.944,1.944,0,0,1-1.025.925,11.092,11.092,0,0,1-2.563,1.025,13,13,0,0,1-1.744.306,13.4,13.4,0,0,0-1.741.308q-4.616.925-9.329,2.152a3.538,3.538,0,0,0-1.336.925,4.789,4.789,0,0,0-.514.922q-1.635,2.872-3.123,5.689t-2.923,5.795a7.839,7.839,0,0,0-.719,1.95,7.206,7.206,0,0,1-.511,1.022,7.416,7.416,0,0,0-.514,1.025,25.858,25.858,0,0,0-1.59,3.386q-.665,1.744-1.382,3.486a1.467,1.467,0,0,0-.208,1.336,1.288,1.288,0,0,0,.414.562.469.469,0,0,0,.614.051c.752-.343,1.5-.649,2.255-.925s1.5-.579,2.255-.922c1.163-.476,2.309-.957,3.437-1.436s2.271-.922,3.432-1.333a.828.828,0,0,0,.617-.2,35,35,0,0,1,4.359-1.541q2.2-.612,4.462-1.125a2.091,2.091,0,0,1,.665-.105,1.154,1.154,0,0,0,.665-.2,12.942,12.942,0,0,1,3.637-.717q1.9-.105,3.742-.208a1.385,1.385,0,0,1,1.03,0q1.124.105,2.1.154a17.871,17.871,0,0,1,2.1.257,7.476,7.476,0,0,1,1.433.308c.408.138.857.306,1.336.514a.529.529,0,0,0,.2.254.589.589,0,0,1,.208.257,1.018,1.018,0,0,1-.514,1.641,3.089,3.089,0,0,0-.511.051.807.807,0,0,1-.514-.051,9.683,9.683,0,0,0-1.741-.051q-.925.053-1.744.051a31.664,31.664,0,0,0-7.074.819,65.089,65.089,0,0,0-8.407,2.461,52.407,52.407,0,0,0-7.434,2.769q-3.545,1.643-7.025,3.588-1.128.617-2.207,1.333t-2.2,1.333a9.712,9.712,0,0,1-1.025.719,8.818,8.818,0,0,0-1.025.717q-.617.511-1.13,1.025a3.659,3.659,0,0,0-.817,1.336c-.276.473-.514.936-.719,1.382a9.639,9.639,0,0,1-.719,1.282,1.525,1.525,0,0,1-1.333.308,6.441,6.441,0,0,0-.819.051,3.789,3.789,0,0,0-.922.254c-.549.208-1.1.411-1.641.617a16.6,16.6,0,0,0-1.639.719,2.5,2.5,0,0,1-1.95-.208,2.319,2.319,0,0,1-1.639-2.358.7.7,0,0,1,.306-.922c.549-.479,1.06-.938,1.539-1.384s.99-.906,1.539-1.384q1.229-1.026,2.307-2.1t2.2-2.2a4.752,4.752,0,0,0,.771-.973,4.4,4.4,0,0,1,.768-.973,3.245,3.245,0,0,0,.822-1.744,11.206,11.206,0,0,1,.562-1.95c.238-.614.495-1.23.771-1.844q.511-1.128.971-2.207c.308-.717.6-1.417.871-2.1.414-.957.771-1.877,1.079-2.766a14.555,14.555,0,0,1,1.179-2.566c.135-.27.273-.527.408-.768a2.964,2.964,0,0,0,.308-.768c.276-.684.53-1.333.771-1.95a14.559,14.559,0,0,1,.871-1.844A5.294,5.294,0,0,0,266.476,54a8.964,8.964,0,0,1,.206-1.639.506.506,0,0,0-.254-.617.834.834,0,0,0-.668-.1,7.124,7.124,0,0,1-.922.311l-.822.2a4.165,4.165,0,0,1-1.433.308,1.405,1.405,0,0,1-.822.154,7.319,7.319,0,0,1-.822-.154,2.148,2.148,0,0,1-1.944-1.333.517.517,0,0,1-.208-.617,2.877,2.877,0,0,1,1.233-1.947q.714-.41,1.382-.771c.443-.235.906-.46,1.385-.665q1.128-.511,2.258-1.025a9.334,9.334,0,0,1,2.358-.717,9.739,9.739,0,0,0,1.128-.308c.408-.135.819-.273,1.23-.411a4.034,4.034,0,0,0,2.05-1.741c.268-.411.511-.8.716-1.182s.446-.768.717-1.176q1.026-1.85,1.952-3.642t1.947-3.537c.135-.138.2-.238.2-.308q.823-1.33,1.539-2.664c.479-.887.99-1.779,1.539-2.669q.823-1.432,1.587-2.664c.516-.822,1.044-1.709,1.59-2.666.273-.479.53-.976.771-1.487a5.377,5.377,0,0,0,.46-1.59c.138-.273.035-.408-.306-.408a2.382,2.382,0,0,0-1.282-.051c-.376.1-.771.222-1.179.36q-1.44.511-2.82,1.074a15.191,15.191,0,0,0-2.615,1.384q-1.334.722-2.615,1.387T271.4,24.573a39.891,39.891,0,0,0-6.1,4.2,30.377,30.377,0,0,0-5.076,5.435.239.239,0,0,1-.157.257.476.476,0,0,0-.257.254,1.271,1.271,0,0,1-.919.411,2.273,2.273,0,0,1-2.463-1.025,5.746,5.746,0,0,1-.717-1.182,11.718,11.718,0,0,0-.617-1.176,2.183,2.183,0,0,1,.206-2.258c.135-.2.273-.411.411-.617a3.513,3.513,0,0,1,.408-.511q1.639-1.744,3.334-3.28a23.481,23.481,0,0,1,3.742-2.769q1.229-.714,2.461-1.333t2.461-1.333c.343-.138.668-.27.974-.408a4.491,4.491,0,0,1,.973-.308,12.858,12.858,0,0,0,1.744-.514,10.566,10.566,0,0,0,1.539-.719,20.467,20.467,0,0,1,2-.871c.652-.238,1.317-.492,2-.768q2.255-.819,4.413-1.59t4.51-1.59a.82.82,0,0,1,.308-.1.793.793,0,0,0,.3-.1,4.472,4.472,0,0,0,1.747-1.13q.511-.714,1.073-1.384c.379-.443.736-.871,1.079-1.279a1.377,1.377,0,0,1,1.23-.617,6.372,6.372,0,0,1,4.616.922,2.332,2.332,0,0,0,1.741.308c.819-.135,1.622-.308,2.407-.511s1.593-.376,2.412-.514q1.943-.515,3.845-.922t3.742-.719c.679-.135,1.349-.273,2-.408s1.287-.273,1.9-.411q2.255-.511,4.464-.925t4.459-.919q2.665-.617,5.384-1.182t5.384-1.074q2.661-.515,5.381-.925c1.812-.273,3.6-.579,5.384-.922a2.656,2.656,0,0,1,2.561.819,1.083,1.083,0,0,1,.411,1.076,1.014,1.014,0,0,1-.617.871,4.518,4.518,0,0,0-.868.257,5.15,5.15,0,0,1-.771.257q-2.255.515-4.51.973t-4.516.976q-1.841.41-3.637.768t-3.64.871q-1.537.308-3.075.668t-3.077.562c-.822.138-1.641.295-2.461.462s-1.606.36-2.358.562a42.207,42.207,0,0,1-4.973,1.333q-2.515.515-5.076,1.025-2.458.515-4.924,1.028t-5.024,1.23a17.446,17.446,0,0,0-1.841.514q-.925.3-1.847.614a2.966,2.966,0,0,0-.871.514,4.587,4.587,0,0,0-.668.717,9.25,9.25,0,0,0-.822,1.23c-.752,1.1-1.455,2.171-2.1,3.231s-1.352,2.169-2.1,3.331a4.617,4.617,0,0,0-.516.922q-1.225,2.255-2.509,4.459T282.676,33.7c-.614,1.1-1.217,2.188-1.793,3.28s-1.114,2.223-1.593,3.383a2,2,0,0,0-.306,1.028c-.138.138-.119.324.054.562a.7.7,0,0,0,.563.36,5.687,5.687,0,0,0,1.333.206,12.818,12.818,0,0,0,1.639-.1,13.375,13.375,0,0,1,1.641-.1,6.973,6.973,0,0,0,.819-.049,5.306,5.306,0,0,1,.617-.054" transform="translate(421.679 0)" fill="#00a4f2"/>
      <path id="パス_4296" data-name="パス 4296" d="M282.053,27.073a48.306,48.306,0,0,1,4.716-2.872,4.94,4.94,0,0,1,.974-.457c.311-.105.633-.222.976-.36.27-.273.408-.273.408,0q.308.3,0,.511a.723.723,0,0,1-.1.306,6.741,6.741,0,0,1-.46.617c-.17.206-.36.411-.565.617-.2.135-.408.292-.614.46s-.411.36-.617.565A13.611,13.611,0,0,1,286,27.587a4.614,4.614,0,0,1-.871.922,6.432,6.432,0,0,0-1.59,1.23,7.336,7.336,0,0,1-1.487,1.23l-1.23,1.025-3.28,2.155a10.022,10.022,0,0,1-5.232,1.23h-1.433a3.317,3.317,0,0,1-1.844-.819,5.612,5.612,0,0,1-.771-.925c-.17-.273-.357-.579-.565-.922a42.906,42.906,0,0,0-.205-.408,5.177,5.177,0,0,0,.26-1.233,9.807,9.807,0,0,1,.154-1.128,9.78,9.78,0,0,0,.2-2.666,1.437,1.437,0,0,1,.1-.614,9.439,9.439,0,0,0,1.436-1.847,21.273,21.273,0,0,0,1.128-2.152,2.741,2.741,0,0,1,.514-1.179A8.778,8.778,0,0,0,272,20.308a3.913,3.913,0,0,1,.462-.719,7.532,7.532,0,0,0,.46-.614,2.377,2.377,0,0,0,.822-.514,6.749,6.749,0,0,1,.717-.614,8.166,8.166,0,0,1,1.744-.822,2.174,2.174,0,0,1,1.844,0,1.185,1.185,0,0,1,.563.514,6.236,6.236,0,0,0,.36.614l1.541,2.563c-.138.07-.446.222-.925.462a4.606,4.606,0,0,1-2.666-.051l-.206.206a20.521,20.521,0,0,0-2.152,2.766c-.614.96-1.2,1.95-1.741,2.975-.276.687-.516,1.333-.719,1.95a8.874,8.874,0,0,0-.411,1.844c-.138.343-.1.581.1.719a1.1,1.1,0,0,0,.719.408,3.342,3.342,0,0,0,1.025-.2c.614-.273,1.23-.546,1.844-.822s1.265-.579,1.95-.919q.718-.515,1.487-.976c.511-.308,1.038-.63,1.59-.973l1.433-1.028v.1Z" transform="translate(455.831 28.667)" fill="#00a4f2"/>
      <path id="パス_4297" data-name="パス 4297" d="M290.629,21.6a2.9,2.9,0,0,1-.1.717q0,.823.925.822h1.025a9.521,9.521,0,0,1,2.2-.206,9.373,9.373,0,0,0,2.2-.206h1.436a.593.593,0,0,1,.205.411q.41.612-.1.925c-.068.2-.151.324-.257.354a1.041,1.041,0,0,0-.357.26c-.276.273-.479.408-.617.408a20.5,20.5,0,0,1-2.612.514,16.907,16.907,0,0,0-2.512.511,7.888,7.888,0,0,1-3.18.719,2.993,2.993,0,0,0-.357.206,2.787,2.787,0,0,1-.362.2,1.019,1.019,0,0,0-.257.36.636.636,0,0,1-.151.257,3.317,3.317,0,0,0-.414.668,1.317,1.317,0,0,1-.306.46,14.273,14.273,0,0,1-3.229,4.308q-2.1,1.947-3.845,3.283a4.07,4.07,0,0,1-2.052.817H277.2a1.613,1.613,0,0,1-.717-.2,3.421,3.421,0,0,1-1.844-1.028,4.644,4.644,0,0,1-.927-1.844.835.835,0,0,1-.1-.308,2.391,2.391,0,0,1,.1-1.536,1.939,1.939,0,0,1,.257-.514.83.83,0,0,0,.157-.514,7.131,7.131,0,0,0,.514-1.23c.27-.957.53-1.744.765-2.358s.565-1.4.976-2.358q.3-.718.614-1.433a13.246,13.246,0,0,1,.722-1.439,12.567,12.567,0,0,1,.868-1.333c.308-.408.635-.819.976-1.23.341-.546.646-1.06.919-1.536s.581-.99.922-1.541a1.572,1.572,0,0,1,1.13-.714,1.511,1.511,0,0,1,1.128-.414c.752-.133,1.606-.27,2.561-.408a2.5,2.5,0,0,1,2.258.617.888.888,0,0,0,.411.254.941.941,0,0,1,.408.257c.206.343.376.649.514.925s.308.581.511.922a6.154,6.154,0,0,1,.308.973,2.862,2.862,0,0,1,0,1.076Zm-5.946,4.3a.814.814,0,0,0-.1-.511,6.378,6.378,0,0,1-.822-1.23c-.2-.411-.408-.819-.614-1.23a1.15,1.15,0,0,0-.511-.411.779.779,0,0,0-1.028.206,16.062,16.062,0,0,0-1.022,1.641,28.365,28.365,0,0,0-1.744,3.691q-.617,1.639-1.23,3.9v.308a.59.59,0,0,0-.054.408.242.242,0,0,0,.257.206.372.372,0,0,0,.517,0,8.533,8.533,0,0,0,3.688-2.769,33.02,33.02,0,0,0,2.563-3.688,1.17,1.17,0,0,0,.1-.516m3.28-7.074a.59.59,0,0,0-.2-.408c-.276,0-.414.032-.414.1a4.619,4.619,0,0,0-1.741,2.972.481.481,0,0,0-.051.36,1.11,1.11,0,0,1,.051.36,1.827,1.827,0,0,0,.206.511.62.62,0,0,0,.922,0,4.267,4.267,0,0,0,.514-.614,3.307,3.307,0,0,0,.514-1.436c.065-.549.135-1.1.2-1.641Z" transform="translate(466.118 26.25)" fill="#00a4f2"/>
      <path id="パス_4298" data-name="パス 4298" d="M293.285,34.335q1.128-.718,2.309-1.436a14.619,14.619,0,0,0,2.2-1.641,19.645,19.645,0,0,1,2.718-1.693,25.429,25.429,0,0,0,2.82-1.69c.27-.135.562-.289.871-.462a8.674,8.674,0,0,1,.971-.46c.343-.135.652-.273.925-.411a8.053,8.053,0,0,1,1.025-.408c.273-.07.341.032.206.306a.67.67,0,0,1,0,.514,4.421,4.421,0,0,0-.206.511l-2.152,1.641c-.206.138-.427.292-.668.46s-.46.327-.665.462l-3.894,3.691q-1.233,1.132-2.515,2.255t-2.718,2.255a6.7,6.7,0,0,0-.974.719q-.462.414-.973.822c-.273.2-.53.408-.771.614a3.2,3.2,0,0,1-.562.411,2.136,2.136,0,0,1-2.255-.206l-.514-.411a9.5,9.5,0,0,1-.922-1.333,3.5,3.5,0,0,1,.1-1.847l.408-1.741c.341-.957.652-1.879.925-2.769A28.083,28.083,0,0,1,290,29.722l.922-2.563.206-1.025a.66.66,0,0,0-.408-.617,1.212,1.212,0,0,0-.516.1L287.75,28.08a8.109,8.109,0,0,1-1.387,1.282,4.518,4.518,0,0,1-1.585.768,4.889,4.889,0,0,1-.516.308,1.153,1.153,0,0,0-.408.411,2.838,2.838,0,0,1-1.436,1.128l-.717.306q-.925.414-1.333-.614a1.942,1.942,0,0,1-.208-1.539,13.926,13.926,0,0,0,.671-1.536c.17-.479.357-.96.562-1.436a13.339,13.339,0,0,0,.922-1.744,16.422,16.422,0,0,0,.719-1.95,4.636,4.636,0,0,1,.614-1.436c.206-.611.446-1.228.717-1.841a16.6,16.6,0,0,0,.719-1.95,8.667,8.667,0,0,1,.462-1.128c.168-.341.322-.684.462-1.028a.875.875,0,0,1,.919-.511h1.025a4.594,4.594,0,0,1,.668.051.784.784,0,0,1,.562.36,1.566,1.566,0,0,1,.719,1.639,2.367,2.367,0,0,1-.206.976,2.336,2.336,0,0,0-.2.973.4.4,0,0,0,.408.2,1.07,1.07,0,0,0,.511-.1,10.312,10.312,0,0,1,1.8-1.433A10.342,10.342,0,0,0,294,16.8a4.365,4.365,0,0,1,2.563-.719,2.018,2.018,0,0,1,1.639.617,3.7,3.7,0,0,0,.206.357.647.647,0,0,1,.105.36c.2.414.27.684.2.822a10.738,10.738,0,0,1-.411,1.333l-3.588,7.793-1.844,4.716a3.323,3.323,0,0,0-.308,2.05.271.271,0,0,0,.308.308h.205v.1Z" transform="translate(477.307 26.536)" fill="#00a4f2"/>
      <path id="パス_4299" data-name="パス 4299" d="M305.456,21.6a2.907,2.907,0,0,1-.1.717q0,.823.925.822H307.3a9.521,9.521,0,0,1,2.2-.206,9.374,9.374,0,0,0,2.2-.206h1.436a.593.593,0,0,1,.206.411q.41.612-.1.925c-.068.2-.151.324-.257.354a1.04,1.04,0,0,0-.357.26c-.276.273-.479.408-.617.408a20.456,20.456,0,0,1-2.615.514,16.94,16.94,0,0,0-2.509.511,7.888,7.888,0,0,1-3.18.719,3.271,3.271,0,0,0-.36.206,2.584,2.584,0,0,1-.36.2,1.019,1.019,0,0,0-.257.36.637.637,0,0,1-.151.257,3.318,3.318,0,0,0-.414.668,1.315,1.315,0,0,1-.306.46,14.273,14.273,0,0,1-3.229,4.308q-2.105,1.947-3.845,3.283a4.07,4.07,0,0,1-2.052.817h-.717a1.613,1.613,0,0,1-.717-.2,3.439,3.439,0,0,1-1.847-1.028,4.676,4.676,0,0,1-.925-1.844.835.835,0,0,1-.1-.308,2.391,2.391,0,0,1,.1-1.536,1.939,1.939,0,0,1,.257-.514.83.83,0,0,0,.157-.514,6.86,6.86,0,0,0,.511-1.23c.273-.957.533-1.744.768-2.358s.565-1.4.976-2.358q.3-.718.614-1.433a13.721,13.721,0,0,1,.719-1.439,13.015,13.015,0,0,1,.871-1.333q.463-.612.976-1.23c.341-.546.646-1.06.919-1.536s.581-.99.922-1.541a1.572,1.572,0,0,1,1.13-.714,1.511,1.511,0,0,1,1.128-.414c.752-.133,1.606-.27,2.561-.408a2.5,2.5,0,0,1,2.258.617.888.888,0,0,0,.411.254.941.941,0,0,1,.408.257c.205.343.376.649.514.925s.308.581.511.922a6.167,6.167,0,0,1,.308.973,2.865,2.865,0,0,1,0,1.076Zm-5.946,4.3a.814.814,0,0,0-.1-.511,6.378,6.378,0,0,1-.822-1.23c-.2-.411-.408-.819-.614-1.23a1.145,1.145,0,0,0-.514-.411.834.834,0,0,0-.511-.1.846.846,0,0,0-.514.308,16.051,16.051,0,0,0-1.022,1.641,28.358,28.358,0,0,0-1.744,3.691q-.617,1.639-1.23,3.9v.308a.59.59,0,0,0-.054.408.242.242,0,0,0,.257.206.372.372,0,0,0,.516,0,8.533,8.533,0,0,0,3.688-2.769,33.028,33.028,0,0,0,2.563-3.688,1.17,1.17,0,0,0,.1-.516m3.28-7.074a.59.59,0,0,0-.2-.408c-.276,0-.414.032-.414.1a4.619,4.619,0,0,0-1.741,2.972.481.481,0,0,0-.051.36,1.109,1.109,0,0,1,.051.36,1.741,1.741,0,0,0,.206.511.62.62,0,0,0,.922,0,4.271,4.271,0,0,0,.514-.614,3.307,3.307,0,0,0,.514-1.436c.065-.549.135-1.1.2-1.641Z" transform="translate(491.385 26.25)" fill="#00a4f2"/>
      <path id="パス_4300" data-name="パス 4300" d="M294.982,35.1a4.022,4.022,0,0,1,.719-2.152q.515-.819,1.025-1.847c.341-.681.681-1.3,1.025-1.844a7.017,7.017,0,0,1,.411-.871c.135-.241.306-.53.511-.873a4.155,4.155,0,0,1,.206-.717,8.852,8.852,0,0,1,.771-2.412,21.57,21.57,0,0,0,.973-2.409,2.133,2.133,0,0,1,.719-1.022.793.793,0,0,1,.817-.514,3.555,3.555,0,0,1,1.128-.206c.414-.138.684.035.822.511a2.441,2.441,0,0,1,.408,1.539v.514a.494.494,0,0,0,.36.46.663.663,0,0,0,.665-.049,2.205,2.205,0,0,1,.719-.411c.138-.138.308-.308.511-.514a2.913,2.913,0,0,1,.719-.514.712.712,0,0,1,.511-.2,1.94,1.94,0,0,0,.617-.1,6.162,6.162,0,0,1,1.333-.1,2.727,2.727,0,0,1,2.461,1.333,1.167,1.167,0,0,0,.1.514.632.632,0,0,0,.819.206,2.939,2.939,0,0,0,.411-.257,2.967,2.967,0,0,1,.411-.26l1.536-1.536a9.9,9.9,0,0,0,1.079-1.025c.308-.341.63-.684.973-1.028a1.823,1.823,0,0,1,.565-.665q.357-.251.665-.462c.546-.341,1.092-.7,1.639-1.074s1.1-.771,1.641-1.182a3.4,3.4,0,0,1,2.563-.408,1.611,1.611,0,0,1,1.23.922v.511a17.812,17.812,0,0,1-.462,1.847,9.308,9.308,0,0,1-.768,1.741q-.921,1.951-1.741,3.9a38.677,38.677,0,0,1-1.847,3.794q-.515,1.33-1.074,2.664c-.379.89-.773,1.782-1.182,2.669-.343.684-.649,1.355-.922,2.015s-.584,1.374-.925,2.142a1.537,1.537,0,0,1-.049.314,1.6,1.6,0,0,0-.054.419c0,.276.07.414.208.414.065.135.168.135.306,0a1.8,1.8,0,0,0,.717-.311c.755-.546,1.487-1.09,2.207-1.639a20.889,20.889,0,0,0,2.1-1.847.833.833,0,0,1,.206-.151.574.574,0,0,0,.206-.257,9.434,9.434,0,0,1,1.741-1.384,9.136,9.136,0,0,0,1.744-1.387,19.3,19.3,0,0,1,1.744-1.536c.617-.479,1.2-.955,1.744-1.436a6.335,6.335,0,0,0,1.128-.717,3.416,3.416,0,0,1,1.23-.614h.2c.273.135.343.27.206.408a.769.769,0,0,1-.049.306c-.038.073-.089.173-.157.311a1.781,1.781,0,0,1-.408,1.128,13.2,13.2,0,0,1-1.847,2.05,23.345,23.345,0,0,0-1.847,1.847,7.323,7.323,0,0,0-1.484,1.228,13.961,13.961,0,0,1-1.282,1.23q-1.233,1.233-2.412,2.371c-.787.757-1.587,1.552-2.407,2.374a16.01,16.01,0,0,1-3.18,2.975,3.02,3.02,0,0,1-1.076.565,11.065,11.065,0,0,1-1.179.254,2.053,2.053,0,0,1-1.641-.717,3.575,3.575,0,0,1-1.128-4,9.488,9.488,0,0,1,.922-2.2c.341-.7.684-1.379,1.025-2.039s.684-1.366,1.028-2.117c.341-.617.665-1.247.973-1.9s.633-1.279.974-1.9c.138-.341.273-.665.411-.973a4.588,4.588,0,0,0,.305-.973c.341-.752.652-1.487.925-2.207s.579-1.449.922-2.2a2.291,2.291,0,0,0,.408-.822,1.732,1.732,0,0,0,.1-.719c0-.132-.087-.235-.254-.306a.551.551,0,0,0-.462,0,.6.6,0,0,0-.408.2c-.343.276-.635.514-.874.719s-.495.446-.768.719a42.288,42.288,0,0,0-3.331,3.277q-1.594,1.748-3.129,3.488c-.343.479-.7.941-1.076,1.384s-.736.871-1.076,1.282c-.273.343-.533.668-.771.973s-.495.635-.768.976a4.591,4.591,0,0,1-1.23,1.349,1.722,1.722,0,0,1-2.255,0,3.979,3.979,0,0,1-.822-.887,4.586,4.586,0,0,1-.511-1.079c0-.273.035-.408.1-.408a10.52,10.52,0,0,0,.36-1.079,6.512,6.512,0,0,1,.46-1.179,7.119,7.119,0,0,0,.411-1.744.339.339,0,0,0-.157-.306c-.1-.07-.187-.07-.254,0a1.237,1.237,0,0,0-1.23.614,9.221,9.221,0,0,0-.922,1.076,5.789,5.789,0,0,0-.719,1.387c-.273.408-.53.817-.768,1.23a11.516,11.516,0,0,0-.665,1.33,7.739,7.739,0,0,1-1.436,1.988.8.8,0,0,1-.665.471,1.5,1.5,0,0,1-.873-.157,1,1,0,0,1-.922-.525,2.151,2.151,0,0,1-.617-1.571" transform="translate(502.678 26.283)" fill="#00a4f2"/>
      <path id="パス_4301" data-name="パス 4301" d="M307.645,35.607c.135-.414.235-.736.3-.976a1.312,1.312,0,0,1,.306-.565A18.219,18.219,0,0,1,310.66,29.3a26.269,26.269,0,0,0,2.318-3.845,4.071,4.071,0,0,0,.308-.822,7.313,7.313,0,0,1,.306-.922c.138-.343.292-.684.462-1.028a2.28,2.28,0,0,1,.665-.819.97.97,0,0,1,.514-.614,7.058,7.058,0,0,1,.822-.206h.305a1.787,1.787,0,0,1,1.844,1.23c.208.206.241.546.105,1.025a4.791,4.791,0,0,1-.617,1.028c-.617.955-1.214,1.812-1.793,2.561a13.955,13.955,0,0,0-1.59,2.666q-.515.819-1.125,2.05t-1.014,2.052a2.958,2.958,0,0,0-.454,1.025,4.761,4.761,0,0,0-.252,1.128c-.068.138.035.241.306.308a2.691,2.691,0,0,0,.6.1,10.242,10.242,0,0,0,2.3-.614q1.383-.515,2.972-1.182c1.06-.443,2.134-.955,3.231-1.536s2.153-1.182,3.177-1.8c.614-.273,1.16-.549,1.641-.819a4.244,4.244,0,0,1,1.639-.516c.138.073.208.241.208.516v.306a2.834,2.834,0,0,1-.822.871q-.515.361-1.025.771-1.128.921-2.923,2.152t-3.691,2.409q-1.9,1.18-3.694,2.155a23.234,23.234,0,0,1-2.91,1.384,3.61,3.61,0,0,1-2.415.2l-.909-.306a2.784,2.784,0,0,1-1.609-2.052c-.135-.2-.168-.341-.1-.411s.068-.206,0-.408a5.7,5.7,0,0,1,.1-1.23.9.9,0,0,1,.1-.408c.07-.138.07-.173,0-.1m8.921-17.742a1.045,1.045,0,0,0,.1-.46,1.038,1.038,0,0,1,.1-.462,6.791,6.791,0,0,1,.514-1.436q.3-.612.614-1.23a.766.766,0,0,1,.257-.306,2.469,2.469,0,0,0,.36-.311,2.705,2.705,0,0,1,2.869.617c.617.614.719,1.165.308,1.641a6.3,6.3,0,0,1-1.539,2.255A3.571,3.571,0,0,1,317.9,19.3a.745.745,0,0,1-.308-.049.447.447,0,0,0-.2-.054c-.481-.135-.719-.376-.719-.717a2.046,2.046,0,0,0-.1-.617" transform="translate(523.852 23.009)" fill="#00a4f2"/>
      <path id="パス_4302" data-name="パス 4302" d="M318.767,36.485a4.7,4.7,0,0,1-1.844-.306l-.411-.208a3.664,3.664,0,0,0-.614-.2,1.19,1.19,0,0,1-.306-.206,1.234,1.234,0,0,0-.311-.206c-.341-.341-.665-.646-.973-.922a3.385,3.385,0,0,1-.768-1.025,2.408,2.408,0,0,1,0-1.95,15.838,15.838,0,0,1,.511-1.639c.205-.546.414-1.13.617-1.747.068-.2.151-.443.254-.714a3.8,3.8,0,0,1,.36-.719,8.613,8.613,0,0,0,.822-2.255,2.67,2.67,0,0,1,.819-1.641,6.56,6.56,0,0,1,1.947-2.561c.414-.414.8-.822,1.182-1.233a11.825,11.825,0,0,1,1.179-1.128,6.558,6.558,0,0,0,.717-.411c.411-.135.8-.257,1.182-.36s.833-.219,1.382-.357a1.025,1.025,0,0,1,.46-.1h.462a1.9,1.9,0,0,1,1.128.514A14.365,14.365,0,0,1,328,18.541a7.114,7.114,0,0,1,.719,1.436,1.79,1.79,0,0,1-.206,1.641,12.166,12.166,0,0,1-1.436,1.59c-.549.511-1.1,1.009-1.641,1.487q-1.026.823-2.05,1.69t-2.152,1.69a2.29,2.29,0,0,1-1.641.414,1.42,1.42,0,0,0-.614.1,2.1,2.1,0,0,0-.822.614,3.165,3.165,0,0,0-.411,1.233A4.478,4.478,0,0,0,317.437,33a2.549,2.549,0,0,1,.306.36,1.551,1.551,0,0,0,.411.357,3.145,3.145,0,0,0,1.333.105,9.355,9.355,0,0,0,2.461-.719,20.867,20.867,0,0,0,2.615-1.128q1.176-.612,2.412-1.333c.887-.546,1.758-1.079,2.612-1.59s1.725-1.041,2.615-1.59a3.285,3.285,0,0,1,.922-.2.55.55,0,0,1,.668.049c.238.173.322.324.257.462a4.8,4.8,0,0,1-1.541,2.563,17.413,17.413,0,0,0-2.2,1.436q-1.079.823-2,1.641c-.546.341-1.111.7-1.69,1.076a7.343,7.343,0,0,1-1.9.871q-.718.308-1.487.565a5.016,5.016,0,0,1-1.587.257,11.065,11.065,0,0,1-1.436.306,5.128,5.128,0,0,1-1.439,0M325.23,20.7a.549.549,0,0,1-.206-.36c0-.1-.035-.151-.1-.151h-.617a2.262,2.262,0,0,1-.408.511q-1.026,1.026-2,2.152a10.268,10.268,0,0,0-1.59,2.461c0,.276.032.408.1.408h.306c.341-.341.684-.665,1.025-.971s.684-.633,1.028-.973a4.664,4.664,0,0,0,1.33-1.23,16.714,16.714,0,0,0,.925-1.439.584.584,0,0,0,.206-.408" transform="translate(533.954 28.279)" fill="#00a4f2"/>
      <path id="パス_4303" data-name="パス 4303" d="M331.69,28.966a10.656,10.656,0,0,0-1.747.157,9.845,9.845,0,0,1-1.536.151,5.505,5.505,0,0,1-1.536-.206,8.893,8.893,0,0,1-1.541-.614,4.542,4.542,0,0,1-2.561-3.437,7.476,7.476,0,0,1,.922-4.559,6.5,6.5,0,0,1,2.152-2,21.034,21.034,0,0,1,6.92-2.766,11.346,11.346,0,0,1,3.029-.257,1.578,1.578,0,0,1,1.433.922.947.947,0,0,1-.1.973.913.913,0,0,1-.717.36,11.6,11.6,0,0,0-2.307.565,20.768,20.768,0,0,0-5.23,2.615,7.763,7.763,0,0,0-1.8,1.639,2.278,2.278,0,0,0-.408,1.641,1.514,1.514,0,0,0,.614,1.23h3.588a9.482,9.482,0,0,1,3.54.822,5.125,5.125,0,0,1,2.715,2.15,4.11,4.11,0,0,1,0,3.131,15.743,15.743,0,0,1-2,3.791,33.069,33.069,0,0,1-3.231,3.948,29.738,29.738,0,0,1-3.845,3.434,32.547,32.547,0,0,1-3.791,2.463,6.591,6.591,0,0,1-2.923.973,4.3,4.3,0,0,1-1.641-.257c-.411-.17-.546-.392-.411-.668q2.361-1.639,4.051-2.718a25.319,25.319,0,0,0,3.742-3.023c.479-.546,1.214-1.4,2.2-2.563a28.416,28.416,0,0,0,2.566-3.486,9.579,9.579,0,0,0,1.333-3.077q.251-1.33-1.487-1.333" transform="translate(544 26.263)" fill="#00a4f2"/>
    </g>
  </g>
</svg>
