<svg xmlns="http://www.w3.org/2000/svg" xmlns:xlink="http://www.w3.org/1999/xlink" width="835.196" height="538.563" viewBox="0 0 835.196 538.563">
  <defs>
    <clipPath id="clip-path">
      <rect id="長方形_8470" data-name="長方形 8470" width="823.504" height="210.232" fill="none"/>
    </clipPath>
    <clipPath id="clip-path-3">
      <rect id="長方形_8467" data-name="長方形 8467" width="446.622" height="178.425" fill="none"/>
    </clipPath>
  </defs>
  <g id="reception_" data-name="reception " transform="translate(88.848) rotate(25)">
    <g id="グループ_7639" data-name="グループ 7639" clip-path="url(#clip-path)">
      <g id="グループ_7636" data-name="グループ 7636">
        <g id="グループ_7635" data-name="グループ 7635" clip-path="url(#clip-path)">
          <g id="グループ_7634" data-name="グループ 7634" transform="translate(376.255 31.807)" opacity="0.4">
            <g id="グループ_7633" data-name="グループ 7633">
              <g id="グループ_7632" data-name="グループ 7632" clip-path="url(#clip-path-3)">
                <path id="パス_1749" data-name="パス 1749" d="M682.99,118.242l13.147-59.329.124-.2-.2.1-50.583-7.273,0-.1-.091.073-.027-.012L599.055,22.992,599,22.8l-.061.2L554.1,64.285,508.226,90.8,460.5,54.031l-.009-.316-.109.1-.077.07-.267-.206.2.268L423.072,86.787l-.015-.01-.106-.07,0,.186-28.7,25.364L363.313,78.195l-.022-.028L319.028,83.5,308.36,62.708h.012l-.045-.069-.121-.171-.138.058-.13.113-.127.176L271.437,83.241l-.165.118L254.5,123.583l-.32.2.069.113.159-.1-.016.042-.153.372.279-.316,30.693-2.52,3.642,31.017.006.052,24.29,2.425,1.515,41.656.006.14,32.562-28.232,23.505,19.138.034.079,52.88-57.416.255-.112,39.146,23.392.03.022,40.588-18.79,15.7,52.4.07-.234,47.105-62.863L608.526,138l.03.061.192.38-.06-.386,31.53,10.481.13.173.414.408-.351-.617,42.3-30.121.118.392.066-.407.067.016,0-.016.231,0Zm-40.457-9.617-.063.027,1.221-23.212L682.5,118.084l-39.952-9.416Zm-54.941-12.9-29.26-1.814,21.8-24.81,34.193,6.176Zm-41.5-2.571,8.169-28.727,25.712,4.645L558.161,93.906Zm11.955.877L540,114.571l6.053-21.278Zm56.411-18.86h-.01l-5.433-18.417,36.115-5.044ZM645.313,51.76l-1.757,33.475-28.928-10Zm-1.766,33.615-1.2,22.842L614.6,75.368Zm.154-.1,1.747-33.147.143-.043L659.684,77.2ZM608.973,56.611l-9.861-33.427,46.076,28.369Zm-.135.021-20.369,2.843L599,23.275Zm.042.141L614.3,75.138l-34.065-6.154,8.168-9.3.01-.01.013-.045Zm-28.8,12.183-25.477-4.6,33.652-4.7Zm-34.13,24.193-37.5-2.322,45.665-26.394Zm-.039.133-6.129,21.547-.094.106.051.046-.213-.071L508.436,90.961Zm-6.075,21.888,3.363,1.119-4.231,1.956Zm.042-.141.045-.153,18.3-20.832,29.123,1.805-43.948,20.343Zm47.755-19.116,17.1,17.108-.036.006,3.79,24.6L587.509,96.074Zm.226.021,53.045,12.5L604.916,113Zm-.068-.168L614.436,75.38l27.774,32.886-.9.113Zm54.551,12.621-.015.234-.64-.15ZM659.751,77.32l22.8,40.63L643.817,85.37Zm.128-.067,36.008-18.2L671.5,97.949Zm-.064-.119-14.241-25.37-.036-.074,50.313,7.234ZM588.323,59.5l-33.977,4.745,44.521-40.993Zm-49.189,55.283L493.345,99.555l14.868-8.594ZM508.1,90.872l-14.822,8.567-32.592-45.09Zm-14.935,8.637-.015.025L462.063,113.19l-1.556-58.864ZM460.31,54.058l.055.074,1.559,59.034-38.737-26.3Zm1.4,59.122-38.183-.459-.435-25.76ZM422.957,87.07l.432,25.651-28.874-.344-.116-.069ZM370.78,187.35c-.48-1.047-3.445-7.512-6.424-13.985-5.341-11.6-6.334-13.711-6.553-14.1l.083-.074-.113-.01.012-.012L385.038,147.2Zm-37.69-30.629-21.03-37.553,45.62,39.982.01.025Zm24.472,2.577-10.335,8.96-13.987-11.386Zm-21.252-42.119h.024l36.579,22.413-15.16,19.378Zm10.436-22.839,12.652,20.8-23.051,1.893-.086-.052-.077-.036-5.671-11.054Zm-16.3,11.426L319.156,83.753l27.471,10.51Zm63.7,6.678-21.156,27.039-36.434-22.322,57.571-4.724Zm-58.177,4.4-12.77-5.761,7.188-5.113Zm.1.192.006.01-23.965,1.972-.028-.027,10.991-7.819Zm.074.156L357.5,158.79l-45.229-39.635Zm36.891,22.474,12.01,7.356-27.071,11.894Zm.083-.109,21.106-26.983-9.1,34.339Zm-13.648-24.431.058-.036-12.6-20.717,46.879,17.935ZM319.18,83.619l43.893-5.29-16.32,15.838Zm-.232.055,11.385,22.178-7.271,5.17-27.9-12.585,23.748-14.779Zm3.987,27.437L311.979,118.9l-.133-.116-.013-.027v.015l-20.491-17.962,3.682-2.292Zm-31.7-10.39-9.185-8.051,12.825,5.785Zm-.131.08-7.62,4.741-1.494-12.727Zm.1.092,20.629,18.079v.042l-.018.027-26.5,2.177L283.5,105.691ZM332.928,156.7l-19.651-1.96-1.291-35.432Zm61.457-44.194.064,0,29.232,17.47V130l-.086.094-38.332,16.842Zm.359,0,28.646.343.286,16.956Zm-.649-.237-47.2-18.057,16.368-15.885ZM308.23,62.787l10.641,20.736L295.015,98.369l-12.934-5.835Zm-.325.152L281.937,92.469l-.021-.006-.107-.051.006.045L271.47,83.392ZM271.37,83.5l10.424,9.136-27.075,30.8Zm10.482,9.291,1.509,12.829-28.214,17.557Zm-27.2,30.946.185-.21,28.539-17.761,1.816,15.461Zm30.691-2.377,26.371-2.166-22.753,33Zm3.694,30.964,22.811-33.086,1.291,35.49Zm24.242,2.554,19.7,1.964-18.193,39.392Zm1.641,41.385,18.172-39.34,14.03,11.422Zm42.785-36.917c.731,1.415,11.633,25.184,12.9,27.946l-23.273-18.949Zm13.255,27.891,14.246-40.114h.006v-.009l38.125-16.749Zm52.85-57.345-.286-17.037,38.253.457L423.91,129.953Zm39.178,23.413-38.923-23.265,37.87-16.633Zm-.923-39.959.066-.028h.021l-.009-.006,30.889-13.57-29.906,53.487Zm1.192,39.943,29.924-53.516L503.623,134.6ZM493.314,99.7,539.5,115.059l.153.121.04-.054-.91,3.2-35.027,16.216Zm26.058,86.913L503.8,134.686l34.939-16.173Zm.174-.1,19.36-68.084,4.489-2.076,23,7.639Zm46.948-62.644-22.9-7.608,43.8-20.275-.06.028.015.031Zm.143.049L587.418,96.2l21.015,41.623ZM608.665,137.9l-3.816-24.756h0l35.173,35.183Zm31.57,10.423-35.2-35.2,36.237-4.6,1.041.243Zm.15.024,2.073-39.531,11.414,29.9.063-.022Zm13.607-9.691-11.379-29.815,40.012,9.428Zm17.58-40.569,24.351-38.831L682.877,118.13l0-.052-.06.04Z" transform="translate(-251.87 -20.652)" fill="#fff"/>
                <path id="パス_1750" data-name="パス 1750" d="M682.99,118.242l13.147-59.329.124-.2-.2.1-50.583-7.273,0-.1-.091.073-.027-.012L599.055,22.992,599,22.8l-.061.2L554.1,64.285,508.226,90.8,460.5,54.031l-.009-.316-.109.1-.077.07-.267-.206.2.268L423.072,86.787l-.015-.01-.106-.07,0,.186-28.7,25.364L363.313,78.195l-.022-.028L319.028,83.5,308.36,62.708h.012l-.045-.069-.121-.171-.138.058-.13.113-.127.176L271.437,83.241l-.165.118L254.5,123.583l-.32.2.069.113.159-.1-.016.042-.153.372.279-.316,30.693-2.52,3.642,31.017.006.052,24.29,2.425,1.515,41.656.006.14,32.562-28.232,23.505,19.138.034.079,52.88-57.416.255-.112,39.146,23.392.03.022,40.588-18.79,15.7,52.4.07-.234,47.105-62.863L608.526,138l.03.061.192.38-.06-.386,31.53,10.481.13.173.414.408-.351-.617,42.3-30.121.118.392.066-.407.067.016,0-.016.231,0Zm-40.457-9.617-.063.027,1.221-23.212L682.5,118.084l-39.952-9.416Zm-54.941-12.9-29.26-1.814,21.8-24.81,34.193,6.176Zm-41.5-2.571,8.169-28.727,25.712,4.645L558.161,93.906Zm11.955.877L540,114.571l6.053-21.278Zm56.411-18.86h-.01l-5.433-18.417,36.115-5.044ZM645.313,51.76l-1.757,33.475-28.928-10Zm-1.766,33.615-1.2,22.842L614.6,75.368Zm.154-.1,1.747-33.147.143-.043L659.684,77.2ZM608.973,56.611l-9.861-33.427,46.076,28.369Zm-.135.021-20.369,2.843L599,23.275Zm.042.141L614.3,75.138l-34.065-6.154,8.168-9.3.01-.01.013-.045Zm-28.8,12.183-25.477-4.6,33.652-4.7Zm-34.13,24.193-37.5-2.322,45.665-26.394Zm-.039.133-6.129,21.547-.094.106.051.046-.213-.071L508.436,90.961Zm-6.075,21.888,3.363,1.119-4.231,1.956Zm.042-.141.045-.153,18.3-20.832,29.123,1.805-43.948,20.343Zm47.755-19.116,17.1,17.108-.036.006,3.79,24.6L587.509,96.074Zm.226.021,53.045,12.5L604.916,113Zm-.068-.168L614.436,75.38l27.774,32.886-.9.113Zm54.551,12.621-.015.234-.64-.15ZM659.751,77.32l22.8,40.63L643.817,85.37Zm.128-.067,36.008-18.2L671.5,97.949Zm-.064-.119-14.241-25.37-.036-.074,50.313,7.234ZM588.323,59.5l-33.977,4.745,44.521-40.993Zm-49.189,55.283L493.345,99.555l14.868-8.594ZM508.1,90.872l-14.822,8.567-32.592-45.09Zm-14.935,8.637-.015.025L462.063,113.19l-1.556-58.864ZM460.31,54.058l.055.074,1.559,59.034-38.737-26.3Zm1.4,59.122-38.183-.459-.435-25.76ZM422.957,87.07l.432,25.651-28.874-.344-.116-.069ZM370.78,187.35c-.48-1.047-3.445-7.512-6.424-13.985-5.341-11.6-6.334-13.711-6.553-14.1l.083-.074-.113-.01.012-.012L385.038,147.2Zm-37.69-30.629-21.03-37.553,45.62,39.982.01.025Zm24.472,2.577-10.335,8.96-13.987-11.386Zm-21.252-42.119h.024l36.579,22.413-15.16,19.378Zm10.436-22.839,12.652,20.8-23.051,1.893-.086-.052-.077-.036-5.671-11.054Zm-16.3,11.426L319.156,83.753l27.471,10.51Zm63.7,6.678-21.156,27.039-36.434-22.322,57.571-4.724Zm-58.177,4.4-12.77-5.761,7.188-5.113Zm.1.192.006.01-23.965,1.972-.028-.027,10.991-7.819Zm.074.156L357.5,158.79l-45.229-39.635Zm36.891,22.474,12.01,7.356-27.071,11.894Zm.083-.109,21.106-26.983-9.1,34.339Zm-13.648-24.431.058-.036-12.6-20.717,46.879,17.935ZM319.18,83.619l43.893-5.29-16.32,15.838Zm-.232.055,11.385,22.178-7.271,5.17-27.9-12.585,23.748-14.779Zm3.987,27.437L311.979,118.9l-.133-.116-.013-.027v.015l-20.491-17.962,3.682-2.292Zm-31.7-10.39-9.185-8.051,12.825,5.785Zm-.131.08-7.62,4.741-1.494-12.727Zm.1.092,20.629,18.079v.042l-.018.027-26.5,2.177L283.5,105.691ZM332.928,156.7l-19.651-1.96-1.291-35.432Zm61.457-44.194.064,0,29.232,17.47V130l-.086.094-38.332,16.842Zm.359,0,28.646.343.286,16.956Zm-.649-.237-47.2-18.057,16.368-15.885ZM308.23,62.787l10.641,20.736L295.015,98.369l-12.934-5.835Zm-.325.152L281.937,92.469l-.021-.006-.107-.051.006.045L271.47,83.392ZM271.37,83.5l10.424,9.136-27.075,30.8Zm10.482,9.291,1.509,12.829-28.214,17.557Zm-27.2,30.946.185-.21,28.539-17.761,1.816,15.461Zm30.691-2.377,26.371-2.166-22.753,33Zm3.694,30.964,22.811-33.086,1.291,35.49Zm24.242,2.554,19.7,1.964-18.193,39.392Zm1.641,41.385,18.172-39.34,14.03,11.422Zm42.785-36.917c.731,1.415,11.633,25.184,12.9,27.946l-23.273-18.949Zm13.255,27.891,14.246-40.114h.006v-.009l38.125-16.749Zm52.85-57.345-.286-17.037,38.253.457L423.91,129.953Zm39.178,23.413-38.923-23.265,37.87-16.633Zm-.923-39.959.066-.028h.021l-.009-.006,30.889-13.57-29.906,53.487Zm1.192,39.943,29.924-53.516L503.623,134.6ZM493.314,99.7,539.5,115.059l.153.121.04-.054-.91,3.2-35.027,16.216Zm26.058,86.913L503.8,134.686l34.939-16.173Zm.174-.1,19.36-68.084,4.489-2.076,23,7.639Zm46.948-62.644-22.9-7.608,43.8-20.275-.06.028.015.031Zm.143.049L587.418,96.2l21.015,41.623ZM608.665,137.9l-3.816-24.756h0l35.173,35.183Zm31.57,10.423-35.2-35.2,36.237-4.6,1.041.243Zm.15.024,2.073-39.531,11.414,29.9.063-.022Zm13.607-9.691-11.379-29.815,40.012,9.428Zm17.58-40.569,24.351-38.831L682.877,118.13l0-.052-.06.04Z" transform="translate(-251.87 -20.652)" fill="none" stroke="#fff" stroke-miterlimit="10" stroke-width="0.151"/>
                <path id="パス_1751" data-name="パス 1751" d="M541.1,86.049a2.234,2.234,0,1,1,.045,3.163,2.231,2.231,0,0,1-.045-3.163" transform="translate(-111.775 9.971)" fill="#fff"/>
                <path id="パス_1752" data-name="パス 1752" d="M541.1,86.049a2.234,2.234,0,1,1,.045,3.163A2.231,2.231,0,0,1,541.1,86.049Z" transform="translate(-111.775 9.971)" fill="none" stroke="#fff" stroke-miterlimit="10" stroke-width="1"/>
                <path id="パス_1753" data-name="パス 1753" d="M515.989,41.312a2.235,2.235,0,1,1,.04,3.168,2.233,2.233,0,0,1-.04-3.168" transform="translate(-124.062 -11.921)" fill="#fff"/>
                <path id="パス_1754" data-name="パス 1754" d="M515.989,41.312a2.235,2.235,0,1,1,.04,3.168A2.233,2.233,0,0,1,515.989,41.312Z" transform="translate(-124.062 -11.921)" fill="none" stroke="#fff" stroke-miterlimit="10" stroke-width="1"/>
                <path id="パス_1755" data-name="パス 1755" d="M525.783,58.672a1.966,1.966,0,1,1,.034,2.785,1.962,1.962,0,0,1-.034-2.785" transform="translate(-119.232 -3.386)" fill="#fff"/>
                <path id="パス_1756" data-name="パス 1756" d="M525.783,58.672a1.966,1.966,0,1,1,.034,2.785A1.962,1.962,0,0,1,525.783,58.672Z" transform="translate(-119.232 -3.386)" fill="none" stroke="#fff" stroke-miterlimit="10" stroke-width="1"/>
                <path id="パス_1757" data-name="パス 1757" d="M491.629,44.849a1.966,1.966,0,1,1,.036,2.785,1.963,1.963,0,0,1-.036-2.785" transform="translate(-135.945 -10.151)" fill="#fff"/>
                <path id="パス_1758" data-name="パス 1758" d="M491.629,44.849a1.966,1.966,0,1,1,.036,2.785A1.963,1.963,0,0,1,491.629,44.849Z" transform="translate(-135.945 -10.151)" fill="none" stroke="#fff" stroke-miterlimit="10" stroke-width="1"/>
                <path id="パス_1759" data-name="パス 1759" d="M454.762,49.862a2.236,2.236,0,1,1,.049,3.157,2.235,2.235,0,0,1-.049-3.157" transform="translate(-154.022 -7.737)" fill="#fff"/>
                <path id="パス_1760" data-name="パス 1760" d="M454.762,49.862a2.236,2.236,0,1,1,.049,3.157A2.235,2.235,0,0,1,454.762,49.862Z" transform="translate(-154.022 -7.737)" fill="none" stroke="#fff" stroke-miterlimit="10" stroke-width="1"/>
                <path id="パス_1761" data-name="パス 1761" d="M431.365,132.145a2.235,2.235,0,1,1,.04,3.162,2.238,2.238,0,0,1-.04-3.162" transform="translate(-165.471 32.527)" fill="#fff"/>
                <path id="パス_1762" data-name="パス 1762" d="M431.365,132.145a2.235,2.235,0,1,1,.04,3.162A2.238,2.238,0,0,1,431.365,132.145Z" transform="translate(-165.471 32.527)" fill="none" stroke="#fff" stroke-miterlimit="10" stroke-width="1"/>
                <path id="パス_1763" data-name="パス 1763" d="M264.836,62.64a2.238,2.238,0,1,1-.6,1.939,2.228,2.228,0,0,1,.6-1.939" transform="translate(-246.966 -1.48)" fill="#fff"/>
                <path id="パス_1764" data-name="パス 1764" d="M264.836,62.64a2.238,2.238,0,1,1-.6,1.939A2.228,2.228,0,0,1,264.836,62.64Z" transform="translate(-246.966 -1.48)" fill="none" stroke="#fff" stroke-miterlimit="10" stroke-width="1"/>
                <path id="パス_1765" data-name="パス 1765" d="M322.844,113.5a2.265,2.265,0,0,1,1.23-.649,2.24,2.24,0,0,1,1.973,3.77,2.186,2.186,0,0,1-1.23.64,2.224,2.224,0,0,1-2.572-1.827,2.194,2.194,0,0,1,.6-1.933" transform="translate(-218.578 23.401)" fill="#fff"/>
                <path id="パス_1766" data-name="パス 1766" d="M322.844,113.5a2.265,2.265,0,0,1,1.23-.649,2.24,2.24,0,0,1,1.973,3.77,2.186,2.186,0,0,1-1.23.64,2.224,2.224,0,0,1-2.572-1.827A2.194,2.194,0,0,1,322.844,113.5Z" transform="translate(-218.578 23.401)" fill="none" stroke="#fff" stroke-miterlimit="10" stroke-width="1"/>
                <path id="パス_1767" data-name="パス 1767" d="M413.8,73.534a2.236,2.236,0,0,1,3.207,3.117,2.181,2.181,0,0,1-1.235.645,2.209,2.209,0,0,1-1.664-.38,2.271,2.271,0,0,1-.913-1.451,2.223,2.223,0,0,1,.6-1.932" transform="translate(-174.07 3.845)" fill="#fff"/>
                <path id="パス_1768" data-name="パス 1768" d="M413.8,73.534a2.236,2.236,0,0,1,3.207,3.117,2.181,2.181,0,0,1-1.235.645,2.209,2.209,0,0,1-1.664-.38,2.271,2.271,0,0,1-.913-1.451A2.223,2.223,0,0,1,413.8,73.534Z" transform="translate(-174.07 3.845)" fill="none" stroke="#fff" stroke-miterlimit="10" stroke-width="1"/>
                <path id="パス_1769" data-name="パス 1769" d="M424.131,67.9a1.579,1.579,0,0,1,.873-.459,1.564,1.564,0,0,1,1.19.273,1.593,1.593,0,0,1,.222,2.41,1.606,1.606,0,0,1-.88.463,1.584,1.584,0,0,1-1.185-.276,1.617,1.617,0,0,1-.651-1.034,1.582,1.582,0,0,1,.432-1.378" transform="translate(-168.926 1.184)" fill="#fff"/>
                <path id="パス_1770" data-name="パス 1770" d="M424.131,67.9a1.579,1.579,0,0,1,.873-.459,1.564,1.564,0,0,1,1.19.273,1.593,1.593,0,0,1,.222,2.41,1.606,1.606,0,0,1-.88.463,1.584,1.584,0,0,1-1.185-.276,1.617,1.617,0,0,1-.651-1.034A1.582,1.582,0,0,1,424.131,67.9Z" transform="translate(-168.926 1.184)" fill="none" stroke="#fff" stroke-miterlimit="10" stroke-width="1"/>
                <path id="パス_1771" data-name="パス 1771" d="M512.552,106.357a2.214,2.214,0,0,1,1.254-.657,2.266,2.266,0,0,1,1.993,3.82,2.239,2.239,0,0,1-1.238.648,2.26,2.26,0,0,1-2.62-1.859,2.237,2.237,0,0,1,.611-1.953" transform="translate(-125.748 19.903)" fill="#fff"/>
                <path id="パス_1772" data-name="パス 1772" d="M512.552,106.357a2.214,2.214,0,0,1,1.254-.657,2.266,2.266,0,0,1,1.993,3.82,2.239,2.239,0,0,1-1.238.648,2.26,2.26,0,0,1-2.62-1.859A2.237,2.237,0,0,1,512.552,106.357Z" transform="translate(-125.748 19.903)" fill="none" stroke="#fff" stroke-miterlimit="10" stroke-width="1"/>
                <path id="パス_1773" data-name="パス 1773" d="M289.844,48.952a1.679,1.679,0,0,1,.906-.478,1.652,1.652,0,0,1,1.9,1.355,1.6,1.6,0,0,1-.444,1.422,1.574,1.574,0,0,1-.906.474,1.647,1.647,0,0,1-1.452-2.773" transform="translate(-234.646 -8.096)" fill="#fff"/>
                <path id="パス_1774" data-name="パス 1774" d="M289.844,48.952a1.679,1.679,0,0,1,.906-.478,1.652,1.652,0,0,1,1.9,1.355,1.6,1.6,0,0,1-.444,1.422,1.574,1.574,0,0,1-.906.474,1.647,1.647,0,0,1-1.452-2.773Z" transform="translate(-234.646 -8.096)" fill="none" stroke="#fff" stroke-miterlimit="10" stroke-width="1"/>
                <path id="パス_1775" data-name="パス 1775" d="M297.081,63a1.641,1.641,0,0,1,2.8.87,1.646,1.646,0,0,1-2.578,1.614A1.633,1.633,0,0,1,297.081,63" transform="translate(-231.106 -1.222)" fill="#fff"/>
                <path id="パス_1776" data-name="パス 1776" d="M297.081,63a1.641,1.641,0,0,1,2.8.87,1.646,1.646,0,0,1-2.578,1.614A1.633,1.633,0,0,1,297.081,63Z" transform="translate(-231.106 -1.222)" fill="none" stroke="#fff" stroke-miterlimit="10" stroke-width="1"/>
                <path id="パス_1777" data-name="パス 1777" d="M272.112,69.055a1.644,1.644,0,0,1,2.8.877,1.616,1.616,0,0,1-.445,1.422,1.588,1.588,0,0,1-.907.471,1.637,1.637,0,0,1-1.9-1.351,1.629,1.629,0,0,1,.445-1.419" transform="translate(-243.324 1.74)" fill="#fff"/>
                <path id="パス_1778" data-name="パス 1778" d="M272.112,69.055a1.644,1.644,0,0,1,2.8.877,1.616,1.616,0,0,1-.445,1.422,1.588,1.588,0,0,1-.907.471,1.637,1.637,0,0,1-1.9-1.351A1.629,1.629,0,0,1,272.112,69.055Z" transform="translate(-243.324 1.74)" fill="none" stroke="#fff" stroke-miterlimit="10" stroke-width="1"/>
                <path id="パス_1779" data-name="パス 1779" d="M324.244,84.263a1.642,1.642,0,0,1,2.8.874,1.62,1.62,0,0,1-.442,1.427,1.661,1.661,0,0,1-2.137.191,1.647,1.647,0,0,1-.223-2.492" transform="translate(-217.813 9.183)" fill="#fff"/>
                <path id="パス_1780" data-name="パス 1780" d="M324.244,84.263a1.642,1.642,0,0,1,2.8.874,1.62,1.62,0,0,1-.442,1.427,1.661,1.661,0,0,1-2.137.191,1.647,1.647,0,0,1-.223-2.492Z" transform="translate(-217.813 9.183)" fill="none" stroke="#fff" stroke-miterlimit="10" stroke-width="1"/>
                <path id="パス_1781" data-name="パス 1781" d="M326.785,59.416a1.681,1.681,0,0,1,.907-.48,1.653,1.653,0,0,1,1.9,1.354,1.622,1.622,0,0,1-.447,1.425,1.594,1.594,0,0,1-.9.472,1.646,1.646,0,0,1-1.454-2.772" transform="translate(-216.57 -2.977)" fill="#fff"/>
                <path id="パス_1782" data-name="パス 1782" d="M326.785,59.416a1.681,1.681,0,0,1,.907-.48,1.653,1.653,0,0,1,1.9,1.354,1.622,1.622,0,0,1-.447,1.425,1.594,1.594,0,0,1-.9.472,1.646,1.646,0,0,1-1.454-2.772Z" transform="translate(-216.57 -2.977)" fill="none" stroke="#fff" stroke-miterlimit="10" stroke-width="1"/>
                <path id="パス_1783" data-name="パス 1783" d="M315.8,70.269a1.383,1.383,0,0,1,.748-.395,1.364,1.364,0,0,1,1.565,1.116,1.348,1.348,0,0,1-.365,1.177,1.3,1.3,0,0,1-.749.389,1.354,1.354,0,0,1-1.565-1.111,1.344,1.344,0,0,1,.366-1.175" transform="translate(-221.903 2.378)" fill="#fff"/>
                <path id="パス_1784" data-name="パス 1784" d="M315.8,70.269a1.383,1.383,0,0,1,.748-.395,1.364,1.364,0,0,1,1.565,1.116,1.348,1.348,0,0,1-.365,1.177,1.3,1.3,0,0,1-.749.389,1.354,1.354,0,0,1-1.565-1.111A1.344,1.344,0,0,1,315.8,70.269Z" transform="translate(-221.903 2.378)" fill="none" stroke="#fff" stroke-miterlimit="10" stroke-width="1"/>
                <path id="パス_1785" data-name="パス 1785" d="M304.834,78.056a1.352,1.352,0,0,1,2.311.718,1.335,1.335,0,0,1-.366,1.178,1.373,1.373,0,0,1-1.762.158,1.355,1.355,0,0,1-.183-2.054" transform="translate(-227.272 6.188)" fill="#fff"/>
                <path id="パス_1786" data-name="パス 1786" d="M304.834,78.056a1.352,1.352,0,0,1,2.311.718,1.335,1.335,0,0,1-.366,1.178,1.373,1.373,0,0,1-1.762.158,1.355,1.355,0,0,1-.183-2.054Z" transform="translate(-227.272 6.188)" fill="none" stroke="#fff" stroke-miterlimit="10" stroke-width="1"/>
                <path id="パス_1787" data-name="パス 1787" d="M276.866,109.2a1.644,1.644,0,0,1,2.8.871,1.633,1.633,0,0,1-.444,1.427,1.661,1.661,0,0,1-2.137.191,1.644,1.644,0,0,1-.223-2.489" transform="translate(-240.998 21.385)" fill="#fff"/>
                <path id="パス_1788" data-name="パス 1788" d="M276.866,109.2a1.644,1.644,0,0,1,2.8.871,1.633,1.633,0,0,1-.444,1.427,1.661,1.661,0,0,1-2.137.191,1.644,1.644,0,0,1-.223-2.489Z" transform="translate(-240.998 21.385)" fill="none" stroke="#fff" stroke-miterlimit="10" stroke-width="1"/>
                <path id="パス_1789" data-name="パス 1789" d="M293.076,110.764a1.889,1.889,0,0,1,1.028-.544,1.87,1.87,0,0,1,2.146,1.53,1.867,1.867,0,0,1-2.919,1.833,1.863,1.863,0,0,1-.255-2.819" transform="translate(-233.095 22.118)" fill="#fff"/>
                <path id="パス_1790" data-name="パス 1790" d="M293.076,110.764a1.889,1.889,0,0,1,1.028-.544,1.87,1.87,0,0,1,2.146,1.53,1.867,1.867,0,0,1-2.919,1.833,1.863,1.863,0,0,1-.255-2.819Z" transform="translate(-233.095 22.118)" fill="none" stroke="#fff" stroke-miterlimit="10" stroke-width="1"/>
                <path id="パス_1791" data-name="パス 1791" d="M306.425,112.1a1.918,1.918,0,0,1,1.029-.544,1.867,1.867,0,0,1,2.143,1.534,1.833,1.833,0,0,1-.5,1.613,1.8,1.8,0,0,1-1.026.533,1.864,1.864,0,0,1-2.151-1.527,1.86,1.86,0,0,1,.5-1.61" transform="translate(-226.563 22.77)" fill="#fff"/>
                <path id="パス_1792" data-name="パス 1792" d="M306.425,112.1a1.918,1.918,0,0,1,1.029-.544,1.867,1.867,0,0,1,2.143,1.534,1.833,1.833,0,0,1-.5,1.613,1.8,1.8,0,0,1-1.026.533,1.864,1.864,0,0,1-2.151-1.527A1.86,1.86,0,0,1,306.425,112.1Z" transform="translate(-226.563 22.77)" fill="none" stroke="#fff" stroke-miterlimit="10" stroke-width="1"/>
                <path id="パス_1793" data-name="パス 1793" d="M253.662,89.94a1.856,1.856,0,0,1,1.023-.533,1.821,1.821,0,0,1,1.384.316,1.855,1.855,0,0,1,.755,1.206,1.824,1.824,0,0,1-.5,1.606,1.8,1.8,0,0,1-1.023.539,1.858,1.858,0,0,1-1.638-3.134" transform="translate(-252.384 11.931)" fill="#fff"/>
                <path id="パス_1794" data-name="パス 1794" d="M253.662,89.94a1.856,1.856,0,0,1,1.023-.533,1.821,1.821,0,0,1,1.384.316,1.855,1.855,0,0,1,.755,1.206,1.824,1.824,0,0,1-.5,1.606,1.8,1.8,0,0,1-1.023.539,1.858,1.858,0,0,1-1.638-3.134Z" transform="translate(-252.384 11.931)" fill="none" stroke="#fff" stroke-miterlimit="10" stroke-width="1"/>
                <path id="パス_1795" data-name="パス 1795" d="M347.407,82.1a2.233,2.233,0,1,1,3.2,3.116,2.165,2.165,0,0,1-1.23.651,2.236,2.236,0,0,1-2.572-1.836,2.212,2.212,0,0,1,.6-1.93" transform="translate(-206.559 8.037)" fill="#fff"/>
                <path id="パス_1796" data-name="パス 1796" d="M347.407,82.1a2.233,2.233,0,1,1,3.2,3.116,2.165,2.165,0,0,1-1.23.651,2.236,2.236,0,0,1-2.572-1.836A2.212,2.212,0,0,1,347.407,82.1Z" transform="translate(-206.559 8.037)" fill="none" stroke="#fff" stroke-miterlimit="10" stroke-width="1"/>
                <path id="パス_1797" data-name="パス 1797" d="M367,82.415a2.182,2.182,0,0,1,1.232-.645,2.23,2.23,0,0,1,2.572,1.829,2.2,2.2,0,0,1-.6,1.93,2.156,2.156,0,0,1-1.23.648,2.235,2.235,0,0,1-2.574-1.835,2.206,2.206,0,0,1,.6-1.927" transform="translate(-196.97 8.193)" fill="#fff"/>
                <path id="パス_1798" data-name="パス 1798" d="M367,82.415a2.182,2.182,0,0,1,1.232-.645,2.23,2.23,0,0,1,2.572,1.829,2.2,2.2,0,0,1-.6,1.93,2.156,2.156,0,0,1-1.23.648,2.235,2.235,0,0,1-2.574-1.835A2.206,2.206,0,0,1,367,82.415Z" transform="translate(-196.97 8.193)" fill="none" stroke="#fff" stroke-miterlimit="10" stroke-width="1"/>
                <path id="パス_1799" data-name="パス 1799" d="M376.221,56.909a1.685,1.685,0,0,1,.953-.5,1.726,1.726,0,0,1,1.521,2.91,1.683,1.683,0,0,1-.95.5,1.731,1.731,0,0,1-1.991-1.419,1.7,1.7,0,0,1,.468-1.5" transform="translate(-192.39 -4.212)" fill="#fff"/>
                <path id="パス_1800" data-name="パス 1800" d="M376.221,56.909a1.685,1.685,0,0,1,.953-.5,1.726,1.726,0,0,1,1.521,2.91,1.683,1.683,0,0,1-.95.5,1.731,1.731,0,0,1-1.991-1.419A1.7,1.7,0,0,1,376.221,56.909Z" transform="translate(-192.39 -4.212)" fill="none" stroke="#fff" stroke-miterlimit="10" stroke-width="1"/>
                <path id="パス_1801" data-name="パス 1801" d="M308.548,85.446a1.686,1.686,0,0,1,.961-.5,1.743,1.743,0,0,1,1.538,2.938,1.669,1.669,0,0,1-.959.5,1.744,1.744,0,0,1-1.54-2.938" transform="translate(-225.508 9.749)" fill="#fff"/>
                <path id="パス_1802" data-name="パス 1802" d="M308.548,85.446a1.686,1.686,0,0,1,.961-.5,1.743,1.743,0,0,1,1.538,2.938,1.669,1.669,0,0,1-.959.5,1.744,1.744,0,0,1-1.54-2.938Z" transform="translate(-225.508 9.749)" fill="none" stroke="#fff" stroke-miterlimit="10" stroke-width="1"/>
                <path id="パス_1803" data-name="パス 1803" d="M292.253,86.705a1.879,1.879,0,0,1,1.063-.557,1.932,1.932,0,0,1,1.708,3.256,1.835,1.835,0,0,1-1.065.56,1.934,1.934,0,0,1-1.707-3.259" transform="translate(-233.509 10.337)" fill="#fff"/>
                <path id="パス_1804" data-name="パス 1804" d="M292.253,86.705a1.879,1.879,0,0,1,1.063-.557,1.932,1.932,0,0,1,1.708,3.256,1.835,1.835,0,0,1-1.065.56,1.934,1.934,0,0,1-1.707-3.259Z" transform="translate(-233.509 10.337)" fill="none" stroke="#fff" stroke-miterlimit="10" stroke-width="1"/>
                <path id="パス_1805" data-name="パス 1805" d="M392.839,82.644a2.236,2.236,0,1,1,1.972,3.765,2.233,2.233,0,0,1-2.571-1.835,2.192,2.192,0,0,1,.6-1.93" transform="translate(-184.326 8.305)" fill="#fff"/>
                <path id="パス_1806" data-name="パス 1806" d="M392.839,82.644a2.236,2.236,0,1,1,1.972,3.765,2.233,2.233,0,0,1-2.571-1.835A2.192,2.192,0,0,1,392.839,82.644Z" transform="translate(-184.326 8.305)" fill="none" stroke="#fff" stroke-miterlimit="10" stroke-width="1"/>
                <path id="パス_1807" data-name="パス 1807" d="M420.846,97.056a2.164,2.164,0,0,1,1.232-.642,2.232,2.232,0,0,1,1.969,3.759,2.18,2.18,0,0,1-1.232.646,2.231,2.231,0,0,1-2.569-1.835,2.208,2.208,0,0,1,.6-1.929" transform="translate(-170.621 15.358)" fill="#fff"/>
                <path id="パス_1808" data-name="パス 1808" d="M420.846,97.056a2.164,2.164,0,0,1,1.232-.642,2.232,2.232,0,0,1,1.969,3.759,2.18,2.18,0,0,1-1.232.646,2.231,2.231,0,0,1-2.569-1.835A2.208,2.208,0,0,1,420.846,97.056Z" transform="translate(-170.621 15.358)" fill="none" stroke="#fff" stroke-miterlimit="10" stroke-width="1"/>
                <path id="パス_1809" data-name="パス 1809" d="M445.015,83.893a2.151,2.151,0,0,1,1.227-.643,2.231,2.231,0,0,1,1.975,3.756,2.14,2.14,0,0,1-1.232.646,2.23,2.23,0,0,1-2.571-1.833,2.191,2.191,0,0,1,.6-1.926" transform="translate(-158.794 8.916)" fill="#fff"/>
                <path id="パス_1810" data-name="パス 1810" d="M445.015,83.893a2.151,2.151,0,0,1,1.227-.643,2.231,2.231,0,0,1,1.975,3.756,2.14,2.14,0,0,1-1.232.646,2.23,2.23,0,0,1-2.571-1.833A2.191,2.191,0,0,1,445.015,83.893Z" transform="translate(-158.794 8.916)" fill="none" stroke="#fff" stroke-miterlimit="10" stroke-width="1"/>
                <path id="パス_1811" data-name="パス 1811" d="M446.5,112.026a2.166,2.166,0,0,1,1.226-.645,2.23,2.23,0,0,1,1.97,3.759,2.16,2.16,0,0,1-1.23.648,2.24,2.24,0,0,1-2.575-1.836,2.2,2.2,0,0,1,.609-1.926" transform="translate(-158.072 22.682)" fill="#fff"/>
                <path id="パス_1812" data-name="パス 1812" d="M446.5,112.026a2.166,2.166,0,0,1,1.226-.645,2.23,2.23,0,0,1,1.97,3.759,2.16,2.16,0,0,1-1.23.648,2.24,2.24,0,0,1-2.575-1.836A2.2,2.2,0,0,1,446.5,112.026Z" transform="translate(-158.072 22.682)" fill="none" stroke="#fff" stroke-miterlimit="10" stroke-width="1"/>
                <path id="パス_1813" data-name="パス 1813" d="M514.148,79.782a1.672,1.672,0,0,1,.929-.487,1.693,1.693,0,0,1,1.5,2.851,1.666,1.666,0,0,1-.937.489,1.692,1.692,0,0,1-1.489-2.852" transform="translate(-124.89 6.985)" fill="#fff"/>
                <path id="パス_1814" data-name="パス 1814" d="M514.148,79.782a1.672,1.672,0,0,1,.929-.487,1.693,1.693,0,0,1,1.5,2.851,1.666,1.666,0,0,1-.937.489,1.692,1.692,0,0,1-1.489-2.852Z" transform="translate(-124.89 6.985)" fill="none" stroke="#fff" stroke-miterlimit="10" stroke-width="1"/>
                <path id="パス_1815" data-name="パス 1815" d="M488.708,82.516a2.233,2.233,0,1,1,3.2,3.116,2.162,2.162,0,0,1-1.23.646,2.235,2.235,0,0,1-2.572-1.833,2.21,2.21,0,0,1,.6-1.929" transform="translate(-137.413 8.241)" fill="#fff"/>
                <path id="パス_1816" data-name="パス 1816" d="M488.708,82.516a2.233,2.233,0,1,1,3.2,3.116,2.162,2.162,0,0,1-1.23.646,2.235,2.235,0,0,1-2.572-1.833A2.21,2.21,0,0,1,488.708,82.516Z" transform="translate(-137.413 8.241)" fill="none" stroke="#fff" stroke-miterlimit="10" stroke-width="1"/>
                <path id="パス_1817" data-name="パス 1817" d="M393.739,109.857a1.81,1.81,0,0,1,3.084.962,1.784,1.784,0,0,1-.488,1.559,1.81,1.81,0,0,1-2.6-2.521" transform="translate(-183.825 21.684)" fill="#fff"/>
                <path id="パス_1818" data-name="パス 1818" d="M393.739,109.857a1.81,1.81,0,0,1,3.084.962,1.784,1.784,0,0,1-.488,1.559,1.81,1.81,0,0,1-2.6-2.521Z" transform="translate(-183.825 21.684)" fill="none" stroke="#fff" stroke-miterlimit="10" stroke-width="1"/>
                <path id="パス_1819" data-name="パス 1819" d="M367.376,94.158a1.81,1.81,0,0,1,.995-.523,1.845,1.845,0,0,1,1.352.31,1.8,1.8,0,0,1,.733,1.175,1.791,1.791,0,0,1-1.482,2.081,1.808,1.808,0,0,1-1.6-3.043" transform="translate(-196.728 14.003)" fill="#fff"/>
                <path id="パス_1820" data-name="パス 1820" d="M367.376,94.158a1.81,1.81,0,0,1,.995-.523,1.845,1.845,0,0,1,1.352.31,1.8,1.8,0,0,1,.733,1.175,1.791,1.791,0,0,1-1.482,2.081,1.808,1.808,0,0,1-1.6-3.043Z" transform="translate(-196.728 14.003)" fill="none" stroke="#fff" stroke-miterlimit="10" stroke-width="1"/>
                <path id="パス_1821" data-name="パス 1821" d="M341.43,105.539a1.809,1.809,0,1,1,1.6,3.047,1.81,1.81,0,0,1-1.6-3.047" transform="translate(-209.425 19.571)" fill="#fff"/>
                <path id="パス_1822" data-name="パス 1822" d="M341.43,105.539a1.809,1.809,0,1,1,1.6,3.047,1.81,1.81,0,0,1-1.6-3.047Z" transform="translate(-209.425 19.571)" fill="none" stroke="#fff" stroke-miterlimit="10" stroke-width="1"/>
                <path id="パス_1823" data-name="パス 1823" d="M331.773,132.735a1.8,1.8,0,0,1,2.341-.214,1.81,1.81,0,0,1-.745,3.262,1.81,1.81,0,0,1-1.6-3.047" transform="translate(-214.151 32.88)" fill="#fff"/>
                <path id="パス_1824" data-name="パス 1824" d="M331.773,132.735a1.8,1.8,0,0,1,2.341-.214,1.81,1.81,0,0,1-.745,3.262,1.81,1.81,0,0,1-1.6-3.047Z" transform="translate(-214.151 32.88)" fill="none" stroke="#fff" stroke-miterlimit="10" stroke-width="1"/>
                <path id="パス_1825" data-name="パス 1825" d="M294.134,138.774a1.809,1.809,0,0,1,2.593,2.523,1.811,1.811,0,0,1-3.081-.962,1.789,1.789,0,0,1,.489-1.561" transform="translate(-232.57 35.835)" fill="#fff"/>
                <path id="パス_1826" data-name="パス 1826" d="M294.134,138.774a1.809,1.809,0,0,1,2.593,2.523,1.811,1.811,0,0,1-3.081-.962A1.789,1.789,0,0,1,294.134,138.774Z" transform="translate(-232.57 35.835)" fill="none" stroke="#fff" stroke-miterlimit="10" stroke-width="1"/>
                <path id="パス_1827" data-name="パス 1827" d="M366.847,65.2a1.777,1.777,0,0,1,1-.524,1.816,1.816,0,0,1,2.082,1.486,1.827,1.827,0,0,1-.487,1.561,1.825,1.825,0,0,1-2.347.212,1.77,1.77,0,0,1-.734-1.175,1.792,1.792,0,0,1,.487-1.559" transform="translate(-196.987 -0.169)" fill="#fff"/>
                <path id="パス_1828" data-name="パス 1828" d="M366.847,65.2a1.777,1.777,0,0,1,1-.524,1.816,1.816,0,0,1,2.082,1.486,1.827,1.827,0,0,1-.487,1.561,1.825,1.825,0,0,1-2.347.212,1.77,1.77,0,0,1-.734-1.175A1.792,1.792,0,0,1,366.847,65.2Z" transform="translate(-196.987 -0.169)" fill="none" stroke="#fff" stroke-miterlimit="10" stroke-width="1"/>
                <path id="パス_1829" data-name="パス 1829" d="M392.516,63.8a1.766,1.766,0,0,1,1-.521,1.808,1.808,0,1,1,.6,3.566,1.808,1.808,0,0,1-1.6-3.044" transform="translate(-184.426 -0.851)" fill="#fff"/>
                <path id="パス_1830" data-name="パス 1830" d="M392.516,63.8a1.766,1.766,0,0,1,1-.521,1.808,1.808,0,1,1,.6,3.566,1.808,1.808,0,0,1-1.6-3.044Z" transform="translate(-184.426 -0.851)" fill="none" stroke="#fff" stroke-miterlimit="10" stroke-width="1"/>
                <path id="パス_1831" data-name="パス 1831" d="M391.958,42.988a1.8,1.8,0,0,1,2.341-.214,1.8,1.8,0,0,1,.243,2.736,1.75,1.75,0,0,1-.99.523,1.82,1.82,0,0,1-1.352-.308,1.811,1.811,0,0,1-.241-2.736" transform="translate(-184.7 -11.039)" fill="#fff"/>
                <path id="パス_1832" data-name="パス 1832" d="M391.958,42.988a1.8,1.8,0,0,1,2.341-.214,1.8,1.8,0,0,1,.243,2.736,1.75,1.75,0,0,1-.99.523,1.82,1.82,0,0,1-1.352-.308,1.811,1.811,0,0,1-.241-2.736Z" transform="translate(-184.7 -11.039)" fill="none" stroke="#fff" stroke-miterlimit="10" stroke-width="1"/>
                <path id="パス_1833" data-name="パス 1833" d="M477.507,71.274a1.419,1.419,0,0,1,.794-.411,1.437,1.437,0,0,1,1.659,1.184,1.43,1.43,0,0,1-1.183,1.662,1.444,1.444,0,0,1-1.27-2.435" transform="translate(-142.786 2.86)" fill="#fff"/>
                <path id="パス_1834" data-name="パス 1834" d="M477.507,71.274a1.419,1.419,0,0,1,.794-.411,1.437,1.437,0,0,1,1.659,1.184,1.43,1.43,0,0,1-1.183,1.662,1.444,1.444,0,0,1-1.27-2.435Z" transform="translate(-142.786 2.86)" fill="none" stroke="#fff" stroke-miterlimit="10" stroke-width="1"/>
                <path id="パス_1835" data-name="パス 1835" d="M457.742,70.092a1.443,1.443,0,0,1,2.454.774,1.425,1.425,0,0,1-.381,1.244,1.407,1.407,0,0,1-.8.417,1.445,1.445,0,0,1-1.272-2.435" transform="translate(-152.458 2.281)" fill="#fff"/>
                <path id="パス_1836" data-name="パス 1836" d="M457.742,70.092a1.443,1.443,0,0,1,2.454.774,1.425,1.425,0,0,1-.381,1.244,1.407,1.407,0,0,1-.8.417,1.445,1.445,0,0,1-1.272-2.435Z" transform="translate(-152.458 2.281)" fill="none" stroke="#fff" stroke-miterlimit="10" stroke-width="1"/>
                <path id="パス_1837" data-name="パス 1837" d="M463.216,90.067a1.639,1.639,0,0,1,.919-.484,1.679,1.679,0,0,1,1.25.284,1.715,1.715,0,0,1,.678,1.09,1.646,1.646,0,0,1-.448,1.443,1.672,1.672,0,0,1-2.849-.888,1.656,1.656,0,0,1,.451-1.446" transform="translate(-149.81 12.02)" fill="#fff"/>
                <path id="パス_1838" data-name="パス 1838" d="M463.216,90.067a1.639,1.639,0,0,1,.919-.484,1.679,1.679,0,0,1,1.25.284,1.715,1.715,0,0,1,.678,1.09,1.646,1.646,0,0,1-.448,1.443,1.672,1.672,0,0,1-2.849-.888A1.656,1.656,0,0,1,463.216,90.067Z" transform="translate(-149.81 12.02)" fill="none" stroke="#fff" stroke-miterlimit="10" stroke-width="1"/>
                <path id="パス_1839" data-name="パス 1839" d="M495.381,57.38a1.665,1.665,0,0,1,2.169-.192,1.674,1.674,0,1,1-2.169.192" transform="translate(-134.07 -3.976)" fill="#fff"/>
                <path id="パス_1840" data-name="パス 1840" d="M495.381,57.38a1.665,1.665,0,0,1,2.169-.192,1.674,1.674,0,1,1-2.169.192Z" transform="translate(-134.07 -3.976)" fill="none" stroke="#fff" stroke-miterlimit="10" stroke-width="1"/>
                <path id="パス_1841" data-name="パス 1841" d="M533.725,72.736a1.658,1.658,0,0,1,.921-.486,1.666,1.666,0,0,1,1.926,1.372,1.651,1.651,0,0,1-.447,1.446,1.673,1.673,0,1,1-2.4-2.332" transform="translate(-115.306 3.538)" fill="#fff"/>
                <path id="パス_1842" data-name="パス 1842" d="M533.725,72.736a1.658,1.658,0,0,1,.921-.486,1.666,1.666,0,0,1,1.926,1.372,1.651,1.651,0,0,1-.447,1.446,1.673,1.673,0,1,1-2.4-2.332Z" transform="translate(-115.306 3.538)" fill="none" stroke="#fff" stroke-miterlimit="10" stroke-width="1"/>
                <path id="パス_1843" data-name="パス 1843" d="M550.235,46.412a1.648,1.648,0,0,1,.919-.484,1.669,1.669,0,0,1,1.927,1.372,1.652,1.652,0,0,1-.448,1.446,1.673,1.673,0,1,1-2.4-2.334" transform="translate(-107.227 -9.344)" fill="#fff"/>
                <path id="パス_1844" data-name="パス 1844" d="M550.235,46.412a1.648,1.648,0,0,1,.919-.484,1.669,1.669,0,0,1,1.927,1.372,1.652,1.652,0,0,1-.448,1.446,1.673,1.673,0,1,1-2.4-2.334Z" transform="translate(-107.227 -9.344)" fill="none" stroke="#fff" stroke-miterlimit="10" stroke-width="1"/>
                <path id="パス_1845" data-name="パス 1845" d="M521.94,100.016a1.681,1.681,0,0,1,2.174-.2,1.709,1.709,0,0,1,.679,1.087,1.654,1.654,0,0,1-.453,1.445,1.675,1.675,0,0,1-2.4-2.337" transform="translate(-121.072 16.89)" fill="#fff"/>
                <path id="パス_1846" data-name="パス 1846" d="M521.94,100.016a1.681,1.681,0,0,1,2.174-.2,1.709,1.709,0,0,1,.679,1.087,1.654,1.654,0,0,1-.453,1.445,1.675,1.675,0,0,1-2.4-2.337Z" transform="translate(-121.072 16.89)" fill="none" stroke="#fff" stroke-miterlimit="10" stroke-width="1"/>
                <path id="パス_1847" data-name="パス 1847" d="M491.51,99.484a1.633,1.633,0,0,1,.916-.48,1.671,1.671,0,0,1,1.93,1.372,1.668,1.668,0,0,1-1.372,1.927,1.672,1.672,0,0,1-1.474-2.819" transform="translate(-135.965 16.631)" fill="#fff"/>
                <path id="パス_1848" data-name="パス 1848" d="M491.51,99.484a1.633,1.633,0,0,1,.916-.48,1.671,1.671,0,0,1,1.93,1.372,1.668,1.668,0,0,1-1.372,1.927,1.672,1.672,0,0,1-1.474-2.819Z" transform="translate(-135.965 16.631)" fill="none" stroke="#fff" stroke-miterlimit="10" stroke-width="1"/>
                <path id="パス_1849" data-name="パス 1849" d="M477.992,46.99a1.39,1.39,0,0,1,.8-.413,1.445,1.445,0,0,1,1.276,2.429,1.5,1.5,0,0,1-.8.417,1.445,1.445,0,0,1-1.273-2.434" transform="translate(-142.546 -9.025)" fill="#fff"/>
                <path id="パス_1850" data-name="パス 1850" d="M477.992,46.99a1.39,1.39,0,0,1,.8-.413,1.445,1.445,0,0,1,1.276,2.429,1.5,1.5,0,0,1-.8.417,1.445,1.445,0,0,1-1.273-2.434Z" transform="translate(-142.546 -9.025)" fill="none" stroke="#fff" stroke-miterlimit="10" stroke-width="1"/>
                <path id="パス_1851" data-name="パス 1851" d="M472.5,53.3a1.365,1.365,0,0,1,.8-.411,1.421,1.421,0,0,1,1.08.243,1.456,1.456,0,0,1,.2,2.186,1.491,1.491,0,0,1-.8.416A1.445,1.445,0,0,1,472.5,53.3" transform="translate(-145.236 -5.937)" fill="#fff"/>
                <path id="パス_1852" data-name="パス 1852" d="M472.5,53.3a1.365,1.365,0,0,1,.8-.411,1.421,1.421,0,0,1,1.08.243,1.456,1.456,0,0,1,.2,2.186,1.491,1.491,0,0,1-.8.416A1.445,1.445,0,0,1,472.5,53.3Z" transform="translate(-145.236 -5.937)" fill="none" stroke="#fff" stroke-miterlimit="10" stroke-width="1"/>
                <path id="パス_1853" data-name="パス 1853" d="M485.067,22.349a1.578,1.578,0,0,1,.9-.469,1.623,1.623,0,0,1,1.221.276,1.651,1.651,0,0,1,.223,2.48,1.716,1.716,0,0,1-.906.472,1.634,1.634,0,0,1-1.883-1.337,1.617,1.617,0,0,1,.441-1.421" transform="translate(-139.111 -21.112)" fill="#fff"/>
                <path id="パス_1854" data-name="パス 1854" d="M485.067,22.349a1.578,1.578,0,0,1,.9-.469,1.623,1.623,0,0,1,1.221.276,1.651,1.651,0,0,1,.223,2.48,1.716,1.716,0,0,1-.906.472,1.634,1.634,0,0,1-1.883-1.337A1.617,1.617,0,0,1,485.067,22.349Z" transform="translate(-139.111 -21.112)" fill="none" stroke="#fff" stroke-miterlimit="10" stroke-width="1"/>
                <path id="パス_1855" data-name="パス 1855" d="M515.117,64.265a1.447,1.447,0,0,1,2.07,2.021,1.509,1.509,0,0,1-.8.417,1.446,1.446,0,0,1-1.272-2.438" transform="translate(-124.381 -0.57)" fill="#fff"/>
                <path id="パス_1856" data-name="パス 1856" d="M515.117,64.265a1.447,1.447,0,0,1,2.07,2.021,1.509,1.509,0,0,1-.8.417,1.446,1.446,0,0,1-1.272-2.438Z" transform="translate(-124.381 -0.57)" fill="none" stroke="#fff" stroke-miterlimit="10" stroke-width="1"/>
              </g>
            </g>
          </g>
        </g>
      </g>
      <path id="パス_1857" data-name="パス 1857" d="M779.02,22.735H779L768.534,1.766l-.028-.372L756.726,21.462l-10.387-.615L719.89,10.338l-.3-.468,6.044,38.816-15.661,29L666.937,95.633l-.067-.036-.033.077-.025.012,0,.042-30.331,42.686-12.156,1.948L606.355,97.851l.21-.243-.279.073-.086-.2-.085.247-22.068,5.746-6.912-7.779L565.862,69.557l.122-.542-23.174,31.72-31.58,9.434L468.108,92.426l-.022-.071-.079.031-.027-.013-.04.039-41.529,16.066-.054-.013-.025.043-.045.018.006.055-21.8,39.343-33.829,33.153-14.077-10.823.585.074-.919-.349L346,124.33l-.04-.179-39.589,26.91L289.633,141.05l1.171-10.464.015-.109-30.873-7.2L259.7,81.639l21.838-32.824.112-.17L244.87,44.634l12.1-28.628.32-.179-41.778-3.47,4.586,23.565-8.967,4.913.064-.459-.313.6-.067.036.022.051L186.179,87.976l-31.872,4.167.466-.362-.9.4L114.35,67.154l-.155-.1-8.963,47.019-18.921,4.761-6.57-8.229-.068-.085-26.706,16.6.018-.043-.27.2L26.807,116.512l-.031-.012L1.025,119.527,39.71,137l.019.009L40.8,160.419l-.124.349,18.9-13.571,9.189,4.738-7.331,51.917.256-.295,31.284-13.869-3.978-17.42.036-.04L89,172.2,99.031,134.9l26.07-20.166,26.594.588-2.283,25.632,22.422-25.184h.019l.022-.036L216.9,89l11.9,3.146-.8,46.145-.29.139.286.046v.22l.176-.192,22.5,3.691,3.166,9.915-.284,28.459-.331.447,34.041-19.61,32.694,4.175,32.233,33.692-.01.074.088,0,.018.021.052-.018,44.477,2.142.043.034.042-.03.067,0,.007-.063,35.792-27.077.161.152-.022-.256.509-.387-.532.164-4.522-46.668,16.249-14.217,31.238,7.585-.567.168.983-.054,27.869,37.579.109.146,25.286-40.639,19.366,2.365,3.168,10.04.034.107,31.177-5.934,20.275,19.345.016.076.091-.013,24.565,6.3.064.15.046-.07,32.885,29.6.185.646,3.579-53.653,27.45-16.723-.28.518.654-.733,46.282,6.867.18.027L728.409,70.242l15.367-12.021,9.437,4.91,17.85-26.241,28.055-.658h.031l22.315-13.2Zm.281.25,41.267.287L799.116,35.962Zm-.567-.225-8.687-.512L768.58,2.417ZM768.318,2.2,769.8,22.233l-12.791-.757ZM748.136,54.811l22.309-17.454L753.176,62.747ZM748,54.6l-5.424-8.54,14.289-24.345,12.95.766,1.052,14.231ZM728.351,69.815l-2.438-20.888,11.257,5.856Zm-2.4-21.149,9.682-13.074,6.651,10.473-4.989,8.5ZM742.437,46.3l5.368,8.452-4.059,3.172-6.23-3.241Zm-.007-.477-6.638-10.446L746.371,21.1l10.217.6Zm3.685-24.8L735.649,35.155,720.115,10.694ZM735.492,35.366,725.84,48.4l-5.82-37.39Zm-9.8,13.747,2.448,21-17.8,7.42Zm2.122,21.405-34.446,38.451,16.787-31.086Zm-61.49,26.324-17.506,39.6-11.992,1.921Zm-29.7,41.8,11.732-1.881L628.8,149.655Zm-.347.052-7.935,11.172-3.918-9.273Zm-8.328,10.877-8.126-8.241,4.347-.7Zm-8.34-8.457-20.7-20.984-.015-.018,7.331-21.937,17.845,42.22ZM598.93,120.511,619.3,141.167l-15.547,2.49Zm-44.489.22,2.2-9.873,27.316-7.11,8.616,9.7-9.316,10.807Zm28.067,3.679-30.165,5.739,2.046-9.173ZM542.838,101.1l3.817,12.1L529.79,117.6Zm.21-.159,16.091-2.395-2.7,12.11L546.9,113.14Zm13.33,9.986L554.2,120.7l-5.114-.626-2.115-6.7Zm36.369,2.706,5.8,6.531-14.879,3.991Zm5.941,6.315-5.779-6.5,12.986-15.062Zm7.17-21.9-13.114,15.208-8.512-9.58Zm-49.149,12.539L559.4,98.506l17.579-2.615,6.794,7.649Zm20.145-14.931-17.394,2.591,6.31-28.28ZM565.482,70.122,559.2,98.289l-16.034,2.387Zm-22.936,30.953-13.121,16.581-17.832-7.338Zm-13.635,16.636-51.547,2.833,33.852-10.113Zm-102.578-8.7,1.769,18.254L405.047,147.44Zm-21.914,39.329-5.243,36.178-17.1,5.323-11.207-8.614Zm-48.443,21.53-49.329-18.7L345.8,124.564ZM221.6,42.347l22.912,2.5L229.156,81.183Zm7.185,38.221L211.175,41.209l10.165,1.108Zm20.339,17.226,10.5,25.422L244.177,120.8Zm-.066-.6-19.7-15.561,30.03-13.063.076,12.992Zm-15.741-4.115-4.261-1.124.171-9.7Zm-3.929-11.1,19.152,15.126-14.928-3.947Zm19.552,15.489-4.966,23.116L233.716,93.447ZM259.4,123.433l-12.561,5.946-2.659-8.326Zm.413.079,24.917,14.9-6.014,8.135-27.854-4.566-3.947-12.36Zm.752.162,29.9,6.975-5.591,7.56Zm24.381,14.862,4.42,2.644-.783,6.981-9.591-1.573Zm3.61,9.871-1.425,12.71-15.684-4.331,7.378-9.974Zm.246.04,17.2,2.816-18.613,9.791Zm66.32,21.369-35.045-4.477-13.227-13.827Zm-49.365-18.839-16.93-2.776.773-6.885Zm-20.665-12.642,5.414-7.32-1.11,9.891Zm-25.4-15.6L249.223,97.392,259.457,82.01Zm21.53-73.888L259.7,81.2l-.074-12.81,0-.189-30.28,13.173,15.421-36.5Zm-36.611-4.243-23.064-2.514-1.175-6.039L256.612,16.2ZM215.817,12.631l40.628,3.375L220.322,35.8Zm4.327,23.547,1.147,5.884-9.915-1.08Zm-9.109,5.33,17.9,40-24,4.012Zm-.286.24-6.071,43.811-18.2,2.379ZM186.34,88.207l18.072-2.365-32.2,29.241ZM171.76,115.419l-17.662-23,31.941-4.173ZM114.372,67.462l39.233,24.844-48.1,21.66ZM82.746,130.553l8.01-5.752,7.978,10-14.152,8.028Zm5.935,41.322L69.1,151.894l15.294-8.674ZM52.825,127.523l28.155-7.089,1.5,10L59.551,146.9,48.02,140.957ZM47.8,140.842l-7.766-4.006,12.444-9.081Zm33.143-20.656L53.473,127.1l26.079-16.213Zm.279.188,5-1.26,4.383,5.493-7.9,5.67Zm17.652,14.2-7.916-9.916,14.155-10.165Zm54.089-41.7L125.018,114.49l-19.131-.427Zm-48.227,21.584L90.8,124.463l-4.321-5.414Zm-23.551,5.674-1.348-9,6.211,7.777ZM39.856,136.663,27.08,116.9l25.4,10.552ZM26.7,116.761l12.856,19.893L1.942,119.67Zm13.285,20.33,7.733,3.986-6.7,18.726ZM41.175,160.1l6.762-18.909,11.388,5.873ZM59.8,147.032l22.72-16.319,1.832,12.24-15.458,8.771Zm9.183,5.1,19.709,20.106L61.8,203.059Zm-6.909,50.982,26.7-30.594.048.322.024-.092,3.835,16.792ZM88.9,171.628l-4.274-28.539,14.1-8Zm10.259-37.134,6.272-20.193,19.277.427Zm26.257-20,28.3-21.9-2,22.482Zm24.312,25.736,2.218-24.9,19.566.435Zm2.24-25.151,2-22.43,17.561,22.866Zm20.806-.17,32.051-29.106,11.742,3.1Zm44.091-26.178L205.38,85.7l23.1-3.863Zm.337.086,11.784-7-.176,10.065Zm11.851,3.391,4.371,1.153,10.418,27.572.007.021-15.6,17.087ZM243.966,121.2l2.647,8.287-17.974,8.5Zm-15.43,17.116,18.152-8.591,3.9,12.208Zm50.016,8.457-7.36,9.947-17.132-4.727-3.111-9.748Zm-24.464,5.482,16.947,4.681-17.227,23.3Zm.042,27.955L271.29,157l15.629,4.313Zm33.515-19,18.712-9.845,13.33,13.933Zm64.589,37.754-31.886-33.329,35.664,4.551Zm4.011-28.657,14.244,10.953-18,17.637Zm14.442,11.1,11.093,8.53-29,9.024ZM353.032,199.14l28.99-9.02L396.47,201.23Zm43.736,2.006L382.312,190.03l16.825-5.232Zm.259-.055,2.373-16.377,32.735-10.184Zm2.413-16.648,5.244-36.191,27.849,25.9Zm33.181-10.554L404.782,148l23.349-20.431Zm-4.288-46.822-1.774-18.3,17.756,4.313Zm16.212-14.185-17.711-4.3L467.4,92.888Zm23.4-20.145,8.2,27.817-31.3-7.6Zm.256-.007,42.654,17.552-34.444,10.288Zm36.025,65.407-27.663-37.3,52.677-2.9Zm25.9-40.373,16.6-4.324,2.085,6.6Zm24.016,3.183-1.982,8.884-3-9.49Zm29.415,3.5,15.1-4.053,4.8,23.039Zm20.711,19.381,15.248-2.443,8.392,8.509Zm24.244,6.31,20.318-13.389,12.256,42.709Zm32.735,28.984-12.2-42.514,15.675-9.55Zm3.493-52.366-15.564,9.484L666.76,96.463Zm2.3-30.784,25.464,13.867L665,126.6Zm.174-.186,42.569-17.75-17.08,31.629ZM693,109.746l35.2-39.3,10.737,46.109Zm35.7-40.052,8.684-14.8,6.144,3.2Zm19.234-14.73,4.878,7.684-8.826-4.6ZM770.066,22.5l8.722.514-7.7,13.346Zm8.957.6,19.691,12.892-27.5.646Z" transform="translate(0.502 0.682)" fill="#fff"/>
      <path id="パス_1858" data-name="パス 1858" d="M779.02,22.735H779L768.534,1.766l-.028-.372L756.726,21.462l-10.387-.615L719.89,10.338l-.3-.468,6.044,38.816-15.661,29L666.937,95.633l-.067-.036-.033.077-.025.012,0,.042-30.331,42.686-12.156,1.948L606.355,97.851l.21-.243-.279.073-.086-.2-.085.247-22.068,5.746-6.912-7.779L565.862,69.557l.122-.542-23.174,31.72-31.58,9.434L468.108,92.426l-.022-.071-.079.031-.027-.013-.04.039-41.529,16.066-.054-.013-.025.043-.045.018.006.055-21.8,39.343-33.829,33.153-14.077-10.823.585.074-.919-.349L346,124.33l-.04-.179-39.589,26.91L289.633,141.05l1.171-10.464.015-.109-30.873-7.2L259.7,81.639l21.838-32.824.112-.17L244.87,44.634l12.1-28.628.32-.179-41.778-3.47,4.586,23.565-8.967,4.913.064-.459-.313.6-.067.036.022.051L186.179,87.976l-31.872,4.167.466-.362-.9.4L114.35,67.154l-.155-.1-8.963,47.019-18.921,4.761-6.57-8.229-.068-.085-26.706,16.6.018-.043-.27.2L26.807,116.512l-.031-.012L1.025,119.527,39.71,137l.019.009L40.8,160.419l-.124.349,18.9-13.571,9.189,4.738-7.331,51.917.256-.295,31.284-13.869-3.978-17.42.036-.04L89,172.2,99.031,134.9l26.07-20.166,26.594.588-2.283,25.632,22.422-25.184h.019l.022-.036L216.9,89l11.9,3.146-.8,46.145-.29.139.286.046v.22l.176-.192,22.5,3.691,3.166,9.915-.284,28.459-.331.447,34.041-19.61,32.694,4.175,32.233,33.692-.01.074.088,0,.018.021.052-.018,44.477,2.142.043.034.042-.03.067,0,.007-.063,35.792-27.077.161.152-.022-.256.509-.387-.532.164-4.522-46.668,16.249-14.217,31.238,7.585-.567.168.983-.054,27.869,37.579.109.146,25.286-40.639,19.366,2.365,3.168,10.04.034.107,31.177-5.934,20.275,19.345.016.076.091-.013,24.565,6.3.064.15.046-.07,32.885,29.6.185.646,3.579-53.653,27.45-16.723-.28.518.654-.733,46.282,6.867.18.027L728.409,70.242l15.367-12.021,9.437,4.91,17.85-26.241,28.055-.658h.031l22.315-13.2Zm.281.25,41.267.287L799.116,35.962Zm-.567-.225-8.687-.512L768.58,2.417ZM768.318,2.2,769.8,22.233l-12.791-.757ZM748.136,54.811l22.309-17.454L753.176,62.747ZM748,54.6l-5.424-8.54,14.289-24.345,12.95.766,1.052,14.231ZM728.351,69.815l-2.438-20.888,11.257,5.856Zm-2.4-21.149,9.682-13.074,6.651,10.473-4.989,8.5ZM742.437,46.3l5.368,8.452-4.059,3.172-6.23-3.241Zm-.007-.477-6.638-10.446L746.371,21.1l10.217.6Zm3.685-24.8L735.649,35.155,720.115,10.694ZM735.492,35.366,725.84,48.4l-5.82-37.39Zm-9.8,13.747,2.448,21-17.8,7.42Zm2.122,21.405-34.446,38.451,16.787-31.086Zm-61.49,26.324-17.506,39.6-11.992,1.921Zm-29.7,41.8,11.732-1.881L628.8,149.655Zm-.347.052-7.935,11.172-3.918-9.273Zm-8.328,10.877-8.126-8.241,4.347-.7Zm-8.34-8.457-20.7-20.984-.015-.018,7.331-21.937,17.845,42.22ZM598.93,120.511,619.3,141.167l-15.547,2.49Zm-44.489.22,2.2-9.873,27.316-7.11,8.616,9.7-9.316,10.807Zm28.067,3.679-30.165,5.739,2.046-9.173ZM542.838,101.1l3.817,12.1L529.79,117.6Zm.21-.159,16.091-2.395-2.7,12.11L546.9,113.14Zm13.33,9.986L554.2,120.7l-5.114-.626-2.115-6.7Zm36.369,2.706,5.8,6.531-14.879,3.991Zm5.941,6.315-5.779-6.5,12.986-15.062Zm7.17-21.9-13.114,15.208-8.512-9.58Zm-49.149,12.539L559.4,98.506l17.579-2.615,6.794,7.649Zm20.145-14.931-17.394,2.591,6.31-28.28ZM565.482,70.122,559.2,98.289l-16.034,2.387Zm-22.936,30.953-13.121,16.581-17.832-7.338Zm-13.635,16.636-51.547,2.833,33.852-10.113Zm-102.578-8.7,1.769,18.254L405.047,147.44Zm-21.914,39.329-5.243,36.178-17.1,5.323-11.207-8.614Zm-48.443,21.53-49.329-18.7L345.8,124.564ZM221.6,42.347l22.912,2.5L229.156,81.183Zm7.185,38.221L211.175,41.209l10.165,1.108Zm20.339,17.226,10.5,25.422L244.177,120.8Zm-.066-.6-19.7-15.561,30.03-13.063.076,12.992Zm-15.741-4.115-4.261-1.124.171-9.7Zm-3.929-11.1,19.152,15.126-14.928-3.947Zm19.552,15.489-4.966,23.116L233.716,93.447ZM259.4,123.433l-12.561,5.946-2.659-8.326Zm.413.079,24.917,14.9-6.014,8.135-27.854-4.566-3.947-12.36Zm.752.162,29.9,6.975-5.591,7.56Zm24.381,14.862,4.42,2.644-.783,6.981-9.591-1.573Zm3.61,9.871-1.425,12.71-15.684-4.331,7.378-9.974Zm.246.04,17.2,2.816-18.613,9.791Zm66.32,21.369-35.045-4.477-13.227-13.827Zm-49.365-18.839-16.93-2.776.773-6.885Zm-20.665-12.642,5.414-7.32-1.11,9.891Zm-25.4-15.6L249.223,97.392,259.457,82.01Zm21.53-73.888L259.7,81.2l-.074-12.81,0-.189-30.28,13.173,15.421-36.5Zm-36.611-4.243-23.064-2.514-1.175-6.039L256.612,16.2ZM215.817,12.631l40.628,3.375L220.322,35.8Zm4.327,23.547,1.147,5.884-9.915-1.08Zm-9.109,5.33,17.9,40-24,4.012Zm-.286.24-6.071,43.811-18.2,2.379ZM186.34,88.207l18.072-2.365-32.2,29.241ZM171.76,115.419l-17.662-23,31.941-4.173ZM114.372,67.462l39.233,24.844-48.1,21.66ZM82.746,130.553l8.01-5.752,7.978,10-14.152,8.028Zm5.935,41.322L69.1,151.894l15.294-8.674ZM52.825,127.523l28.155-7.089,1.5,10L59.551,146.9,48.02,140.957ZM47.8,140.842l-7.766-4.006,12.444-9.081Zm33.143-20.656L53.473,127.1l26.079-16.213Zm.279.188,5-1.26,4.383,5.493-7.9,5.67Zm17.652,14.2-7.916-9.916,14.155-10.165Zm54.089-41.7L125.018,114.49l-19.131-.427Zm-48.227,21.584L90.8,124.463l-4.321-5.414Zm-23.551,5.674-1.348-9,6.211,7.777ZM39.856,136.663,27.08,116.9l25.4,10.552ZM26.7,116.761l12.856,19.893L1.942,119.67Zm13.285,20.33,7.733,3.986-6.7,18.726ZM41.175,160.1l6.762-18.909,11.388,5.873ZM59.8,147.032l22.72-16.319,1.832,12.24-15.458,8.771Zm9.183,5.1,19.709,20.106L61.8,203.059Zm-6.909,50.982,26.7-30.594.048.322.024-.092,3.835,16.792ZM88.9,171.628l-4.274-28.539,14.1-8Zm10.259-37.134,6.272-20.193,19.277.427Zm26.257-20,28.3-21.9-2,22.482Zm24.312,25.736,2.218-24.9,19.566.435Zm2.24-25.151,2-22.43,17.561,22.866Zm20.806-.17,32.051-29.106,11.742,3.1Zm44.091-26.178L205.38,85.7l23.1-3.863Zm.337.086,11.784-7-.176,10.065Zm11.851,3.391,4.371,1.153,10.418,27.572.007.021-15.6,17.087ZM243.966,121.2l2.647,8.287-17.974,8.5Zm-15.43,17.116,18.152-8.591,3.9,12.208Zm50.016,8.457-7.36,9.947-17.132-4.727-3.111-9.748Zm-24.464,5.482,16.947,4.681-17.227,23.3Zm.042,27.955L271.29,157l15.629,4.313Zm33.515-19,18.712-9.845,13.33,13.933Zm64.589,37.754-31.886-33.329,35.664,4.551Zm4.011-28.657,14.244,10.953-18,17.637Zm14.442,11.1,11.093,8.53-29,9.024ZM353.032,199.14l28.99-9.02L396.47,201.23Zm43.736,2.006L382.312,190.03l16.825-5.232Zm.259-.055,2.373-16.377,32.735-10.184Zm2.413-16.648,5.244-36.191,27.849,25.9Zm33.181-10.554L404.782,148l23.349-20.431Zm-4.288-46.822-1.774-18.3,17.756,4.313Zm16.212-14.185-17.711-4.3L467.4,92.888Zm23.4-20.145,8.2,27.817-31.3-7.6Zm.256-.007,42.654,17.552-34.444,10.288Zm36.025,65.407-27.663-37.3,52.677-2.9Zm25.9-40.373,16.6-4.324,2.085,6.6Zm24.016,3.183-1.982,8.884-3-9.49Zm29.415,3.5,15.1-4.053,4.8,23.039Zm20.711,19.381,15.248-2.443,8.392,8.509Zm24.244,6.31,20.318-13.389,12.256,42.709Zm32.735,28.984-12.2-42.514,15.675-9.55Zm3.493-52.366-15.564,9.484L666.76,96.463Zm2.3-30.784,25.464,13.867L665,126.6Zm.174-.186,42.569-17.75-17.08,31.629ZM693,109.746l35.2-39.3,10.737,46.109Zm35.7-40.052,8.684-14.8,6.144,3.2Zm19.234-14.73,4.878,7.684-8.826-4.6ZM770.066,22.5l8.722.514-7.7,13.346Zm8.957.6,19.691,12.892-27.5.646Z" transform="translate(0.502 0.682)" fill="none" stroke="#fff" stroke-miterlimit="10" stroke-width="0.07"/>
      <g id="グループ_7638" data-name="グループ 7638">
        <g id="グループ_7637" data-name="グループ 7637" clip-path="url(#clip-path)">
          <path id="パス_1859" data-name="パス 1859" d="M69.721,91.66a2.233,2.233,0,1,1-2.3-2.17,2.231,2.231,0,0,1,2.3,2.17" transform="translate(31.934 43.792)" fill="#fff"/>
          <path id="パス_1860" data-name="パス 1860" d="M69.721,91.66a2.233,2.233,0,1,1-2.3-2.17A2.231,2.231,0,0,1,69.721,91.66Z" transform="translate(31.934 43.792)" fill="none" stroke="#fff" stroke-miterlimit="10" stroke-width="1"/>
          <path id="パス_1861" data-name="パス 1861" d="M65.628,128.442a2.231,2.231,0,1,1-2.3-2.168,2.231,2.231,0,0,1,2.3,2.168" transform="translate(29.932 61.792)" fill="#fff"/>
          <path id="パス_1862" data-name="パス 1862" d="M65.628,128.442a2.231,2.231,0,1,1-2.3-2.168A2.231,2.231,0,0,1,65.628,128.442Z" transform="translate(29.932 61.792)" fill="none" stroke="#fff" stroke-miterlimit="10" stroke-width="1"/>
          <path id="パス_1863" data-name="パス 1863" d="M106.614,63.119a2.233,2.233,0,1,1-2.3-2.168,2.234,2.234,0,0,1,2.3,2.168" transform="translate(49.987 29.826)" fill="#fff"/>
          <path id="パス_1864" data-name="パス 1864" d="M106.614,63.119a2.233,2.233,0,1,1-2.3-2.168A2.234,2.234,0,0,1,106.614,63.119Z" transform="translate(49.987 29.826)" fill="none" stroke="#fff" stroke-miterlimit="10" stroke-width="1"/>
          <path id="パス_1865" data-name="パス 1865" d="M56.12,75.3a1.737,1.737,0,1,1-1.784-1.686A1.735,1.735,0,0,1,56.12,75.3" transform="translate(25.763 36.022)" fill="#fff"/>
          <path id="パス_1866" data-name="パス 1866" d="M56.12,75.3a1.737,1.737,0,1,1-1.784-1.686A1.735,1.735,0,0,1,56.12,75.3Z" transform="translate(25.763 36.022)" fill="none" stroke="#fff" stroke-miterlimit="10" stroke-width="1"/>
          <path id="パス_1867" data-name="パス 1867" d="M79.377,46.139a1.737,1.737,0,1,1-1.784-1.686,1.731,1.731,0,0,1,1.784,1.686" transform="translate(37.144 21.753)" fill="#fff"/>
          <path id="パス_1868" data-name="パス 1868" d="M79.377,46.139a1.737,1.737,0,1,1-1.784-1.686A1.731,1.731,0,0,1,79.377,46.139Z" transform="translate(37.144 21.753)" fill="none" stroke="#fff" stroke-miterlimit="10" stroke-width="1"/>
          <path id="パス_1869" data-name="パス 1869" d="M30.122,108.7a1.737,1.737,0,1,1-1.786-1.69,1.737,1.737,0,0,1,1.786,1.69" transform="translate(13.041 52.367)" fill="#fff"/>
          <path id="パス_1870" data-name="パス 1870" d="M30.122,108.7a1.737,1.737,0,1,1-1.786-1.69A1.737,1.737,0,0,1,30.122,108.7Z" transform="translate(13.041 52.367)" fill="none" stroke="#fff" stroke-miterlimit="10" stroke-width="1"/>
          <path id="パス_1871" data-name="パス 1871" d="M48.9,102.947a1.737,1.737,0,1,1-1.786-1.687,1.739,1.739,0,0,1,1.786,1.687" transform="translate(22.231 49.552)" fill="#fff"/>
          <path id="パス_1872" data-name="パス 1872" d="M48.9,102.947a1.737,1.737,0,1,1-1.786-1.687A1.739,1.739,0,0,1,48.9,102.947Z" transform="translate(22.231 49.552)" fill="none" stroke="#fff" stroke-miterlimit="10" stroke-width="1"/>
          <path id="パス_1873" data-name="パス 1873" d="M140.144,58.5a1.737,1.737,0,1,1-1.784-1.69,1.731,1.731,0,0,1,1.784,1.69" transform="translate(66.881 27.802)" fill="#fff"/>
          <path id="パス_1874" data-name="パス 1874" d="M140.144,58.5a1.737,1.737,0,1,1-1.784-1.69A1.731,1.731,0,0,1,140.144,58.5Z" transform="translate(66.881 27.802)" fill="none" stroke="#fff" stroke-miterlimit="10" stroke-width="1"/>
          <path id="パス_1875" data-name="パス 1875" d="M144.3,28.551a1.737,1.737,0,1,1-1.784-1.687,1.734,1.734,0,0,1,1.784,1.687" transform="translate(68.912 13.145)" fill="#fff"/>
          <path id="パス_1876" data-name="パス 1876" d="M144.3,28.551a1.737,1.737,0,1,1-1.784-1.687A1.734,1.734,0,0,1,144.3,28.551Z" transform="translate(68.912 13.145)" fill="none" stroke="#fff" stroke-miterlimit="10" stroke-width="1"/>
          <path id="パス_1877" data-name="パス 1877" d="M191.61,33.71a1.737,1.737,0,1,1-1.787-1.686,1.737,1.737,0,0,1,1.787,1.686" transform="translate(92.066 15.671)" fill="#fff"/>
          <path id="パス_1878" data-name="パス 1878" d="M191.61,33.71a1.737,1.737,0,1,1-1.787-1.686A1.737,1.737,0,0,1,191.61,33.71Z" transform="translate(92.066 15.671)" fill="none" stroke="#fff" stroke-miterlimit="10" stroke-width="1"/>
          <path id="パス_1879" data-name="パス 1879" d="M20.61,79.289A1.737,1.737,0,1,1,18.825,77.6a1.734,1.734,0,0,1,1.786,1.689" transform="translate(8.386 37.974)" fill="#fff"/>
          <path id="パス_1880" data-name="パス 1880" d="M20.61,79.289A1.737,1.737,0,1,1,18.825,77.6,1.734,1.734,0,0,1,20.61,79.289Z" transform="translate(8.386 37.974)" fill="none" stroke="#fff" stroke-miterlimit="10" stroke-width="1"/>
          <path id="パス_1881" data-name="パス 1881" d="M37.391,86.383a1.241,1.241,0,1,1-1.276-1.2,1.241,1.241,0,0,1,1.276,1.2" transform="translate(17.083 41.682)" fill="#fff"/>
          <path id="パス_1882" data-name="パス 1882" d="M37.391,86.383a1.241,1.241,0,1,1-1.276-1.2A1.241,1.241,0,0,1,37.391,86.383Z" transform="translate(17.083 41.682)" fill="none" stroke="#fff" stroke-miterlimit="10" stroke-width="1"/>
          <path id="パス_1883" data-name="パス 1883" d="M2.98,81.135a1.24,1.24,0,1,1-1.273-1.206A1.239,1.239,0,0,1,2.98,81.135" transform="translate(0.244 39.113)" fill="#fff"/>
          <path id="パス_1884" data-name="パス 1884" d="M2.98,81.135a1.24,1.24,0,1,1-1.273-1.206A1.239,1.239,0,0,1,2.98,81.135Z" transform="translate(0.244 39.113)" fill="none" stroke="#fff" stroke-miterlimit="10" stroke-width="1"/>
          <path id="パス_1885" data-name="パス 1885" d="M28.681,92.738a1.24,1.24,0,1,1-1.275-1.2,1.24,1.24,0,0,1,1.275,1.2" transform="translate(12.821 44.792)" fill="#fff"/>
          <path id="パス_1886" data-name="パス 1886" d="M28.681,92.738a1.24,1.24,0,1,1-1.275-1.2A1.24,1.24,0,0,1,28.681,92.738Z" transform="translate(12.821 44.792)" fill="none" stroke="#fff" stroke-miterlimit="10" stroke-width="1"/>
          <path id="パス_1887" data-name="パス 1887" d="M61.648,116.474a1.24,1.24,0,1,1-1.275-1.2,1.239,1.239,0,0,1,1.275,1.2" transform="translate(28.954 56.407)" fill="#fff"/>
          <path id="パス_1888" data-name="パス 1888" d="M61.648,116.474a1.24,1.24,0,1,1-1.275-1.2A1.239,1.239,0,0,1,61.648,116.474Z" transform="translate(28.954 56.407)" fill="none" stroke="#fff" stroke-miterlimit="10" stroke-width="1"/>
          <path id="パス_1889" data-name="パス 1889" d="M43.354,137.436a1.241,1.241,0,1,1-1.276-1.2,1.239,1.239,0,0,1,1.276,1.2" transform="translate(20.001 66.665)" fill="#fff"/>
          <path id="パス_1890" data-name="パス 1890" d="M43.354,137.436a1.241,1.241,0,1,1-1.276-1.2A1.239,1.239,0,0,1,43.354,137.436Z" transform="translate(20.001 66.665)" fill="none" stroke="#fff" stroke-miterlimit="10" stroke-width="1"/>
          <path id="パス_1891" data-name="パス 1891" d="M72.713,77.493a1.242,1.242,0,1,1-1.276-1.206,1.245,1.245,0,0,1,1.276,1.206" transform="translate(34.367 37.331)" fill="#fff"/>
          <path id="パス_1892" data-name="パス 1892" d="M72.713,77.493a1.242,1.242,0,1,1-1.276-1.206A1.245,1.245,0,0,1,72.713,77.493Z" transform="translate(34.367 37.331)" fill="none" stroke="#fff" stroke-miterlimit="10" stroke-width="1"/>
          <path id="パス_1893" data-name="パス 1893" d="M117.322,78.479a1.24,1.24,0,1,1-1.275-1.2,1.239,1.239,0,0,1,1.275,1.2" transform="translate(56.199 37.815)" fill="#fff"/>
          <path id="パス_1894" data-name="パス 1894" d="M117.322,78.479a1.24,1.24,0,1,1-1.275-1.2A1.239,1.239,0,0,1,117.322,78.479Z" transform="translate(56.199 37.815)" fill="none" stroke="#fff" stroke-miterlimit="10" stroke-width="1"/>
          <path id="パス_1895" data-name="パス 1895" d="M102.409,95.232a1.241,1.241,0,1,1-1.276-1.206,1.242,1.242,0,0,1,1.276,1.206" transform="translate(48.9 46.012)" fill="#fff"/>
          <path id="パス_1896" data-name="パス 1896" d="M102.409,95.232a1.241,1.241,0,1,1-1.276-1.206A1.242,1.242,0,0,1,102.409,95.232Z" transform="translate(48.9 46.012)" fill="none" stroke="#fff" stroke-miterlimit="10" stroke-width="1"/>
          <path id="パス_1897" data-name="パス 1897" d="M195.553,111.012a2.232,2.232,0,1,1-.088-3.156,2.231,2.231,0,0,1,.088,3.156" transform="translate(93.809 52.481)" fill="#fff"/>
          <path id="パス_1898" data-name="パス 1898" d="M195.553,111.012a2.232,2.232,0,1,1-.088-3.156A2.231,2.231,0,0,1,195.553,111.012Z" transform="translate(93.809 52.481)" fill="none" stroke="#fff" stroke-miterlimit="10" stroke-width="1"/>
          <path id="パス_1899" data-name="パス 1899" d="M241.822,116.918a2.234,2.234,0,1,1-.089-3.157,2.233,2.233,0,0,1,.089,3.157" transform="translate(116.45 55.371)" fill="#fff"/>
          <path id="パス_1900" data-name="パス 1900" d="M241.822,116.918a2.234,2.234,0,1,1-.089-3.157A2.233,2.233,0,0,1,241.822,116.918Z" transform="translate(116.45 55.371)" fill="none" stroke="#fff" stroke-miterlimit="10" stroke-width="1"/>
          <path id="パス_1901" data-name="パス 1901" d="M197.343,89.894a1.738,1.738,0,1,1-.07-2.457,1.739,1.739,0,0,1,.07,2.457" transform="translate(95.103 42.556)" fill="#fff"/>
          <path id="パス_1902" data-name="パス 1902" d="M197.343,89.894a1.738,1.738,0,1,1-.07-2.457A1.739,1.739,0,0,1,197.343,89.894Z" transform="translate(95.103 42.556)" fill="none" stroke="#fff" stroke-miterlimit="10" stroke-width="1"/>
          <path id="パス_1903" data-name="パス 1903" d="M146.971,10.612a1.737,1.737,0,1,1-.07-2.454,1.735,1.735,0,0,1,.07,2.454" transform="translate(70.454 3.759)" fill="#fff"/>
          <path id="パス_1904" data-name="パス 1904" d="M146.971,10.612a1.737,1.737,0,1,1-.07-2.454A1.735,1.735,0,0,1,146.971,10.612Z" transform="translate(70.454 3.759)" fill="none" stroke="#fff" stroke-miterlimit="10" stroke-width="1"/>
          <path id="パス_1905" data-name="パス 1905" d="M234.406,85.72a1.737,1.737,0,1,1-.07-2.454,1.738,1.738,0,0,1,.07,2.454" transform="translate(113.241 40.514)" fill="#fff"/>
          <path id="パス_1906" data-name="パス 1906" d="M234.406,85.72a1.737,1.737,0,1,1-.07-2.454A1.738,1.738,0,0,1,234.406,85.72Z" transform="translate(113.241 40.514)" fill="none" stroke="#fff" stroke-miterlimit="10" stroke-width="1"/>
          <path id="パス_1907" data-name="パス 1907" d="M155.34,95.127a1.737,1.737,0,1,1-.072-2.454,1.737,1.737,0,0,1,.072,2.454" transform="translate(74.549 45.118)" fill="#fff"/>
          <path id="パス_1908" data-name="パス 1908" d="M155.34,95.127a1.737,1.737,0,1,1-.072-2.454A1.737,1.737,0,0,1,155.34,95.127Z" transform="translate(74.549 45.118)" fill="none" stroke="#fff" stroke-miterlimit="10" stroke-width="1"/>
          <path id="パス_1909" data-name="パス 1909" d="M172.69,104.339a1.737,1.737,0,1,1-.07-2.454,1.738,1.738,0,0,1,.07,2.454" transform="translate(83.038 49.626)" fill="#fff"/>
          <path id="パス_1910" data-name="パス 1910" d="M172.69,104.339a1.737,1.737,0,1,1-.07-2.454A1.738,1.738,0,0,1,172.69,104.339Z" transform="translate(83.038 49.626)" fill="none" stroke="#fff" stroke-miterlimit="10" stroke-width="1"/>
          <path id="パス_1911" data-name="パス 1911" d="M268.635,137.431a1.737,1.737,0,1,1-.07-2.456,1.739,1.739,0,0,1,.07,2.456" transform="translate(129.99 65.819)" fill="#fff"/>
          <path id="パス_1912" data-name="パス 1912" d="M268.635,137.431a1.737,1.737,0,1,1-.07-2.456A1.739,1.739,0,0,1,268.635,137.431Z" transform="translate(129.99 65.819)" fill="none" stroke="#fff" stroke-miterlimit="10" stroke-width="1"/>
          <path id="パス_1913" data-name="パス 1913" d="M292.749,119.186a1.736,1.736,0,1,1-.07-2.453,1.737,1.737,0,0,1,.07,2.453" transform="translate(141.791 56.891)" fill="#fff"/>
          <path id="パス_1914" data-name="パス 1914" d="M292.749,119.186a1.736,1.736,0,1,1-.07-2.453A1.737,1.737,0,0,1,292.749,119.186Z" transform="translate(141.791 56.891)" fill="none" stroke="#fff" stroke-miterlimit="10" stroke-width="1"/>
          <path id="パス_1915" data-name="パス 1915" d="M169.411,67.606a1.737,1.737,0,1,1-.07-2.457,1.739,1.739,0,0,1,.07,2.457" transform="translate(81.435 31.649)" fill="#fff"/>
          <path id="パス_1916" data-name="パス 1916" d="M169.411,67.606a1.737,1.737,0,1,1-.07-2.457A1.739,1.739,0,0,1,169.411,67.606Z" transform="translate(81.435 31.649)" fill="none" stroke="#fff" stroke-miterlimit="10" stroke-width="1"/>
          <path id="パス_1917" data-name="パス 1917" d="M176.1,84.553a1.242,1.242,0,1,1-.051-1.753,1.241,1.241,0,0,1,.051,1.753" transform="translate(85.126 40.353)" fill="#fff"/>
          <path id="パス_1918" data-name="パス 1918" d="M176.1,84.553a1.242,1.242,0,1,1-.051-1.753A1.241,1.241,0,0,1,176.1,84.553Z" transform="translate(85.126 40.353)" fill="none" stroke="#fff" stroke-miterlimit="10" stroke-width="1"/>
          <path id="パス_1919" data-name="パス 1919" d="M155.479,56.51a1.241,1.241,0,1,1-.049-1.754,1.238,1.238,0,0,1,.049,1.754" transform="translate(75.036 26.63)" fill="#fff"/>
          <path id="パス_1920" data-name="パス 1920" d="M155.479,56.51a1.241,1.241,0,1,1-.049-1.754A1.238,1.238,0,0,1,155.479,56.51Z" transform="translate(75.036 26.63)" fill="none" stroke="#fff" stroke-miterlimit="10" stroke-width="1"/>
          <path id="パス_1921" data-name="パス 1921" d="M175.886,47.635a1.242,1.242,0,1,1-.051-1.754,1.24,1.24,0,0,1,.051,1.754" transform="translate(85.022 22.286)" fill="#fff"/>
          <path id="パス_1922" data-name="パス 1922" d="M175.886,47.635a1.242,1.242,0,1,1-.051-1.754A1.24,1.24,0,0,1,175.886,47.635Z" transform="translate(85.022 22.286)" fill="none" stroke="#fff" stroke-miterlimit="10" stroke-width="1"/>
          <path id="パス_1923" data-name="パス 1923" d="M174.115,12.406a1.241,1.241,0,1,1-.049-1.753,1.242,1.242,0,0,1,.049,1.753" transform="translate(84.156 5.047)" fill="#fff"/>
          <path id="パス_1924" data-name="パス 1924" d="M174.115,12.406a1.241,1.241,0,1,1-.049-1.753A1.242,1.242,0,0,1,174.115,12.406Z" transform="translate(84.156 5.047)" fill="none" stroke="#fff" stroke-miterlimit="10" stroke-width="1"/>
          <path id="パス_1925" data-name="パス 1925" d="M165.446,82.888a1.241,1.241,0,1,1-.051-1.753,1.242,1.242,0,0,1,.051,1.753" transform="translate(79.913 39.538)" fill="#fff"/>
          <path id="パス_1926" data-name="パス 1926" d="M165.446,82.888a1.241,1.241,0,1,1-.051-1.753A1.242,1.242,0,0,1,165.446,82.888Z" transform="translate(79.913 39.538)" fill="none" stroke="#fff" stroke-miterlimit="10" stroke-width="1"/>
          <path id="パス_1927" data-name="パス 1927" d="M171.974,122.984a1.241,1.241,0,1,1-.051-1.754,1.242,1.242,0,0,1,.051,1.754" transform="translate(83.108 59.159)" fill="#fff"/>
          <path id="パス_1928" data-name="パス 1928" d="M171.974,122.984a1.241,1.241,0,1,1-.051-1.754A1.242,1.242,0,0,1,171.974,122.984Z" transform="translate(83.108 59.159)" fill="none" stroke="#fff" stroke-miterlimit="10" stroke-width="1"/>
          <path id="パス_1929" data-name="パス 1929" d="M207.361,103.243a1.241,1.241,0,1,1-.051-1.754,1.241,1.241,0,0,1,.051,1.754" transform="translate(100.425 49.498)" fill="#fff"/>
          <path id="パス_1930" data-name="パス 1930" d="M207.361,103.243a1.241,1.241,0,1,1-.051-1.754A1.241,1.241,0,0,1,207.361,103.243Z" transform="translate(100.425 49.498)" fill="none" stroke="#fff" stroke-miterlimit="10" stroke-width="1"/>
          <path id="パス_1931" data-name="パス 1931" d="M238.206,135.487a1.241,1.241,0,1,1-.049-1.754,1.241,1.241,0,0,1,.049,1.754" transform="translate(115.519 65.277)" fill="#fff"/>
          <path id="パス_1932" data-name="パス 1932" d="M238.206,135.487a1.241,1.241,0,1,1-.049-1.754A1.241,1.241,0,0,1,238.206,135.487Z" transform="translate(115.519 65.277)" fill="none" stroke="#fff" stroke-miterlimit="10" stroke-width="1"/>
          <path id="パス_1933" data-name="パス 1933" d="M486.356,34.861a2.234,2.234,0,1,1,2.979,1.051,2.235,2.235,0,0,1-2.979-1.051" transform="translate(237.895 15.495)" fill="#fff"/>
          <path id="パス_1934" data-name="パス 1934" d="M486.356,34.861a2.234,2.234,0,1,1,2.979,1.051A2.235,2.235,0,0,1,486.356,34.861Z" transform="translate(237.895 15.495)" fill="none" stroke="#fff" stroke-miterlimit="10" stroke-width="1"/>
          <path id="パス_1935" data-name="パス 1935" d="M464.352,75.689a1.956,1.956,0,1,1,2.606.92,1.957,1.957,0,0,1-2.606-.92" transform="translate(227.14 35.67)" fill="#fff"/>
          <path id="パス_1936" data-name="パス 1936" d="M464.352,75.689a1.956,1.956,0,1,1,2.606.92A1.957,1.957,0,0,1,464.352,75.689Z" transform="translate(227.14 35.67)" fill="none" stroke="#fff" stroke-miterlimit="10" stroke-width="1"/>
          <path id="パス_1937" data-name="パス 1937" d="M505.043,44.059a1.737,1.737,0,1,1,2.316.818,1.74,1.74,0,0,1-2.316-.818" transform="translate(247.063 20.344)" fill="#fff"/>
          <path id="パス_1938" data-name="パス 1938" d="M505.043,44.059a1.737,1.737,0,1,1,2.316.818A1.74,1.74,0,0,1,505.043,44.059Z" transform="translate(247.063 20.344)" fill="none" stroke="#fff" stroke-miterlimit="10" stroke-width="1"/>
          <path id="パス_1939" data-name="パス 1939" d="M495.595,80.14a1.738,1.738,0,1,1,2.316.819,1.739,1.739,0,0,1-2.316-.819" transform="translate(242.44 38.001)" fill="#fff"/>
          <path id="パス_1940" data-name="パス 1940" d="M495.595,80.14a1.738,1.738,0,1,1,2.316.819A1.739,1.739,0,0,1,495.595,80.14Z" transform="translate(242.44 38.001)" fill="none" stroke="#fff" stroke-miterlimit="10" stroke-width="1"/>
          <path id="パス_1941" data-name="パス 1941" d="M476.109,54.014a1.737,1.737,0,1,1,2.317.821,1.736,1.736,0,0,1-2.317-.821" transform="translate(232.904 25.216)" fill="#fff"/>
          <path id="パス_1942" data-name="パス 1942" d="M476.109,54.014a1.737,1.737,0,1,1,2.317.821A1.736,1.736,0,0,1,476.109,54.014Z" transform="translate(232.904 25.216)" fill="none" stroke="#fff" stroke-miterlimit="10" stroke-width="1"/>
          <path id="パス_1943" data-name="パス 1943" d="M515.275,2.986a1.736,1.736,0,1,1,2.316.818,1.737,1.737,0,0,1-2.316-.818" transform="translate(252.07 0.244)" fill="#fff"/>
          <path id="パス_1944" data-name="パス 1944" d="M515.275,2.986a1.736,1.736,0,1,1,2.316.818A1.737,1.737,0,0,1,515.275,2.986Z" transform="translate(252.07 0.244)" fill="none" stroke="#fff" stroke-miterlimit="10" stroke-width="1"/>
          <path id="パス_1945" data-name="パス 1945" d="M500.437,15.857a1.737,1.737,0,1,1,2.316.821,1.737,1.737,0,0,1-2.316-.821" transform="translate(244.809 6.543)" fill="#fff"/>
          <path id="パス_1946" data-name="パス 1946" d="M500.437,15.857a1.737,1.737,0,1,1,2.316.821A1.737,1.737,0,0,1,500.437,15.857Z" transform="translate(244.809 6.543)" fill="none" stroke="#fff" stroke-miterlimit="10" stroke-width="1"/>
          <path id="パス_1947" data-name="パス 1947" d="M435.031,93.464a1.738,1.738,0,1,1,2.319.819,1.74,1.74,0,0,1-2.319-.819" transform="translate(212.802 44.52)" fill="#fff"/>
          <path id="パス_1948" data-name="パス 1948" d="M435.031,93.464a1.738,1.738,0,1,1,2.319.819A1.74,1.74,0,0,1,435.031,93.464Z" transform="translate(212.802 44.52)" fill="none" stroke="#fff" stroke-miterlimit="10" stroke-width="1"/>
          <path id="パス_1949" data-name="パス 1949" d="M443.374,122.525a1.737,1.737,0,1,1,2.316.821,1.735,1.735,0,0,1-2.316-.821" transform="translate(216.885 58.743)" fill="#fff"/>
          <path id="パス_1950" data-name="パス 1950" d="M443.374,122.525a1.737,1.737,0,1,1,2.316.821A1.735,1.735,0,0,1,443.374,122.525Z" transform="translate(216.885 58.743)" fill="none" stroke="#fff" stroke-miterlimit="10" stroke-width="1"/>
          <path id="パス_1951" data-name="パス 1951" d="M535.888,26.022a1.736,1.736,0,1,1,2.317.819,1.74,1.74,0,0,1-2.317-.819" transform="translate(262.158 11.517)" fill="#fff"/>
          <path id="パス_1952" data-name="パス 1952" d="M535.888,26.022a1.736,1.736,0,1,1,2.317.819A1.74,1.74,0,0,1,535.888,26.022Z" transform="translate(262.158 11.517)" fill="none" stroke="#fff" stroke-miterlimit="10" stroke-width="1"/>
          <path id="パス_1953" data-name="パス 1953" d="M517.3,26.089a1.24,1.24,0,1,1,1.653.584,1.24,1.24,0,0,1-1.653-.584" transform="translate(253.083 11.898)" fill="#fff"/>
          <path id="パス_1954" data-name="パス 1954" d="M517.3,26.089a1.24,1.24,0,1,1,1.653.584A1.24,1.24,0,0,1,517.3,26.089Z" transform="translate(253.083 11.898)" fill="none" stroke="#fff" stroke-miterlimit="10" stroke-width="1"/>
          <path id="パス_1955" data-name="パス 1955" d="M550.88,16.945a1.24,1.24,0,1,1,1.655.585,1.242,1.242,0,0,1-1.655-.585" transform="translate(269.518 7.423)" fill="#fff"/>
          <path id="パス_1956" data-name="パス 1956" d="M550.88,16.945a1.24,1.24,0,1,1,1.655.585A1.242,1.242,0,0,1,550.88,16.945Z" transform="translate(269.518 7.423)" fill="none" stroke="#fff" stroke-miterlimit="10" stroke-width="1"/>
          <path id="パス_1957" data-name="パス 1957" d="M522.683,16.75a1.239,1.239,0,1,1,1.652.585,1.24,1.24,0,0,1-1.652-.585" transform="translate(255.719 7.327)" fill="#fff"/>
          <path id="パス_1958" data-name="パス 1958" d="M522.683,16.75a1.239,1.239,0,1,1,1.652.585A1.24,1.24,0,0,1,522.683,16.75Z" transform="translate(255.719 7.327)" fill="none" stroke="#fff" stroke-miterlimit="10" stroke-width="1"/>
          <path id="パス_1959" data-name="パス 1959" d="M482.925,8.409a1.24,1.24,0,1,1,1.652.585,1.239,1.239,0,0,1-1.652-.585" transform="translate(236.263 3.246)" fill="#fff"/>
          <path id="パス_1960" data-name="パス 1960" d="M482.925,8.409a1.24,1.24,0,1,1,1.652.585A1.239,1.239,0,0,1,482.925,8.409Z" transform="translate(236.263 3.246)" fill="none" stroke="#fff" stroke-miterlimit="10" stroke-width="1"/>
          <path id="パス_1961" data-name="パス 1961" d="M493.574,25.157a1.241,1.241,0,1,1,1.655.587,1.243,1.243,0,0,1-1.655-.587" transform="translate(241.475 11.442)" fill="#fff"/>
          <path id="パス_1962" data-name="パス 1962" d="M493.574,25.157a1.241,1.241,0,1,1,1.655.587A1.243,1.243,0,0,1,493.574,25.157Z" transform="translate(241.475 11.442)" fill="none" stroke="#fff" stroke-miterlimit="10" stroke-width="1"/>
          <path id="パス_1963" data-name="パス 1963" d="M498.165,32.308a1.24,1.24,0,1,1,1.652.587,1.237,1.237,0,0,1-1.652-.587" transform="translate(243.721 14.942)" fill="#fff"/>
          <path id="パス_1964" data-name="パス 1964" d="M498.165,32.308a1.24,1.24,0,1,1,1.652.587A1.237,1.237,0,0,1,498.165,32.308Z" transform="translate(243.721 14.942)" fill="none" stroke="#fff" stroke-miterlimit="10" stroke-width="1"/>
          <path id="パス_1965" data-name="パス 1965" d="M488.607,48.532a1.241,1.241,0,1,1,1.655.584,1.241,1.241,0,0,1-1.655-.584" transform="translate(239.044 22.88)" fill="#fff"/>
          <path id="パス_1966" data-name="パス 1966" d="M488.607,48.532a1.241,1.241,0,1,1,1.655.584A1.241,1.241,0,0,1,488.607,48.532Z" transform="translate(239.044 22.88)" fill="none" stroke="#fff" stroke-miterlimit="10" stroke-width="1"/>
          <path id="パス_1967" data-name="パス 1967" d="M447.285,65.888a1.482,1.482,0,1,1,1.975.7,1.482,1.482,0,0,1-1.975-.7" transform="translate(218.811 31.205)" fill="#fff"/>
          <path id="パス_1968" data-name="パス 1968" d="M447.285,65.888a1.482,1.482,0,1,1,1.975.7A1.482,1.482,0,0,1,447.285,65.888Z" transform="translate(218.811 31.205)" fill="none" stroke="#fff" stroke-miterlimit="10" stroke-width="1"/>
          <path id="パス_1969" data-name="パス 1969" d="M363.642,68.157a1.961,1.961,0,1,1,1.2,2.5,1.96,1.96,0,0,1-1.2-2.5" transform="translate(177.896 32.714)" fill="#fff"/>
          <path id="パス_1970" data-name="パス 1970" d="M363.642,68.157a1.961,1.961,0,1,1,1.2,2.5A1.96,1.96,0,0,1,363.642,68.157Z" transform="translate(177.896 32.714)" fill="none" stroke="#fff" stroke-miterlimit="10" stroke-width="1"/>
          <path id="パス_1971" data-name="パス 1971" d="M318.783,81.507a2.233,2.233,0,1,1,1.363,2.849,2.234,2.234,0,0,1-1.363-2.849" transform="translate(155.936 39.157)" fill="#fff"/>
          <path id="パス_1972" data-name="パス 1972" d="M318.783,81.507a2.233,2.233,0,1,1,1.363,2.849A2.234,2.234,0,0,1,318.783,81.507Z" transform="translate(155.936 39.157)" fill="none" stroke="#fff" stroke-miterlimit="10" stroke-width="1"/>
          <path id="パス_1973" data-name="パス 1973" d="M370.021,87.943a1.736,1.736,0,1,1,1.059,2.219,1.735,1.735,0,0,1-1.059-2.219" transform="translate(181.023 42.468)" fill="#fff"/>
          <path id="パス_1974" data-name="パス 1974" d="M370.021,87.943a1.736,1.736,0,1,1,1.059,2.219A1.735,1.735,0,0,1,370.021,87.943Z" transform="translate(181.023 42.468)" fill="none" stroke="#fff" stroke-miterlimit="10" stroke-width="1"/>
          <path id="パス_1975" data-name="パス 1975" d="M391.371,70.015a1.736,1.736,0,1,1,1.057,2.216,1.737,1.737,0,0,1-1.057-2.216" transform="translate(191.471 33.695)" fill="#fff"/>
          <path id="パス_1976" data-name="パス 1976" d="M391.371,70.015a1.736,1.736,0,1,1,1.057,2.216A1.737,1.737,0,0,1,391.371,70.015Z" transform="translate(191.471 33.695)" fill="none" stroke="#fff" stroke-miterlimit="10" stroke-width="1"/>
          <path id="パス_1977" data-name="パス 1977" d="M372.949,74.821a1.736,1.736,0,1,1,1.059,2.218,1.736,1.736,0,0,1-1.059-2.218" transform="translate(182.456 36.047)" fill="#fff"/>
          <path id="パス_1978" data-name="パス 1978" d="M372.949,74.821a1.736,1.736,0,1,1,1.059,2.218A1.736,1.736,0,0,1,372.949,74.821Z" transform="translate(182.456 36.047)" fill="none" stroke="#fff" stroke-miterlimit="10" stroke-width="1"/>
          <path id="パス_1979" data-name="パス 1979" d="M337.826,106.778a1.737,1.737,0,1,1,1.057,2.216,1.741,1.741,0,0,1-1.057-2.216" transform="translate(165.268 51.685)" fill="#fff"/>
          <path id="パス_1980" data-name="パス 1980" d="M337.826,106.778a1.737,1.737,0,1,1,1.057,2.216A1.741,1.741,0,0,1,337.826,106.778Z" transform="translate(165.268 51.685)" fill="none" stroke="#fff" stroke-miterlimit="10" stroke-width="1"/>
          <path id="パス_1981" data-name="パス 1981" d="M406.3,66.134a1.736,1.736,0,1,1,1.057,2.216,1.736,1.736,0,0,1-1.057-2.216" transform="translate(198.776 31.797)" fill="#fff"/>
          <path id="パス_1982" data-name="パス 1982" d="M406.3,66.134a1.736,1.736,0,1,1,1.057,2.216A1.736,1.736,0,0,1,406.3,66.134Z" transform="translate(198.776 31.797)" fill="none" stroke="#fff" stroke-miterlimit="10" stroke-width="1"/>
          <path id="パス_1983" data-name="パス 1983" d="M386.7,64.745a1.736,1.736,0,1,1,1.059,2.218,1.736,1.736,0,0,1-1.059-2.218" transform="translate(189.188 31.116)" fill="#fff"/>
          <path id="パス_1984" data-name="パス 1984" d="M386.7,64.745a1.736,1.736,0,1,1,1.059,2.218A1.736,1.736,0,0,1,386.7,64.745Z" transform="translate(189.188 31.116)" fill="none" stroke="#fff" stroke-miterlimit="10" stroke-width="1"/>
          <path id="パス_1985" data-name="パス 1985" d="M285.581,73.373a1.736,1.736,0,1,1,1.057,2.215,1.736,1.736,0,0,1-1.057-2.215" transform="translate(139.702 35.338)" fill="#fff"/>
          <path id="パス_1986" data-name="パス 1986" d="M285.581,73.373a1.736,1.736,0,1,1,1.057,2.215A1.736,1.736,0,0,1,285.581,73.373Z" transform="translate(139.702 35.338)" fill="none" stroke="#fff" stroke-miterlimit="10" stroke-width="1"/>
          <path id="パス_1987" data-name="パス 1987" d="M270.928,99.822a1.737,1.737,0,1,1,1.06,2.218,1.738,1.738,0,0,1-1.06-2.218" transform="translate(132.532 48.281)" fill="#fff"/>
          <path id="パス_1988" data-name="パス 1988" d="M270.928,99.822a1.737,1.737,0,1,1,1.06,2.218A1.738,1.738,0,0,1,270.928,99.822Z" transform="translate(132.532 48.281)" fill="none" stroke="#fff" stroke-miterlimit="10" stroke-width="1"/>
          <path id="パス_1989" data-name="パス 1989" d="M404.586,97a1.737,1.737,0,1,1,1.059,2.215A1.738,1.738,0,0,1,404.586,97" transform="translate(197.938 46.901)" fill="#fff"/>
          <path id="パス_1990" data-name="パス 1990" d="M404.586,97a1.737,1.737,0,1,1,1.059,2.215A1.738,1.738,0,0,1,404.586,97Z" transform="translate(197.938 46.901)" fill="none" stroke="#fff" stroke-miterlimit="10" stroke-width="1"/>
          <path id="パス_1991" data-name="パス 1991" d="M391.227,83.969a1.242,1.242,0,1,1,.755,1.582,1.241,1.241,0,0,1-.755-1.582" transform="translate(191.415 40.686)" fill="#fff"/>
          <path id="パス_1992" data-name="パス 1992" d="M391.227,83.969a1.242,1.242,0,1,1,.755,1.582A1.241,1.241,0,0,1,391.227,83.969Z" transform="translate(191.415 40.686)" fill="none" stroke="#fff" stroke-miterlimit="10" stroke-width="1"/>
          <path id="パス_1993" data-name="パス 1993" d="M421.441,101.252a1.24,1.24,0,1,1,.757,1.582,1.243,1.243,0,0,1-.757-1.582" transform="translate(206.2 49.143)" fill="#fff"/>
          <path id="パス_1994" data-name="パス 1994" d="M421.441,101.252a1.24,1.24,0,1,1,.757,1.582A1.243,1.243,0,0,1,421.441,101.252Z" transform="translate(206.2 49.143)" fill="none" stroke="#fff" stroke-miterlimit="10" stroke-width="1"/>
          <path id="パス_1995" data-name="パス 1995" d="M401.642,81.174a1.24,1.24,0,1,1,.757,1.582,1.242,1.242,0,0,1-.757-1.582" transform="translate(196.511 39.318)" fill="#fff"/>
          <path id="パス_1996" data-name="パス 1996" d="M401.642,81.174a1.24,1.24,0,1,1,.757,1.582A1.242,1.242,0,0,1,401.642,81.174Z" transform="translate(196.511 39.318)" fill="none" stroke="#fff" stroke-miterlimit="10" stroke-width="1"/>
          <path id="パス_1997" data-name="パス 1997" d="M446.025,85.562a1.241,1.241,0,1,1,.755,1.582,1.242,1.242,0,0,1-.755-1.582" transform="translate(218.231 41.465)" fill="#fff"/>
          <path id="パス_1998" data-name="パス 1998" d="M446.025,85.562a1.241,1.241,0,1,1,.755,1.582A1.242,1.242,0,0,1,446.025,85.562Z" transform="translate(218.231 41.465)" fill="none" stroke="#fff" stroke-miterlimit="10" stroke-width="1"/>
          <path id="パス_1999" data-name="パス 1999" d="M379.426,47.163a1.24,1.24,0,1,1,.757,1.582,1.239,1.239,0,0,1-.757-1.582" transform="translate(185.64 22.674)" fill="#fff"/>
          <path id="パス_2000" data-name="パス 2000" d="M379.426,47.163a1.24,1.24,0,1,1,.757,1.582A1.239,1.239,0,0,1,379.426,47.163Z" transform="translate(185.64 22.674)" fill="none" stroke="#fff" stroke-miterlimit="10" stroke-width="1"/>
          <path id="パス_2001" data-name="パス 2001" d="M375.145,66.513A1.241,1.241,0,1,1,375.9,68.1a1.238,1.238,0,0,1-.758-1.583" transform="translate(183.544 32.144)" fill="#fff"/>
          <path id="パス_2002" data-name="パス 2002" d="M375.145,66.513A1.241,1.241,0,1,1,375.9,68.1,1.238,1.238,0,0,1,375.145,66.513Z" transform="translate(183.544 32.144)" fill="none" stroke="#fff" stroke-miterlimit="10" stroke-width="1"/>
          <path id="パス_2003" data-name="パス 2003" d="M397.581,76.6a1.24,1.24,0,1,1,.757,1.582,1.241,1.241,0,0,1-.757-1.582" transform="translate(194.524 37.078)" fill="#fff"/>
          <path id="パス_2004" data-name="パス 2004" d="M397.581,76.6a1.24,1.24,0,1,1,.757,1.582A1.241,1.241,0,0,1,397.581,76.6Z" transform="translate(194.524 37.078)" fill="none" stroke="#fff" stroke-miterlimit="10" stroke-width="1"/>
          <path id="パス_2005" data-name="パス 2005" d="M355.075,79.552a1.24,1.24,0,1,1,.755,1.58,1.237,1.237,0,0,1-.755-1.58" transform="translate(173.723 38.524)" fill="#fff"/>
          <path id="パス_2006" data-name="パス 2006" d="M355.075,79.552a1.24,1.24,0,1,1,.755,1.58A1.237,1.237,0,0,1,355.075,79.552Z" transform="translate(173.723 38.524)" fill="none" stroke="#fff" stroke-miterlimit="10" stroke-width="1"/>
          <path id="パス_2007" data-name="パス 2007" d="M313.807,62.574a1.241,1.241,0,1,1,.757,1.582,1.242,1.242,0,0,1-.757-1.582" transform="translate(153.529 30.215)" fill="#fff"/>
          <path id="パス_2008" data-name="パス 2008" d="M313.807,62.574a1.241,1.241,0,1,1,.757,1.582A1.242,1.242,0,0,1,313.807,62.574Z" transform="translate(153.529 30.215)" fill="none" stroke="#fff" stroke-miterlimit="10" stroke-width="1"/>
          <path id="パス_2009" data-name="パス 2009" d="M287.109,85.9a1.241,1.241,0,1,1,.755,1.583,1.237,1.237,0,0,1-.755-1.583" transform="translate(140.463 41.632)" fill="#fff"/>
          <path id="パス_2010" data-name="パス 2010" d="M287.109,85.9a1.241,1.241,0,1,1,.755,1.583A1.237,1.237,0,0,1,287.109,85.9Z" transform="translate(140.463 41.632)" fill="none" stroke="#fff" stroke-miterlimit="10" stroke-width="1"/>
          <path id="パス_2011" data-name="パス 2011" d="M342.847,74.512a1.24,1.24,0,1,1,.757,1.58,1.238,1.238,0,0,1-.757-1.58" transform="translate(167.74 36.057)" fill="#fff"/>
          <path id="パス_2012" data-name="パス 2012" d="M342.847,74.512a1.24,1.24,0,1,1,.757,1.58A1.238,1.238,0,0,1,342.847,74.512Z" transform="translate(167.74 36.057)" fill="none" stroke="#fff" stroke-miterlimit="10" stroke-width="1"/>
          <path id="パス_2013" data-name="パス 2013" d="M327.019,68.005a1.24,1.24,0,1,1,.757,1.582,1.241,1.241,0,0,1-.757-1.582" transform="translate(159.994 32.873)" fill="#fff"/>
          <path id="パス_2014" data-name="パス 2014" d="M327.019,68.005a1.24,1.24,0,1,1,.757,1.582A1.241,1.241,0,0,1,327.019,68.005Z" transform="translate(159.994 32.873)" fill="none" stroke="#fff" stroke-miterlimit="10" stroke-width="1"/>
          <path id="パス_2015" data-name="パス 2015" d="M316.988,73.4a1.24,1.24,0,1,1,.757,1.582,1.238,1.238,0,0,1-.757-1.582" transform="translate(155.086 35.511)" fill="#fff"/>
          <path id="パス_2016" data-name="パス 2016" d="M316.988,73.4a1.24,1.24,0,1,1,.757,1.582A1.238,1.238,0,0,1,316.988,73.4Z" transform="translate(155.086 35.511)" fill="none" stroke="#fff" stroke-miterlimit="10" stroke-width="1"/>
          <path id="パス_2017" data-name="パス 2017" d="M298.11,76.281a1.241,1.241,0,1,1,.755,1.585,1.237,1.237,0,0,1-.755-1.585" transform="translate(145.847 36.924)" fill="#fff"/>
          <path id="パス_2018" data-name="パス 2018" d="M298.11,76.281a1.241,1.241,0,1,1,.755,1.585A1.237,1.237,0,0,1,298.11,76.281Z" transform="translate(145.847 36.924)" fill="none" stroke="#fff" stroke-miterlimit="10" stroke-width="1"/>
        </g>
      </g>
    </g>
  </g>
</svg>
