<svg xmlns="http://www.w3.org/2000/svg" width="144" height="37" viewBox="0 0 144 37">
  <g id="logo_5" transform="translate(-208 -7983)">
    <rect id="box" width="144" height="37" transform="translate(208 7983)" fill="#1070bd"/>
    <path id="font" d="M6.375.238c3.077,0,4.862-1.717,4.862-5.9V-12.6H8.823V-5.44c0,2.618-.952,3.5-2.448,3.5-1.462,0-2.38-.884-2.38-3.5V-12.6H1.479v6.936C1.479-1.479,3.315.238,6.375.238Zm13.872,0a5.091,5.091,0,0,0,4.012-1.853L22.933-3.179a3.47,3.47,0,0,1-2.6,1.241c-1.989,0-3.281-1.649-3.281-4.386,0-2.7,1.428-4.335,3.332-4.335A3.314,3.314,0,0,1,22.712-9.6l1.309-1.6a5.132,5.132,0,0,0-3.689-1.615c-3.179,0-5.848,2.431-5.848,6.579C14.484-2.04,17.068.238,20.247.238ZM42.279-4.1v2.941H35.207V-4.1ZM33.133,1.462h2.074V.782h7.072v.663h2.176V-6.018H33.133Zm7.4-12.971c.527.459,1.088.969,1.632,1.513-1.955.085-3.927.17-5.763.238.816-1.241,1.666-2.669,2.38-4.012l-2.329-.748a29.171,29.171,0,0,1-2.5,4.845c-.952.017-1.836.051-2.618.068l.119,2.04c3.162-.119,7.9-.306,12.393-.544a10.971,10.971,0,0,1,1.088,1.547l1.751-1.343A22.59,22.59,0,0,0,42.109-12.7Zm21.029-.255H57.171v-.816h4.386Zm0,2.142H57.171v-.816h4.386Zm1.87-4.352H55.386v5.746h8.041Zm1.156,8.092v-1.7H53.89v1.7h1.921a8.281,8.281,0,0,1-1.564,1.8L53.89-5.525l-1.36.595V-8.942h1.6v-1.9h-1.6v-3.349H50.66v3.349h-1.7v1.9h1.7v4.794c-.8.323-1.513.612-2.091.833l.748,2.04c1.037-.51,2.261-1.122,3.485-1.734a7,7,0,0,1,1.326,1.19,10.563,10.563,0,0,0,1.989-1.666h1A10.255,10.255,0,0,1,53.652-.408,5.972,5.972,0,0,1,54.978.782a12.972,12.972,0,0,0,3.978-4.267h1A9.35,9.35,0,0,1,56.8.425a5.569,5.569,0,0,1,1.428,1.122,12.114,12.114,0,0,0,3.4-5.032h.663C62.1-1.428,61.9-.561,61.659-.306a.582.582,0,0,1-.51.187c-.221,0-.663,0-1.207-.051A4.032,4.032,0,0,1,60.4,1.411a10.685,10.685,0,0,0,1.717-.034A1.585,1.585,0,0,0,63.24.8c.459-.493.731-1.853.969-5.168.017-.238.034-.7.034-.7h-6.9c.17-.272.34-.544.476-.816Zm4.08-6.188v2.363c.476-.034,1.394-.068,2.108-.068H78.4v7.038H70.567c-.765,0-1.53-.051-2.125-.1V-.408c.561-.051,1.53-.1,2.193-.1h7.752c0,.323,0,.612-.017.884h2.465c-.034-.51-.068-1.411-.068-2.006v-8.806c0-.493.034-1.173.051-1.564-.289.017-1,.034-1.5.034H70.754C70.176-11.968,69.292-12,68.663-12.07ZM84.9-6.613l1.071,2.142a34.064,34.064,0,0,0,6-2.448v5.44A19.038,19.038,0,0,1,91.851.748h2.686a11.687,11.687,0,0,1-.153-2.227V-8.347a31.182,31.182,0,0,0,4.573-3.689l-1.836-1.751a21.8,21.8,0,0,1-4.794,4.131A27.336,27.336,0,0,1,84.9-6.613Zm20.893-6.307-1.6,1.7a35.347,35.347,0,0,1,4.25,3.672l1.734-1.768A34.334,34.334,0,0,0,105.791-12.92ZM103.666-1.6,105.094.646a18.411,18.411,0,0,0,6.307-2.4,18.077,18.077,0,0,0,6.29-6.29l-1.326-2.4a16.007,16.007,0,0,1-6.188,6.613A17.522,17.522,0,0,1,103.666-1.6Z" transform="translate(222 8009)" fill="#fff"/>
  </g>
</svg>
